<svg width="330" height="100" viewBox="0 0 330 100" fill="none" xmlns="http://www.w3.org/2000/svg">
<path d="M24.246 47.5849C24.829 45.8358 25.4953 44.3366 26.1616 42.8374C29.0767 36.2577 31.9918 29.6779 34.8236 23.0981C35.5732 21.2658 35.5732 21.2658 33.6576 21.1825C26.3282 20.9327 18.9156 21.0992 11.5862 21.0159C11.2531 21.0159 10.9199 21.0159 10.67 21.0159C10.1703 21.0159 10.087 20.7661 10.087 20.3496C10.087 17.7677 10.087 15.1858 10.087 12.6038C10.087 12.2707 10.1703 12.0208 10.5868 12.0208C10.7533 12.0208 10.9199 12.0208 11.0865 12.0208C23.7463 12.0208 36.4061 11.9375 49.0659 12.1041C50.8982 12.1041 50.8982 12.1874 50.1486 13.8532C46.9837 20.9327 43.7354 27.9289 40.5705 35.0083C40.0708 36.0911 39.1546 37.2571 39.4877 38.2566C39.8209 39.1728 41.3201 39.3393 42.2363 39.8391C49.3157 43.5037 54.0632 49.3339 55.5624 57.0797C57.478 67.4074 54.1465 76.0694 45.5678 82.3993C42.736 84.4815 39.571 86.1473 35.9896 86.647C26.1616 87.9796 17.7495 85.5642 11.2531 77.8185C8.83771 74.9034 7.17195 71.4886 6.33907 67.7406C5.67276 64.6589 5.75605 64.6589 8.75442 64.6589C10.5035 64.6589 12.1692 64.6589 13.9183 64.6589C15.8339 64.6589 15.4175 64.3258 15.9172 66.2414C16.5002 68.157 17.1665 70.0727 18.5824 71.5718C22.0805 75.4031 26.4115 77.4853 31.7419 77.2354C37.5721 76.9856 44.9015 72.1549 46.0675 64.0759C47.4001 55.1641 40.4039 48.3344 34.5737 47.1684C31.6587 46.5854 28.7436 46.5021 25.8285 47.335C25.4953 47.4183 25.1622 47.5016 24.829 47.5849C24.829 47.5849 24.5792 47.5849 24.246 47.5849Z" fill="black"/>
<path d="M83.547 49.4172C83.547 61.4107 83.547 73.4041 83.547 85.3976C83.547 86.8135 83.547 86.8135 82.1311 86.8135C79.3826 86.8135 76.6341 86.8135 73.8856 86.8135C73.0527 86.8135 72.7195 86.6469 72.7195 85.7308C72.7195 80.3171 72.7195 74.9033 72.6363 69.4896C72.553 56.7465 72.4697 44.0034 72.3864 31.3436C72.3864 28.4286 72.3031 25.4302 72.3031 22.5151C72.3031 21.2658 72.3031 21.2658 70.9705 21.2658C68.3886 21.1825 65.7233 21.0159 63.1414 20.9326C62.3085 20.9326 61.9754 20.6828 61.9754 19.8499C61.9754 17.7677 61.9754 15.6855 61.8921 13.6033C61.8921 12.6871 62.2252 12.3539 63.1414 12.2707C66.4729 11.9375 69.8877 12.1874 73.2193 12.1874C76.2176 12.1874 79.216 12.2707 82.2977 12.3539C83.4637 12.3539 83.547 12.3539 83.547 13.6033C83.547 25.4302 83.547 37.4237 83.547 49.4172Z" fill="black"/>
<path d="M166.919 87.1467C164.503 87.0634 162.171 87.1467 159.756 86.647C156.091 85.8974 153.093 83.8152 150.261 81.5664C145.68 77.9017 142.515 73.3209 141.266 67.4907C138.101 52.7487 146.263 42.0045 155.841 37.5903C166.669 32.5097 181.91 34.925 189.989 48.501C192.738 53.1651 193.654 58.2457 193.154 63.5762C192.321 73.5707 186.991 80.4837 178.329 85.1478C175.414 86.7303 172.332 86.9801 169.084 87.0634C168.418 87.1467 167.668 87.1467 166.919 87.1467ZM166.669 84.7313C179.162 84.9812 190.489 74.237 190.239 62.3268C191.239 47.5016 177.913 38.09 167.168 38.0067C153.509 37.9234 143.015 50.0835 143.681 61.3274C143.098 73.9039 154.592 84.8146 166.669 84.7313Z" fill="black"/>
<path d="M286.187 61.9102C286.187 53.9979 286.187 46.0855 286.187 38.1731C286.187 37.7567 285.937 37.0904 286.52 36.9238C287.186 36.7572 287.936 36.6739 288.602 36.9238C289.019 37.0904 288.852 37.5901 288.852 37.84C288.852 40.5052 288.852 43.1704 288.852 45.8356C288.852 48.1677 288.852 50.4998 289.019 52.9151C289.185 54.4976 289.185 54.5809 290.685 54.6642C299.596 54.9973 308.508 54.8308 317.42 54.8308C318.17 54.8308 318.919 54.6642 319.669 54.6642C320.668 54.6642 321.085 54.0812 321.085 53.165C321.168 51.3327 321.335 49.5003 321.335 47.668C321.335 44.503 321.335 41.4214 321.251 38.2564C321.251 37.3403 321.501 37.0071 322.417 37.0071C324 36.9238 324 36.9238 324 38.423C323.916 54.1645 323.833 69.9059 323.75 85.6474C323.75 85.9805 323.916 86.5635 323.583 86.7301C323 86.98 322.251 86.98 321.584 86.98C321.418 86.98 321.335 86.8134 321.335 86.6468C321.335 86.397 321.335 86.0638 321.335 85.8139C321.251 76.9854 321.251 68.1569 321.168 59.4116C321.168 58.079 321.168 58.079 319.835 57.9124C316.92 57.6626 314.005 57.7458 311.007 57.7458C304.094 57.7458 297.181 57.7458 290.185 57.7458C288.769 57.7458 288.935 57.6626 288.935 58.9952C288.852 67.9903 288.769 76.9021 288.686 85.8972C288.686 86.3137 288.935 86.8967 288.352 86.98C287.686 87.0633 286.937 87.2298 286.27 86.8967C285.937 86.7301 286.104 86.3137 286.104 86.0638C286.104 84.398 286.104 82.7323 286.104 80.9832C286.187 74.57 286.187 68.2401 286.187 61.9102Z" fill="black"/>
<path d="M235.631 54.4145C235.631 49.0008 235.631 43.5037 235.631 38.09C235.631 36.8407 235.631 36.8407 236.964 36.924C238.463 37.0073 238.463 37.0073 238.463 38.5065C238.463 48.0013 238.713 57.4962 238.546 67.0743C238.463 70.2392 238.463 73.4875 237.047 76.4858C234.215 82.4826 229.801 86.5637 223.138 87.5632C217.391 88.396 211.728 87.8963 206.98 83.8985C202.982 80.567 200.817 76.3193 200.067 71.2387C199.651 68.2403 199.734 65.1587 199.651 62.077C199.568 54.2479 199.568 46.4188 199.817 38.5897C199.817 37.1739 200.817 36.4243 202.316 36.924C202.566 37.0073 202.649 37.1739 202.649 37.4237C202.649 37.7569 202.649 38.09 202.649 38.3399C202.649 46.6687 202.649 54.9142 202.733 63.243C202.733 65.3252 202.816 67.4907 202.899 69.5729C203.066 75.5697 206.064 79.9007 211.061 83.1489C214.143 85.1478 217.475 84.9812 220.889 85.0645C224.387 85.1478 227.136 83.5653 229.635 81.3998C232.217 79.2344 234.215 76.6524 234.965 73.3209C235.465 70.9888 235.548 68.5735 235.548 66.1581C235.631 62.2436 235.631 58.329 235.631 54.4145Z" fill="black"/>
<path d="M117.945 87.23C113.198 87.8963 109.117 85.8141 105.119 83.7319C103.453 82.8157 101.788 81.8163 100.372 80.5669C99.3722 79.6508 99.3722 79.0677 100.372 78.2349C100.788 77.9017 101.205 77.8184 101.621 78.0683C102.287 78.4847 102.954 78.9012 103.537 79.4009C107.784 82.4826 112.448 84.4815 117.696 84.8146C122.36 85.0645 126.441 83.6486 129.189 79.7341C131.188 76.9023 131.355 73.654 130.355 70.4058C129.523 67.8239 127.524 66.408 125.108 65.3252C122.027 63.9093 118.612 63.3263 115.28 62.66C112.115 61.9937 108.95 61.1608 106.035 59.7449C98.8725 56.2468 97.6232 47.335 103.037 41.4215C105.536 38.5897 108.784 37.1738 112.532 37.0905C116.113 37.0072 119.695 37.0072 123.026 38.3399C125.525 39.256 127.773 40.5886 129.939 42.0045C130.272 42.2544 130.605 42.5043 130.772 42.7541C131.188 43.3371 131.022 43.9202 130.689 44.4199C130.355 44.9196 129.856 44.9196 129.356 44.8363C128.273 44.5032 127.44 43.8369 126.441 43.3371C122.526 40.9218 118.445 39.1727 113.698 39.5892C109.617 39.9223 106.119 41.5881 103.786 45.0862C101.454 48.5843 101.871 54.581 106.868 57.0797C109.867 58.5789 113.031 59.3285 116.196 60.0781C119.445 60.8276 122.776 61.494 125.858 62.8266C129.356 64.3257 132.188 66.4912 133.104 70.2392C134.437 75.4031 133.437 80.0672 129.356 83.8985C126.774 86.2305 123.942 87.6464 120.361 87.5631C119.778 87.23 118.862 87.23 117.945 87.23Z" fill="black"/>
<path d="M260.535 63.1596C260.535 55.6637 260.535 48.1677 260.535 40.7551C260.535 39.5058 260.535 39.5058 259.285 39.5058C255.204 39.5058 251.123 39.5058 247.042 39.5058C246.126 39.5058 245.793 39.2559 245.959 38.3397C246.043 38.0066 245.959 37.6734 245.959 37.4236C245.959 37.0071 246.126 36.8405 246.542 36.8405C246.792 36.8405 247.125 36.8405 247.375 36.8405C257.12 36.8405 266.948 36.8405 276.693 36.8405C277.109 36.8405 277.775 36.5907 278.025 37.0904C278.275 37.7567 278.275 38.5063 278.025 39.1726C277.859 39.6723 277.359 39.5058 277.026 39.5058C274.444 39.5891 271.779 39.5891 269.197 39.6723C267.781 39.6723 266.365 39.7556 264.949 39.6723C264.116 39.6723 263.783 39.9222 263.783 40.8384C263.783 48.0012 263.7 55.0806 263.616 62.2434C263.533 70.0725 263.45 77.9849 263.45 85.814C263.45 86.6468 263.283 86.98 262.45 86.8967C262.284 86.8967 262.117 86.8967 261.951 86.8967C261.118 86.98 260.785 86.7301 260.785 85.814C260.868 84.2315 260.785 82.649 260.785 81.1498C260.785 75.2364 260.785 69.2396 260.785 63.3262C260.618 63.1596 260.535 63.1596 260.535 63.1596Z" fill="black"/>
<path d="M109.2 18.9336C114.031 18.9336 118.612 18.9336 123.359 18.9336C122.859 19.7665 122.276 20.2662 121.693 20.8492C120.111 22.4317 118.528 24.0142 116.946 25.5134C116.613 25.8465 116.363 26.0964 115.863 25.5966C113.781 23.4312 111.616 21.2657 109.2 18.9336Z" fill="black"/>
</svg>
