<svg xmlns="http://www.w3.org/2000/svg" viewBox="0 0 404.45 301.99"><defs><style>.cls-1{fill:#ed292f;}.cls-2{fill:#010101;}.cls-3{fill:#ec2a2f;}.cls-4{fill:#ed2a2f;}.cls-5{fill:#030303;}.cls-6{fill:#e72e33;}.cls-7{fill:#020202;}.cls-8{fill:#e33136;}.cls-9{fill:#8b6055;}.cls-10{fill:#827571;}.cls-11{fill:#e82d33;}.cls-12{fill:#86716c;}</style></defs><g id="Layer_2" data-name="Layer 2"><g id="Layer_1-2" data-name="Layer 1"><path class="cls-1" d="M103.92,79.59Q101,72.93,98,66.26L68.82,1l-.44-1H339.55c.21.37-.09.67-.22,1Q331.22,19,323.07,37.05a1.43,1.43,0,0,1-.2.3c-.44,0-.88,0-1.31,0H303.81c-1.32,0-2.63,0-3.95,0a2,2,0,0,1,.32-.89q4.2-9.33,8.39-18.65c.17-.37.51-.72.37-1.2H99c9.42,21.09,18.79,42,28.16,63Z"/><path class="cls-1" d="M182.72,255.67l-17.07-38.2q-13.89-31.07-27.77-62.11a4.16,4.16,0,0,1-.55-1.43c.26.07.54.12.79.21l18.23,6.73c2.9,1.08,5.84,2.07,8.7,3.28a3.85,3.85,0,0,0,.53,1.44q18,40.28,36,80.53c.64,1.43,1.3,2.85,1.95,4.3a1.38,1.38,0,0,0,.59-.86c1.52-3.34,3-6.68,4.53-10l11.17-24.73a2.5,2.5,0,0,1,.15,1.4l0,28a13.13,13.13,0,0,1-11.6,11.51H182.72Z"/><path d="M285.19,121c.44,0,.88,0,1.31,0h62.59c.32,0,.64,0,1,0s.54.18.54.57c0,1.4,0,2.8,0,4.19,0,.54-.22.71-.72.68-.31,0-.64,0-1,0H284.05c-.48,0-1,0-1.44,0a2,2,0,0,0-.94-.1H260.51a1.89,1.89,0,0,0-.94.1q-20.62,0-41.25,0c-.88,0-1,.35-.95,1,0,3.48,0,7,0,10.44,0,1.55-.22,1.35,1.3,1.35H250l3.83,0H277l1.32,0h68.57a7.85,7.85,0,0,0,.84,0c.54-.06.67.18.66.68,0,1.4,0,2.8,0,4.2,0,.5-.13.74-.67.68a7.85,7.85,0,0,0-.84,0H275.71l-1.31,0c-.64,0-1.27-.05-1.9-.05l-21.24,0q-16.48,0-33,0c-.77,0-.92.25-.91,1,0,7.95,0,15.9,0,23.85,0,.88.34,1,1,1,4.6,0,9.19,0,13.79,0l7.67,0a1.5,1.5,0,0,0,.93.12h21.13a1.64,1.64,0,0,0,.93-.1l1.44,0h84.49a7.67,7.67,0,0,0,1,0c.61-.06.86.15.84.8,0,1.31,0,2.63,0,3.95,0,.49-.11.76-.66.7-.32,0-.64,0-1,0H261.84l-1.56,0c-.43,0-.87-.05-1.3-.05H242.51c-1.75,0-3.5,0-5.25.05l-24.09,0c-1.35,0-1.35,0-1.35-1.29V122.41c0-1.33,0-1.33,1.32-1.33h47.58c.48,0,1,0,1.44,0s.87.06,1.31.06h17.9C282.65,121.1,283.92,121.06,285.19,121Z"/><path class="cls-2" d="M299.86,37.35c1.32,0,2.63,0,3.95,0h17.75c.43,0,.87,0,1.31,0l21.45,0a18.12,18.12,0,0,1,10.79,3.34c6.05,4.33,8.95,10.28,8.15,17.67-.86,7.84-5.31,13.12-12.66,15.94-.33.13-.68.22-1,.34,0,0-.06,0-.14.13,2,5.4,4,10.84,6.11,16.38-1.87,0-3.62,0-5.38,0-.71,0-.72-.53-.87-.94-1.72-4.54-3.44-9.07-5.09-13.64a1.65,1.65,0,0,0-1.86-1.3c-11.78.05-23.57,0-35.36,0-.44,0-.87,0-1.31,0s-.88-.06-1.31-.06q-8.73,0-17.45,0c-1.44,0-2.87,0-4.3,0-.2,0-.4,0-.6,0q-29.25,0-58.5,0c-.91,0-1.13.24-1.12,1.13,0,4.56,0,9.11,0,13.67,0,.79-.14,1.14-1,1.07-1.07-.08-2.16,0-3.23,0-1.3,0-1.21.19-1.21-1.23V39.73a5.89,5.89,0,0,1,0-.84c.24-1.51.25-1.51,1.83-1.51h79.6ZM320.35,43H297.21c-.12,0-.24,0-.36,0H223.34c-.71,0-.94.14-.94.91,0,8.39,0,16.78,0,25.18v.11c-.11.68.24.85.83.79a5.77,5.77,0,0,1,.72,0h60.08c.4,0,.8,0,1.19,0a2.17,2.17,0,0,0,1.18.11q7.23,0,14.48,0c2.47,0,4.94,0,7.41,0l35.6,0c.56,0,1.11,0,1.67-.08a13.47,13.47,0,0,0-1.14-26.89H326C324.11,42.94,322.23,43,320.35,43Z"/><path class="cls-3" d="M237.26,176.11c1.75,0,3.5-.05,5.25-.05H259c.43,0,.87,0,1.3.05a36.5,36.5,0,0,1-1.82,4.27q-7.59,16.86-15.19,33.73a6.67,6.67,0,0,1-.92,1.46c0-2.75-.08-5.5,0-8.25,0-.94-.27-1.18-1.15-1.11s-1.83,0-2.75,0c-1.66,0-1.66,0-1.66,1.61q0,10.49,0,20.95c-1.41,2.68-2.53,5.48-3.79,8.23q-4.78,10.46-9.53,20.93-3.85,8.52-7.68,17l-9.81,21.78c-.77,1.71-1.53,3.42-2.33,5.22A11.52,11.52,0,0,1,202,298.9c-2.08-4.55-4.09-9.12-6.13-13.69q-5-11.18-10-22.34c-.24-.54-.46-1.08-.69-1.62.44,0,.88-.06,1.31-.06h20.25a18.56,18.56,0,0,0,18.73-18.64c0-8.26,0-16.52,0-24.79,0-3.67,0-7.34,0-11-.57-.5-1.28-.1-1.9-.28Z"/><path class="cls-4" d="M134,146.7q-7.8-17.43-15.59-34.87-5.85-13.08-11.69-26.16a4,4,0,0,1-.15-.45c.43,0,.87,0,1.31,0q8.76,0,17.51,0c1.4,0,2.79,0,4.19,0,.08.14.17.26.24.41q13.27,29.66,26.54,59.32c1.77,4,3.5,7.93,5.25,11.9a18.66,18.66,0,0,1-2.92-1Q146.32,151.28,134,146.7Z"/><path class="cls-5" d="M134,146.7q12.34,4.58,24.69,9.14a18.66,18.66,0,0,0,2.92,1,3.79,3.79,0,0,0,1.41.54q13.37,5,26.76,9.9l5.5,2V124.68a5.77,5.77,0,0,0,0-.72c-.08-.57.13-.76.72-.74,1.24,0,2.48,0,3.72,0s1.12-.17,1.12,1.16q0,25.89,0,51.78c0,.34.13.71-.15,1.06l-.55-.2-14.79-5.44-20.28-7.45c-2.86-1.21-5.8-2.2-8.7-3.28l-18.23-6.73c-.25-.09-.53-.14-.79-.21-5.48-2.05-11-4.11-16.45-6.14Q94.95,138.21,69,128.65a3.8,3.8,0,0,0-1.52-.41v46.57c0,1.27,0,1.27-1.27,1.27s-2.31,0-3.47,0c-.5,0-.77-.12-.71-.66a4,4,0,0,0,0-.6V121.46a2.05,2.05,0,0,1,.16-1.24Z"/><path d="M327.74,249.66h62.59c1.57,0,1.34.2,1.35-1.31V207.46c0-1.25,0-1.25,1.28-1.25s2.4,0,3.6,0c.5,0,.75.11.68.66a4,4,0,0,0,0,.6q0,26.25,0,52.5c0,1.44.24,1.23-1.28,1.24-1.16,0-2.32,0-3.47,0-.61,0-.84-.14-.82-.79,0-1.44,0-2.88,0-4.31,0-.77-.25-1-1-.91a4,4,0,0,1-.6,0H265.2a4,4,0,0,1-.6,0c-.73-.11-1,.17-.94.92.06,1.44,0,2.88,0,4.31,0,.53-.06.8-.7.78-1.4-.05-2.8,0-4.19,0-.52,0-.74-.14-.68-.67a5.77,5.77,0,0,0,0-.72V207.56c0-.24,0-.48,0-.72,0-.42.07-.65.58-.64,1.48,0,3,0,4.44,0,.41,0,.58.14.55.56a7.82,7.82,0,0,0,0,.84v40.63c0,1.43,0,1.43,1.48,1.43Z"/><path d="M129.57,85.22c-1.4,0-2.79,0-4.19,0q-8.76,0-17.51,0c-.44,0-.88,0-1.31,0s-.72,0-1.08,0H56.8c-1.5,0-1.32-.17-1.32,1.36,0,1.31,0,2.63,0,4,0,.51-.12.71-.66.69q-2.16,0-4.32,0c-.48,0-.63-.18-.59-.63a5.77,5.77,0,0,0,0-.72V37.46c0-1.27,0-1.27,1.25-1.27s2.25.05,3.36,0c.83-.06,1,.26,1,1,0,3.16,0,6.32,0,9.47q0,15.95,0,31.89c0,.74,0,1.13,1,1.13q23.57-.06,47.12,0a2.2,2.2,0,0,0,.36,0h23.19c.4,0,.79,0,1.19,0h53.83c1.35,0,1.35,0,1.35-1.31V37.68a5.75,5.75,0,0,0,0-.83c-.06-.54.17-.69.68-.67,1.2,0,2.4,0,3.6,0,1.52,0,1.28-.2,1.28,1.23q0,26.25,0,52.5a4,4,0,0,0,0,.6c.07.53-.15.69-.67.67-1.32,0-2.64-.07-4,0-.85,0-1-.29-.95-1,0-1.43,0-2.87,0-4.31,0-.52-.17-.74-.69-.69a5.77,5.77,0,0,1-.72,0H130.89C130.45,85.19,130,85.21,129.57,85.22Z"/><path class="cls-2" d="M225.48,206.75c0,3.67,0,7.34,0,11,0,8.27,0,16.53,0,24.79a18.56,18.56,0,0,1-18.73,18.64H186.53c-.43,0-.87,0-1.31.06s-.95,0-1.43,0q-39,0-77.94,0c-7.83,0-13.56-3.63-17.17-10.56a17,17,0,0,1-1.82-8q0-17.44,0-34.89c0-1.27-.16-1.16,1.13-1.16,1.08,0,2.16,0,3.24,0s1.18,0,1.18,1.13v34.65a13.15,13.15,0,0,0,13.22,13.37q38.13,0,76.26,0a7.8,7.8,0,0,0,.83-.09h0c.27.35.66.2,1,.2h23.45c.42,0,.88.12,1.27-.19A13.13,13.13,0,0,0,220,244.17c.35-.46.2-1,.2-1.5q0-13.69,0-27.39a2.94,2.94,0,0,0-.09-1.18c0-2.22,0-4.44,0-6.67,0-.59.14-.87.79-.83.87.05,1.75,0,2.62,0A13.17,13.17,0,0,0,225.48,206.75Z"/><path class="cls-4" d="M282.62,75.39c1.43,0,2.86,0,4.3,0q8.71,0,17.45,0c.43,0,.87,0,1.31.06-.74,2.15-1.79,4.16-2.72,6.23Q294.1,101.34,285.19,121c-1.27,0-2.54.06-3.82.06h-17.9c-.44,0-.87,0-1.31-.06a58.55,58.55,0,0,1,2.42-5.57Q273.59,95.42,282.62,75.39Z"/><path class="cls-5" d="M.14,148.59a27.91,27.91,0,1,1,27.89,28A27.9,27.9,0,0,1,.14,148.59ZM28,171.11a22.49,22.49,0,1,0-.28-45,22.49,22.49,0,0,0,.28,45Z"/><path class="cls-5" d="M25.33,233.74a27.91,27.91,0,1,1,27.78,27.95A28,28,0,0,1,25.33,233.74Zm27.86,22.51a22.5,22.5,0,1,0-22.42-22.42A22.45,22.45,0,0,0,53.19,256.25Z"/><path class="cls-6" d="M251.26,144.91l21.24,0c.63,0,1.26,0,1.9.05l-9.62,21.45c-.63,1.41-1.28,2.82-1.92,4.23a1.64,1.64,0,0,1-.93.1H240.8a1.5,1.5,0,0,1-.93-.12,1.91,1.91,0,0,1,.36-1.11c1.2-2.69,2.42-5.36,3.62-8Z"/><path class="cls-5" d="M19.26,219.69c0,2.52,0,5,0,7.55,0,.84-.28,1-1,1-1.2-.05-2.4-.06-3.6,0-.8,0-1-.23-1-1,0-4.64,0-9.27,0-13.91,0-1.37-.49-2.12-1.37-2.12s-1.47.79-1.47,2.2c0,4,0,8.07,0,12.1a3.14,3.14,0,0,0,.61,2q2.58,3.6,5.14,7.21c.48.69.93,1.4,1.36,2.11a8.88,8.88,0,0,1,1.32,4.89c-.07,4.39,0,8.79,0,13.18a6.9,6.9,0,0,1-10.53,5.79,6.66,6.66,0,0,1-3.28-5.91c0-4.95,0-9.91,0-14.86,0-.71.25-.87.9-.85,1.2,0,2.4.06,3.6,0,.79-.05,1,.2,1,1,0,4.59,0,9.19,0,13.78,0,.32,0,.65,0,1a1.44,1.44,0,0,0,1.53,1.36,1.34,1.34,0,0,0,1.29-1.44c0-1.6,0-3.2,0-4.8,0-2.67,0-5.35,0-8a4.72,4.72,0,0,0-.73-2.59c-1.57-2.55-3.53-4.82-5.17-7.33-.53-.8-1-1.6-1.53-2.42A6.76,6.76,0,0,1,5.41,226c0-4.4,0-8.79,0-13.18a6.81,6.81,0,0,1,7.48-7,6.78,6.78,0,0,1,6.31,6.38c.09,2.51,0,5,0,7.55Z"/><path class="cls-5" d="M24.77,66.45V89.59c0,1.59,0,1.59-1.65,1.59-1.08,0-2.16,0-3.24,0-.52,0-.73-.14-.67-.67a7.85,7.85,0,0,0,0-.84V42.93c0-1.3,0-1.3-1.34-1.3-5.59,0-11.19,0-16.78,0-.8,0-1.14-.14-1.08-1A30.88,30.88,0,0,0,0,37c0-.68.19-.86.86-.85,2.52,0,5,0,7.56,0H42.72c1.49,0,1.31-.21,1.32,1.35,0,1,0,2.08,0,3.11.06.82-.24,1-1,1-5.51,0-11,0-16.54,0a4,4,0,0,1-.6,0c-.87-.13-1.17.15-1.15,1.1.07,3.15,0,6.31,0,9.47Z"/><path d="M404.43,50.18c0,4.11,0,8.23,0,12.35a6.86,6.86,0,0,1-3.74,6.59c-.62.33-.54.78-.54,1.28q0,9.72,0,19.42c0,1.36,0,1.36-1.41,1.36-1.08,0-2.16-.05-3.24,0-.74,0-.93-.17-.92-.92,0-5.11,0-10.23,0-15.34,0-1.56,0-3.12,0-4.68A1.19,1.19,0,0,0,394,69a6.75,6.75,0,0,1-3.47-6.15c0-8.55,0-17.1,0-25.65,0-.81.15-1.13,1-1.07a30.88,30.88,0,0,0,3.6,0c.8-.05,1,.21,1,1,0,8,0,15.91,0,23.86,0,.64,0,1.28,0,1.92a1.37,1.37,0,0,0,1.4,1.46,1.42,1.42,0,0,0,1.43-1.46c0-.27,0-.56,0-.84q0-12.35,0-24.69c0-1.39-.18-1.2,1.19-1.21,1.16,0,2.33.05,3.48,0,.79-.06.9.24.9.94C404.42,41.47,404.43,45.82,404.43,50.18Z"/><path class="cls-7" d="M370.85,60.83V37.33c0-1.3-.19-1.13,1.14-1.14,1.16,0,2.32.05,3.47,0,.83,0,1,.27,1,1,0,4,0,8.07,0,12.11,0,.82.19,1.11,1.05,1.07,1.76-.06,3.52,0,5.28,0,.59,0,.85.13.82.8-.05,1.23-.06,2.48,0,3.71,0,.73-.16,1-.92,1-1.76,0-3.52,0-5.27,0-.73,0-1,.18-1,.93,0,9.07,0,18.14,0,27.21,0,1.31.51,1.81,1.81,1.84s2.88.05,4.32,0c.76,0,.95.24.92,1,0,1.23,0,2.47,0,3.71,0,.66-.22.81-.83.8-1.68,0-3.36,0-5,0a6.85,6.85,0,0,1-6.74-7C370.84,76.41,370.85,68.62,370.85,60.83Z"/><path class="cls-7" d="M236.73,228.79q0-10.47,0-20.95c0-1.61,0-1.61,1.66-1.61.92,0,1.84.06,2.75,0s1.17.17,1.15,1.11c-.06,2.75,0,5.5,0,8.25,0,1.32,0,2.64,0,4,0,.71.26.86.9.85,1.76,0,3.52,0,5.27,0,.83,0,1,.25,1,1q-.09,1.8,0,3.6c0,.7-.23.88-.89.86-1.79,0-3.59,0-5.39,0-.69,0-.87.23-.87.9,0,9.1,0,18.2,0,27.31,0,1.22.52,1.74,1.75,1.77,1.48,0,2.95,0,4.43,0,.7,0,.89.23.87.9,0,1.27,0,2.55,0,3.83,0,.58-.2.75-.76.74-1.68,0-3.36,0-5,0a6.89,6.89,0,0,1-6.82-7q0-12,0-24C236.77,229.75,236.74,229.27,236.73,228.79Z"/><path class="cls-8" d="M259.57,126.54a1.89,1.89,0,0,1,.94-.1h21.16a2,2,0,0,1,.94.1,42.36,42.36,0,0,1-2.05,4.81c-1.15,2.66-2.34,5.31-3.52,8H253.82Q256.7,132.92,259.57,126.54Z"/><path class="cls-9" d="M219.83,214.81l.29-.71a2.94,2.94,0,0,1,.09,1.18q0,13.69,0,27.39c0,.51.15,1-.2,1.5l0-28A2.5,2.5,0,0,0,219.83,214.81Z"/><path class="cls-10" d="M208.41,255.68c-.39.31-.85.19-1.27.19H183.69c-.34,0-.73.15-1-.2Z"/><path class="cls-11" d="M320.35,43q-4.43,9.87-8.85,19.74c-1.08,2.4-2.13,4.81-3.19,7.22-2.47,0-4.94,0-7.41,0q-7.25,0-14.48,0a2.17,2.17,0,0,1-1.18-.11,44.2,44.2,0,0,1,2.3-5.35q4.8-10.78,9.67-21.55Z"/><path class="cls-12" d="M223.5,206.62a.1.1,0,0,1,.08-.15c.62.18,1.33-.22,1.91.28A13.22,13.22,0,0,1,223.5,206.62Z"/><path d="M205.63,63.81q0,13.06,0,26.13c0,1.44.22,1.22-1.28,1.24-1.2,0-2.4,0-3.6,0-.51,0-.74-.13-.67-.66,0-.2,0-.4,0-.6V37.43c0-1.44-.23-1.23,1.28-1.24,1.12,0,2.24,0,3.36,0,.72,0,.95.15.94.91-.06,2.4,0,4.8,0,7.19Z"/></g></g></svg>