<svg width="919" height="181" viewBox="0 0 919 181" fill="none" xmlns="http://www.w3.org/2000/svg">
<path fill-rule="evenodd" clip-rule="evenodd" d="M0 2.25C0 3.4875 0.203999 4.5 0.452999 4.5C0.702499 4.5 1.061 5.625 1.25 7C1.439 8.375 1.7975 9.5 2.047 9.5C2.296 9.5 2.5 10.2875 2.5 11.25C2.5 12.2125 2.725 13 3 13C3.275 13 3.5 13.6475 3.5 14.439C3.5 15.2305 3.8375 16.6855 4.25 17.673C4.6625 18.66 5 20.15 5 20.984C5 21.818 5.225 22.5 5.5 22.5C5.775 22.5 6 23.4 6 24.5C6 25.6 6.195 26.5 6.4335 26.5C6.9045 26.5 7.932 30.468 8.344 33.875C8.485 35.044 8.803 36 9.0505 36C9.2975 36 9.5 36.6475 9.5 37.439C9.5 38.2305 9.8375 39.6855 10.25 40.673C10.6625 41.66 11 43.15 11 43.984C11 44.818 11.225 45.5 11.5 45.5C11.775 45.5 12 46.5125 12 47.75C12 48.9875 12.204 50 12.453 50C12.7025 50 13.061 51.125 13.25 52.5C13.439 53.875 13.7975 55 14.047 55C14.296 55 14.5 56.0125 14.5 57.25C14.5 58.4875 14.725 59.5 15 59.5C15.275 59.5 15.5075 60.119 15.5165 60.875C15.526 61.631 15.9555 62.756 16.472 63.375C17.3505 64.4285 17.7965 64.5 23.491 64.5C27.705 64.5 29.754 64.308 30.1655 63.875C30.862 63.142 31.9835 59.547 32.3485 56.875C32.4895 55.844 32.8065 55 33.0525 55C33.2985 55 33.5 54.1135 33.5 53.0295C33.5 51.9455 33.6955 50.938 33.9345 50.7905C34.173 50.643 34.5135 49.617 34.69 48.511C34.867 47.405 35.234 46.5 35.506 46.5C35.7775 46.5 36 45.15 36 43.5C36 41.8335 36.222 40.5 36.5 40.5C36.775 40.5 37 39.8525 37 39.061C37 38.2695 37.3375 36.8145 37.75 35.827C38.1625 34.84 38.5 33.35 38.5 32.516C38.5 31.682 38.725 31 39 31C39.275 31 39.5 29.875 39.5 28.5C39.5 27.125 39.699 26 39.9415 26C40.1845 26 40.501 25.55 40.645 25C40.7885 24.45 41.321 24.002 41.828 24.0045C42.513 24.0075 42.9775 24.7465 43.634 26.8795C44.1205 28.458 44.5145 30.4815 44.509 31.375C44.504 32.2685 44.725 33 45 33C45.275 33 45.5 33.9 45.5 35C45.5 36.1 45.709 37 45.964 37C46.219 37 46.583 38.2405 46.7725 39.7565C46.962 41.2725 47.3155 42.636 47.5585 42.786C47.8015 42.936 48 43.833 48 44.7795C48 45.726 48.225 46.5 48.5 46.5C48.775 46.5 49.008 47.344 49.0175 48.375C49.0275 49.4065 49.357 50.8125 49.75 51.5C50.143 52.1875 50.4725 53.4815 50.4825 54.375C50.492 55.2685 50.725 56 51 56C51.275 56 51.5 57.125 51.5 58.5C51.5 59.875 51.7 61 51.9445 61C52.1885 61 52.5365 61.7875 52.717 62.75L53.0455 64.5H59.3085C63.8425 64.5 65.7545 64.317 66.234 63.8375C66.5985 63.473 67.314 61.954 67.8235 60.4625C68.333 58.9705 68.919 57.675 69.125 57.5835C69.331 57.4915 69.5 56.3105 69.5 54.9585C69.5 53.6065 69.725 52.5 70 52.5C70.275 52.5 70.5 51.74 70.5 50.811C70.5 49.8825 70.8375 48.8425 71.25 48.5C71.729 48.1025 72 46.9965 72 45.439C72 44.0975 72.225 43 72.5 43C72.775 43 73 42.226 73 41.2795C73 40.333 73.212 39.428 73.471 39.268C73.73 39.1075 74.0935 37.9695 74.278 36.7385C74.4625 35.5075 74.813 34.5 75.057 34.5C75.3005 34.5 75.5 33.4875 75.5 32.25C75.5 31.0125 75.725 30 76 30C76.275 30 76.5 29.318 76.5 28.484C76.5 27.65 76.8375 26.16 77.25 25.173C77.6625 24.1855 78 22.9555 78 22.439C78 21.9225 78.225 21.5 78.5 21.5C78.775 21.5 79 20.799 79 19.942C79 18.2505 80.517 13.3535 81.125 13.0835C81.331 12.9915 81.5 11.8105 81.5 10.4585C81.5 9.1065 81.725 8 82 8C82.275 8 82.5 7.2555 82.5 6.3455C82.5 5.4355 82.8305 4.2545 83.234 3.7205C84.17 2.4835 84.1845 1.6135 83.2855 0.7145C82.749 0.1775 81.1345 0 76.795 0C71.051 0 71.0175 0.00699997 70.7055 1.25C70.533 1.9375 70.191 2.5 69.946 2.5C69.7005 2.5 69.5 3.5125 69.5 4.75C69.5 5.9875 69.275 7 69 7C68.725 7 68.49 7.844 68.478 8.875C68.466 9.9065 68.132 11.65 67.7355 12.75C67.3395 13.85 67.0115 15.3685 67.0075 16.125C67.0035 16.8815 66.7975 17.5 66.5505 17.5C66.303 17.5 65.9815 18.456 65.836 19.625C65.3815 23.274 64.3515 27.5 63.9165 27.5C63.6875 27.5 63.5 28.5125 63.5 29.75C63.5 30.9875 63.275 32 63 32C62.725 32 62.492 32.844 62.4825 33.875C62.4725 34.9065 62.143 36.3125 61.75 37C61.357 37.6875 61.0275 38.66 61.0175 39.1605C61.0015 39.999 59.6175 41.858 59.325 41.4345C57.9955 39.511 57.5 38.176 57.5 36.5175C57.5 35.408 57.3125 34.5 57.0835 34.5C56.619 34.5 55.5605 30.0215 55.1625 26.375C55.02 25.069 54.7 24 54.4515 24C54.2035 24 53.992 23.1565 53.9825 22.125C53.9725 21.094 53.643 19.6875 53.25 19C52.857 18.3125 52.5275 17.0185 52.5175 16.125C52.508 15.2315 52.275 14.5 52 14.5C51.725 14.5 51.5 13.6 51.5 12.5C51.5 11.4 51.275 10.5 51 10.5C50.725 10.5 50.493 9.544 50.484 8.375C50.4755 7.206 50.138 5.813 49.734 5.2795C49.3305 4.7455 49 3.661 49 2.8685C49 0.349 48.149 0 42 0C35.8725 0 35.222 0.264999 34.6785 2.9815C34.5095 3.828 34.175 4.642 33.9355 4.79C33.696 4.938 33.5 6.058 33.5 7.2795C33.5 8.501 33.2985 9.5 33.0525 9.5C32.8065 9.5 32.4835 10.344 32.335 11.375C31.921 14.2495 30.818 18 30.3865 18C30.174 18 30 19.0125 30 20.25C30 21.4875 29.775 22.5 29.5 22.5C29.225 22.5 29 23.182 29 24.016C29 24.85 28.6625 26.34 28.25 27.327C27.8375 28.3145 27.5 29.882 27.5 30.811C27.5 31.74 27.275 32.5 27 32.5C26.725 32.5 26.5 33.0535 26.5 33.73C26.5 36.0815 24.8455 40.5 23.965 40.5C22.931 40.5 21.5 36.9345 21.5 34.3585C21.5 33.336 21.275 32.5 21 32.5C20.725 32.5 20.5 31.818 20.5 30.984C20.5 30.15 20.1625 28.66 19.75 27.673C19.3375 26.6855 19 25.118 19 24.189C19 23.26 18.775 22.5 18.5 22.5C18.225 22.5 18 21.375 18 20C18 18.625 17.8195 17.5 17.5985 17.5C17.1495 17.5 16.065 13.37 15.663 10.125C15.518 8.956 15.197 8 14.9495 8C14.7025 8 14.5 7.001 14.5 5.7795C14.5 4.558 14.304 3.438 14.0645 3.29C13.825 3.142 13.493 2.341 13.327 1.5105L13.025 0H6.5125H0V2.25ZM87.125 0.747999C86.323 1.6585 86.2 63 87 63C87.275 63 87.5 63.3375 87.5 63.75C87.5 64.406 90.4665 64.5 111.197 64.5C132.344 64.5 134.926 64.415 135.197 63.709C135.364 63.274 135.5 60.9615 135.5 58.57C135.5 52.0735 136.78 52.5 117.298 52.5C102.995 52.5 101.071 52.408 100.803 51.709C100.408 50.6795 100.408 38.8205 100.803 37.791C101.07 37.095 102.841 37 115.548 37C132.88 37 132 37.298 132 31.4245C132 28.5885 131.792 27.364 131.214 26.7855C130.537 26.1085 128.469 26 116.214 26C107.071 26 102 25.8215 102 25.5C102 25.225 101.662 25 101.25 25C100.625 25 100.5 24 100.5 19C100.5 14 100.625 13 101.25 13C101.662 13 102 12.775 102 12.5C102 12.1775 107.464 11.9975 117.375 11.9925C125.832 11.988 133.017 11.815 133.344 11.607C134.916 10.6075 135.562 4.7595 134.451 1.5745L133.902 0L110.826 0.0189991C91.5375 0.0349991 87.6475 0.154499 87.125 0.747999ZM180 0.5C180 0.775 179.662 1 179.25 1C178.783 1 178.5 1.472 178.5 2.25C178.5 2.9375 178.275 3.5 178 3.5C177.725 3.5 177.5 4.0465 177.5 4.7145C177.5 5.382 177.162 6.266 176.75 6.6785C176.338 7.091 176 7.8945 176 8.4645C176 9.034 175.775 9.5 175.5 9.5C175.225 9.5 175 9.886 175 10.3585C175 11.6135 173.437 15.5 172.932 15.5C172.695 15.5 172.5 16.2875 172.5 17.25C172.5 18.2125 172.275 19 172 19C171.725 19 171.5 19.4425 171.5 19.983C171.5 21.079 169.959 24.657 169.375 24.9165C169.169 25.0085 169 25.852 169 26.7915C169 27.731 168.775 28.5 168.5 28.5C168.225 28.5 168 29.0195 168 29.6545C168 30.2895 167.67 31.2455 167.266 31.7795C166.862 32.313 166.525 33.35 166.516 34.0835C166.507 34.8165 166.331 35.4915 166.125 35.5835C165.541 35.843 164 39.421 164 40.517C164 41.0575 163.775 41.5 163.5 41.5C163.225 41.5 163 41.953 163 42.507C163 43.516 162.883 43.825 161.335 46.9155C160.876 47.8315 160.5 49.1255 160.5 49.7905C160.5 50.4555 160.275 51 160 51C159.725 51 159.5 51.466 159.5 52.0355C159.5 52.6055 159.162 53.409 158.75 53.8215C158.338 54.234 158 55.118 158 55.7855C158 56.4535 157.775 57 157.5 57C157.225 57 157 57.549 157 58.2205C157 58.892 156.804 59.562 156.564 59.71C155.968 60.0785 155.461 62.817 155.817 63.7445C156.053 64.3575 157.187 64.5 161.839 64.5C167.539 64.5 169 64.099 169 62.5355C169 62.241 169.225 62 169.5 62C169.775 62 170 61.6365 170 61.192C170 60.075 171.665 55.2875 172.125 55.0835C172.331 54.9915 172.5 54.1965 172.5 53.316C172.5 52.0795 172.83 51.5205 173.952 50.858C175.205 50.1175 176.908 50 186.374 50C196.367 50 197.419 50.0815 198.173 50.9145C198.628 51.4175 199 52.205 199 52.6645C199 53.124 199.225 53.5 199.5 53.5C199.775 53.5 200.007 53.8935 200.016 54.375C200.035 55.3875 201.697 60.3635 202.176 60.843C202.354 61.021 202.5 61.595 202.5 62.119C202.5 64.16 203.594 64.5 210.156 64.5C215.894 64.5 216.404 64.424 216.637 63.532C216.776 62.9995 216.577 61.9615 216.195 61.225C215.813 60.4885 215.5 59.349 215.5 58.693C215.5 58.037 215.275 57.5 215 57.5C214.725 57.5 214.5 56.951 214.5 56.2795C214.5 55.608 214.301 54.9355 214.057 54.785C213.813 54.6345 213.465 53.721 213.284 52.7555C213.103 51.79 212.74 51 212.477 51C212.215 51 212 50.325 212 49.5C212 48.675 211.775 48 211.5 48C211.225 48 211 47.4805 211 46.8455C211 46.2105 210.67 45.2545 210.266 44.7205C209.862 44.187 209.525 43.244 209.516 42.625C209.507 42.006 209.275 41.5 209 41.5C208.725 41.5 208.5 40.9555 208.5 40.2905C208.5 39.0675 207.066 35.8905 206.375 35.5835C206.169 35.4915 206 34.648 206 33.7085C206 32.769 205.775 32 205.5 32C205.225 32 204.993 31.6065 204.984 31.125C204.975 30.6435 204.638 29.813 204.234 29.2795C203.83 28.7455 203.5 27.7895 203.5 27.1545C203.5 26.5195 203.275 26 203 26C202.725 26 202.5 25.2125 202.5 24.25C202.5 23.2875 202.285 22.5 202.023 22.5C201.76 22.5 201.397 21.7125 201.217 20.75C201.036 19.7875 200.689 19 200.445 19C200.2 19 200 18.4375 200 17.75C200 17.0625 199.775 16.5 199.5 16.5C199.225 16.5 198.992 15.9935 198.982 15.375C198.972 14.7565 198.643 13.6875 198.25 13C197.857 12.3125 197.528 11.2435 197.518 10.625C197.508 10.0065 197.275 9.5 197 9.5C196.725 9.5 196.5 8.809 196.5 7.9645C196.5 7.1195 196.162 6.091 195.75 5.6785C195.338 5.266 195 4.4945 195 3.9645C195 3.434 194.775 3 194.5 3C194.225 3 194 2.6465 194 2.2145C194 0.3495 192.783 0 186.286 0C182.429 0 180 0.193 180 0.5ZM220.125 0.747999C219.639 1.2995 219.5 8.331 219.5 32.2645C219.5 58.297 219.611 63.182 220.215 63.7855C221.284 64.855 232.5 64.822 232.5 63.75C232.5 63.3375 232.725 63 233 63C233.318 63 233.503 58.953 233.508 51.875C233.512 45.7255 233.727 40.4145 233.99 40C234.383 39.3795 235.993 39.25 243.316 39.25C249.953 39.25 252.219 39.4065 252.375 39.875C252.49 40.2185 253.032 40.5 253.58 40.5C254.782 40.5 257.5 43.096 257.5 44.2445C257.5 44.696 257.737 45.508 258.026 46.0485C258.638 47.1925 259.524 53.1725 259.851 58.375C259.977 60.369 260.262 62 260.486 62C260.709 62 261.033 62.5625 261.206 63.25C261.517 64.489 261.568 64.5 267.045 64.5C273.363 64.5 274.601 63.9675 273.566 61.696C273.255 61.0125 273 58.8885 273 56.9765C273 54.992 272.785 53.5 272.5 53.5C272.202 53.5 272 51.5835 272 48.75C272 46.1375 271.8 44 271.556 44C271.312 44 270.963 43.2125 270.783 42.25C270.602 41.2875 270.24 40.5 269.978 40.5C269.715 40.5 269.5 40.05 269.5 39.5C269.5 38.95 269.275 38.5 269 38.5C268.725 38.5 268.5 38.1625 268.5 37.75C268.5 37.3375 268.257 37 267.961 37C266.949 37 264.489 34.109 264.804 33.289C264.97 32.855 265.297 32.5 265.53 32.5C266.255 32.5 271 27.4915 271 26.726C271 26.327 271.225 26 271.5 26C271.775 26 272 25.2125 272 24.25C272 23.2875 272.225 22.5 272.5 22.5C272.798 22.5 273 20.5835 273 17.75C273 14.9165 272.798 13 272.5 13C272.225 13 272 12.4535 272 11.7855C272 11.118 271.662 10.234 271.25 9.8215C270.838 9.409 270.5 8.8305 270.5 8.5355C270.5 8.241 270.275 8 270 8C269.725 8 269.5 7.68 269.5 7.2885C269.5 6.365 266.635 3.5 265.711 3.5C265.32 3.5 265 3.2795 265 3.0095C265 2.74 264.438 2.378 263.75 2.2055C263.062 2.033 262.5 1.691 262.5 1.446C262.5 1.2005 261.6 1 260.5 1C259.4 1 258.5 0.775 258.5 0.5C258.5 0.175 251.887 0.0064991 239.625 0.0189991C223.965 0.0349991 220.643 0.158999 220.125 0.747999ZM281.125 0.747999C280.639 1.2995 280.5 8.331 280.5 32.2645C280.5 58.297 280.611 63.182 281.215 63.7855C282.281 64.852 327.719 64.852 328.785 63.7855C329.293 63.278 329.5 61.8335 329.5 58.7855C329.5 52.0685 330.749 52.5 311.303 52.5C296.995 52.5 295.071 52.408 294.803 51.709C294.408 50.6795 294.408 38.8205 294.803 37.791C295.07 37.0955 296.809 37 309.192 37C326.364 37 325.5 37.301 325.5 31.3215C325.5 28.7825 325.269 26.9695 324.9 26.6C324.461 26.1615 320.489 26 310.15 26C301.05 26 296 25.8215 296 25.5C296 25.225 295.662 25 295.25 25C294.178 25 294.145 13.7835 295.215 12.7145C295.803 12.126 298.662 12 311.428 12C324.853 12 327.034 11.895 327.715 11.2145C328.838 10.0905 328.87 1 327.75 1C327.338 1 327 0.775 327 0.5C327 0.174 319.137 0.0064991 304.375 0.0189991C285.476 0.0349991 281.647 0.154999 281.125 0.747999ZM374 0.5C374 0.775 373.662 1 373.25 1C372.833 1 372.5 1.4445 372.5 2C372.5 2.55 372.275 3 372 3C371.725 3 371.493 3.5065 371.484 4.125C371.476 4.7435 371.138 5.687 370.734 6.2205C370.331 6.7545 370 7.7105 370 8.3455C370 8.9805 369.775 9.5 369.5 9.5C369.225 9.5 369 10.0625 369 10.75C369 11.4375 368.8 12 368.556 12C368.312 12 367.963 12.7875 367.783 13.75C367.602 14.7125 367.24 15.5 366.978 15.5C366.715 15.5 366.5 16.0625 366.5 16.75C366.5 17.4375 366.275 18 366 18C365.725 18 365.493 18.6185 365.484 19.375C365.476 20.1315 365.138 21.187 364.734 21.7205C364.331 22.2545 364 23.2105 364 23.8455C364 24.4805 363.775 25 363.5 25C363.225 25 363 25.4435 363 25.9855C363 26.528 362.438 28.2435 361.75 29.798C361.062 31.3525 360.5 33.0465 360.5 33.562C360.5 34.078 360.275 34.5 360 34.5C359.725 34.5 359.5 34.9425 359.5 35.483C359.5 36.579 357.959 40.157 357.375 40.4165C357.169 40.5085 357 41.352 357 42.2915C357 43.2315 356.785 44 356.522 44C356.26 44 355.898 44.7875 355.717 45.75C355.537 46.7125 355.188 47.5 354.944 47.5C354.7 47.5 354.5 48.0625 354.5 48.75C354.5 49.4375 354.3 50 354.056 50C353.813 50 353.492 50.619 353.344 51.375C352.914 53.5685 351.79 56.5 351.378 56.5C351.17 56.5 351 57.175 351 58C351 58.825 350.804 59.5 350.565 59.5C350.023 59.5 349.456 62.8025 349.831 63.779C350.049 64.349 351.307 64.5 355.839 64.5C361.933 64.5 363 64.133 363 62.0355C363 61.466 363.225 61 363.5 61C363.775 61 364 60.4805 364 59.8455C364 59.2105 364.331 58.2545 364.734 57.7205C365.138 57.187 365.476 56.3565 365.484 55.875C365.493 55.3935 365.725 55 366 55C366.275 55 366.5 54.325 366.5 53.5C366.5 52.6665 366.945 51.5555 367.5 51C368.441 50.0595 369.167 50 379.75 50C390.333 50 391.059 50.0595 392 51C392.55 51.55 393 52.5625 393 53.25C393 53.9375 393.225 54.5 393.5 54.5C393.775 54.5 394.007 55.006 394.016 55.625C394.024 56.244 394.362 57.187 394.766 57.7205C395.169 58.2545 395.5 59.2105 395.5 59.8455C395.5 60.4805 395.725 61 396 61C396.275 61 396.5 61.466 396.5 62.0355C396.5 64.1515 397.55 64.5 403.931 64.5C409.455 64.5 409.957 64.422 410.244 63.519C410.415 62.9795 410.318 62.094 410.027 61.552C409.737 61.0095 409.5 60.101 409.5 59.533C409.5 58.965 409.275 58.5 409 58.5C408.725 58.5 408.5 57.7315 408.5 56.7915C408.5 55.852 408.331 55.0085 408.125 54.9165C407.541 54.657 406 51.079 406 49.983C406 49.4425 405.775 49 405.5 49C405.225 49 404.992 48.494 404.983 47.875C404.973 47.256 404.643 46.1875 404.25 45.5C403.857 44.8125 403.527 43.744 403.517 43.125C403.508 42.506 403.275 42 403 42C402.725 42 402.5 41.325 402.5 40.5C402.5 39.675 402.3 39 402.056 39C401.812 39 401.463 38.2125 401.283 37.25C401.102 36.2875 400.74 35.5 400.478 35.5C400.215 35.5 400 34.825 400 34C400 33.175 399.775 32.5 399.5 32.5C399.225 32.5 398.993 31.9935 398.984 31.375C398.976 30.7565 398.638 29.813 398.234 29.2795C397.831 28.7455 397.5 27.7895 397.5 27.1545C397.5 26.5195 397.275 26 397 26C396.725 26 396.5 25.325 396.5 24.5C396.5 23.675 396.312 23 396.083 23C395.854 23 395.236 21.65 394.709 20C394.182 18.35 393.581 17 393.375 17C393.169 17 393 16.4215 393 15.7145C393 15.007 392.662 14.091 392.25 13.6785C391.838 13.266 391.5 12.382 391.5 11.7145C391.5 11.0465 391.275 10.5 391 10.5C390.725 10.5 390.5 9.7125 390.5 8.75C390.5 7.7875 390.285 7 390.022 7C389.76 7 389.398 6.2125 389.217 5.25C389.037 4.2875 388.688 3.5 388.444 3.5C388.2 3.5 388 3.034 388 2.4645C388 0.33 386.967 0 380.285 0C376.428 0 374 0.193 374 0.5ZM253 11C253 11.275 253.434 11.5 253.965 11.5C254.495 11.5 255.266 11.8375 255.678 12.25C256.091 12.6625 256.67 13 256.965 13C257.259 13 257.5 13.431 257.5 13.9585C257.5 14.4855 257.782 15.0105 258.125 15.125C258.565 15.272 258.75 16.711 258.75 20C258.75 23.289 258.565 24.728 258.125 24.875C257.782 24.9895 257.5 25.3 257.5 25.5645C257.5 26.768 255.055 28.304 252.22 28.882C248.321 29.677 237.341 29.6885 235.16 28.8995L233.5 28.299V20.0795C233.5 12.838 233.604 11.781 234.375 11.196C235.457 10.374 253 10.1895 253 11ZM187.286 18.7145C187.679 19.107 188 20.023 188 20.75C188 21.477 188.338 22.409 188.75 22.8215C189.162 23.234 189.5 24.118 189.5 24.7855C189.5 25.4535 189.725 26 190 26C190.275 26 190.5 26.7875 190.5 27.75C190.5 28.7125 190.725 29.5 191 29.5C191.275 29.5 191.507 30.0065 191.516 30.625C191.525 31.2435 191.862 32.187 192.266 32.7205C192.67 33.2545 193 34.2105 193 34.8455C193 35.4805 193.225 36 193.5 36C193.775 36 194 36.6705 194 37.4905C194 38.6635 193.734 39.048 192.75 39.2945C192.062 39.467 191.5 39.809 191.5 40.054C191.5 40.2995 189.025 40.5 186 40.5C182.667 40.5 180.5 40.303 180.5 40C180.5 39.725 180.05 39.5 179.5 39.5C178.633 39.5 178.5 39.1665 178.5 37C178.5 35.625 178.7 34.5 178.945 34.5C179.189 34.5 179.536 33.7125 179.717 32.75C179.897 31.7875 180.26 31 180.523 31C180.785 31 181 30.4375 181 29.75C181 29.0625 181.225 28.5 181.5 28.5C181.775 28.5 182 27.7125 182 26.75C182 25.7875 182.215 25 182.477 25C182.74 25 183.103 24.2125 183.283 23.25C183.464 22.2875 183.811 21.5 184.055 21.5C184.3 21.5 184.5 21.0405 184.5 20.479C184.5 19.4305 185.43 18.053 186.161 18.019C186.387 18.0085 186.893 18.3215 187.286 18.7145ZM381 19C381 19.55 381.225 20 381.5 20C381.775 20 382.007 20.5065 382.016 21.125C382.024 21.7435 382.362 22.687 382.766 23.2205C383.169 23.7545 383.5 24.598 383.5 25.0955C383.5 25.593 383.725 26 384 26C384.275 26 384.5 26.8035 384.5 27.7855C384.5 28.768 384.838 29.909 385.25 30.3215C385.662 30.734 386 31.618 386 32.2855C386 32.9535 386.225 33.5 386.5 33.5C386.775 33.5 387 34.2875 387 35.25C387 36.2125 387.225 37 387.5 37C388.618 37 387.968 38.989 386.75 39.2945C386.062 39.467 385.5 39.809 385.5 40.054C385.5 40.2995 383.025 40.5 380 40.5C376.667 40.5 374.5 40.303 374.5 40C374.5 39.725 374.05 39.5 373.5 39.5C372.633 39.5 372.5 39.1665 372.5 37C372.5 35.625 372.725 34.5 373 34.5C373.275 34.5 373.508 33.994 373.517 33.375C373.527 32.7565 373.857 31.6875 374.25 31C374.643 30.3125 374.973 29.1315 374.983 28.375C374.992 27.6185 375.225 27 375.5 27C375.775 27 376.007 26.3815 376.016 25.625C376.024 24.8685 376.362 23.813 376.766 23.2795C377.169 22.7455 377.5 21.7895 377.5 21.1545C377.5 20.5195 377.725 20 378 20C378.275 20 378.5 19.55 378.5 19C378.5 18.2665 378.834 18 379.75 18C380.666 18 381 18.2665 381 19ZM308 77C308 77.275 307.156 77.51 306.125 77.522C305.094 77.534 303.35 77.868 302.25 78.2645C301.15 78.6605 299.632 78.9885 298.875 78.9925C298.118 78.9965 297.5 79.225 297.5 79.5C297.5 79.775 296.825 80 296 80C295 80 294.5 80.25 294.5 80.75C294.5 81.3165 295.111 81.5 297 81.5C298.375 81.5 299.5 81.725 299.5 82C299.5 82.278 300.834 82.5 302.5 82.5C304.166 82.5 305.5 82.722 305.5 83C305.5 83.275 306.245 83.5 307.155 83.5C308.065 83.5 309.246 83.8305 309.78 84.234C310.313 84.638 311.707 84.9755 312.875 84.984C314.043 84.993 315 85.225 315 85.5C315 85.778 316.334 86 318 86C319.666 86 321 85.778 321 85.5C321 85.225 321.324 85 321.72 85C322.836 85 326.942 80.6905 327.055 79.4005C327.323 76.3335 327.871 76.5 317.5 76.5C311.5 76.5 308 76.684 308 77ZM260 78.5C260 78.775 259.759 79 259.465 79C258.582 79 257.5 80.3575 257.5 81.4645C257.5 82.034 257.275 82.5 257 82.5C256.725 82.5 256.5 82.7835 256.5 83.13C256.5 83.4765 255.938 84.367 255.25 85.1085C254.562 85.8495 254 86.916 254 87.478C254 88.04 253.743 88.5 253.43 88.5C252.734 88.5 251.537 90.0055 251.516 90.9085C251.507 91.271 250.712 92.31 249.75 93.2175C248.788 94.1255 248 95.0205 248 95.207C248 95.393 247.493 96.091 246.875 96.7575C246.257 97.424 245.132 98.637 244.375 99.453C243.618 100.269 243 101.063 243 101.218C243 101.895 244.342 101.413 245 100.5C245.396 99.95 245.998 99.5 246.337 99.5C246.677 99.5 247.517 98.9375 248.204 98.25C248.892 97.5625 249.679 97 249.954 97C250.229 97 251.017 96.4375 251.704 95.75C252.392 95.0625 253.19 94.5 253.478 94.5C253.765 94.5 254 94.29 254 94.0335C254 93.777 254.394 93.442 254.875 93.289C255.356 93.136 256.65 92.2255 257.75 91.265C258.85 90.305 259.919 89.515 260.125 89.5095C260.661 89.496 264.089 85.9825 265.125 84.3845C266.024 82.998 266.268 80.6745 265.617 79.7C264.661 78.2685 260 77.2725 260 78.5ZM56.625 81.3315C55.1815 81.453 54 81.7655 54 82.026C54 82.287 52.875 82.5 51.5 82.5C50.125 82.5 49 82.725 49 83C49 83.275 48.318 83.5 47.4845 83.5C46.5985 83.5 45.849 83.8115 45.681 84.25C45.503 84.713 44.7435 85 43.6965 85C42.7635 85 42 85.199 42 85.4415C42 85.6845 41.494 86.046 40.875 86.2445C39.82 86.5835 39.811 86.622 40.731 86.86C41.2705 87 41.7955 86.8635 41.8975 86.557C42.11 85.9195 59.079 85.7455 59.7075 86.3745C60.0985 86.7655 65.2215 87.8565 68.875 88.327C70.044 88.4775 71 88.7575 71 88.9485C71 89.14 73.025 89.7255 75.5 90.25C77.975 90.7745 80 91.3825 80 91.6015C80 91.821 80.9 92 82 92C83.1 92 84 92.1995 84 92.443C84 92.687 85.0125 93.0385 86.25 93.224C87.4875 93.4095 88.5 93.7725 88.5 94.0305C88.5 94.289 89.4 94.5 90.5 94.5C91.6 94.5 92.5 94.7015 92.5 94.9475C92.5 95.1935 93.344 95.508 94.375 95.6465C95.4065 95.7845 97.15 96.1405 98.25 96.437C101.214 97.236 105.288 97.14 106.178 96.25C106.591 95.8375 107.073 95.5 107.25 95.5C107.667 95.5 109 94.167 109 93.75C109 93.573 109.35 93.079 109.777 92.652C110.878 91.551 110.502 89.786 109.125 89.59C108.506 89.5025 108 89.221 108 88.965C108 88.7095 107.1 88.5 106 88.5C104.9 88.5 104 88.3005 104 88.057C104 87.813 102.993 87.4625 101.762 87.278C100.531 87.0935 99.3925 86.73 99.232 86.471C99.072 86.212 97.942 86 96.7205 86C95.499 86 94.5 85.775 94.5 85.5C94.5 85.225 93.5435 84.993 92.375 84.984C91.2065 84.9755 89.813 84.638 89.2795 84.234C88.7455 83.8305 87.3395 83.5 86.1545 83.5C84.9695 83.5 84 83.275 84 83C84 82.723 82.6805 82.5 81.0415 82.5C79.4145 82.5 78.006 82.2675 77.911 81.983C77.728 81.434 61.361 80.933 56.625 81.3315ZM286.319 84.25C286.161 84.6625 285.575 85 285.016 85C284.457 85 284 85.225 284 85.5C284 85.775 283.698 86 283.328 86C282.958 86 282.002 86.562 281.203 87.2495C280.404 87.9365 279.356 88.499 278.875 88.4995C278.394 88.4995 278 88.6895 278 88.9215C278 89.153 277.212 89.7665 276.25 90.285C275.288 90.8035 274.5 91.401 274.5 91.6135C274.5 91.826 274.259 92 273.965 92C273.272 92 272 93.272 272 93.9645C272 94.259 271.658 94.5 271.241 94.5C270.824 94.5 269.717 95.2875 268.783 96.25C267.848 97.2125 266.84 98 266.542 98C266.244 98 266 98.4805 266 99.0675C266 99.655 265.438 100.657 264.75 101.294C264.062 101.931 263.5 102.8 263.5 103.226C263.5 103.652 263.31 104 263.078 104C262.847 104 262.233 104.788 261.715 105.75C261.196 106.712 260.599 107.5 260.387 107.5C260.174 107.5 260 107.741 260 108.036C260 108.331 259.719 108.885 259.375 109.268C257.779 111.048 257.5 111.526 257.5 112.479C257.5 113.041 257.275 113.5 257 113.5C256.725 113.5 256.5 113.741 256.5 114.036C256.5 114.331 256.219 114.885 255.875 115.268C254.391 116.923 254 117.489 254 117.979C254 118.266 253.799 118.5 253.554 118.5C253.309 118.5 252.967 119.062 252.794 119.75C252.622 120.438 252.26 121 251.991 121C251.721 121 251.5 121.45 251.5 122C251.5 122.55 251.299 123 251.054 123C250.809 123 250.48 123.51 250.323 124.135C250.167 124.759 249.58 125.762 249.02 126.364C248.459 126.966 248 127.918 248 128.479C248 129.041 247.831 129.502 247.625 129.503C247.122 129.508 245.5 132.398 245.5 133.29C245.5 133.68 245.275 134 245 134C244.725 134 244.5 134.32 244.5 134.71C244.5 135.602 242.878 138.492 242.375 138.497C242.169 138.498 242 139.062 242 139.75C242 140.438 241.775 141 241.5 141C241.225 141 241 141.466 241 142.036C241 142.606 240.662 143.409 240.25 143.822C239.74 144.332 239.5 145.593 239.5 147.763C239.5 150.501 239.678 151.132 240.75 152.204C241.438 152.892 242 153.594 242 153.763C242 153.933 242.322 154.393 242.715 154.786C243.503 155.574 251.5 155.841 251.5 155.079C251.5 154.847 252.288 154.233 253.25 153.715C254.212 153.196 255 152.599 255 152.387C255 152.174 255.338 152 255.75 152C256.162 152 256.5 151.775 256.5 151.5C256.5 151.225 256.162 151 255.75 151C255.338 151 255 151.225 255 151.5C255 151.775 254.55 152 254 152C253.45 152 253 151.775 253 151.5C253 151.225 252.662 151 252.25 151C251.838 151 251.5 150.662 251.5 150.25C251.5 149.838 251.275 149.5 251 149.5C250.725 149.5 250.5 148.712 250.5 147.75C250.5 146.788 250.725 146 251 146C251.275 146 251.5 145.343 251.5 144.54C251.5 143.119 252.873 139.918 253.625 139.583C253.831 139.491 254 138.985 254 138.458C254 137.931 254.225 137.5 254.5 137.5C254.775 137.5 255 137.18 255 136.79C255 135.956 256.581 132.825 257.125 132.583C257.331 132.491 257.5 131.985 257.5 131.458C257.5 130.931 257.701 130.5 257.946 130.5C258.191 130.5 258.533 129.938 258.706 129.25C258.878 128.562 259.24 128 259.509 128C259.779 128 260 127.662 260 127.25C260 126.838 260.225 126.5 260.5 126.5C260.775 126.5 261 126.078 261 125.561C261 125.045 261.338 124.343 261.75 124C262.162 123.657 262.5 123.067 262.5 122.689C262.5 122.31 262.725 122 263 122C263.275 122 263.5 121.759 263.5 121.464C263.5 121.169 263.838 120.591 264.25 120.178C264.662 119.766 265 118.994 265 118.464C265 117.934 265.225 117.5 265.5 117.5C265.775 117.5 266 117.162 266 116.75C266 116.338 266.225 116 266.5 116C266.775 116 267 115.543 267 114.984C267 114.425 267.338 113.839 267.75 113.681C268.162 113.522 268.5 112.967 268.5 112.447C268.5 111.926 268.725 111.5 269 111.5C269.275 111.5 269.5 111.162 269.5 110.75C269.5 110.338 269.701 110 269.946 110C270.191 110 270.533 109.438 270.706 108.75C270.878 108.062 271.24 107.5 271.509 107.5C271.779 107.5 272 107.162 272 106.75C272 106.338 272.225 106 272.5 106C272.775 106 273 105.646 273 105.214C273 104.782 273.282 104.115 273.625 103.732C275.109 102.077 275.5 101.511 275.5 101.021C275.5 100.734 275.701 100.5 275.946 100.5C276.191 100.5 276.533 99.9375 276.706 99.25C276.878 98.5625 277.24 98 277.509 98C277.779 98 278 97.55 278 97C278 96.45 278.225 96 278.5 96C278.775 96 279 95.759 279 95.4645C279 95.1695 279.282 94.615 279.625 94.2315C281.109 92.577 281.5 92.0115 281.5 91.521C281.5 91.2345 281.725 91 282 91C282.275 91 282.5 90.6625 282.5 90.25C282.5 89.8375 282.741 89.5 283.035 89.5C283.669 89.5 285 88.2505 285 87.6555C285 86.994 287.479 84.501 288.145 84.4925C288.521 84.4875 288.467 84.3015 288 84C286.967 83.3325 286.654 83.379 286.319 84.25ZM359 90.0955C358.038 90.367 356.406 90.705 355.375 90.847C354.344 90.989 353.5 91.3065 353.5 91.5525C353.5 91.7985 353.057 92 352.517 92C351.421 92 347.843 93.541 347.583 94.125C347.491 94.331 347.201 94.5 346.937 94.5C346.433 94.5 345.726 95.026 343.749 96.875C343.087 97.494 342.31 98 342.022 98C341.735 98 341.5 98.241 341.5 98.5355C341.5 98.8305 341.219 99.385 340.875 99.7685C339.529 101.269 339 101.97 339 102.251C339 102.413 338.438 103.108 337.75 103.796C337.062 104.483 336.5 105.373 336.5 105.773C336.5 106.173 336.275 106.5 336 106.5C335.725 106.5 335.5 107.062 335.5 107.75C335.5 108.438 335.301 109 335.057 109C334.813 109 334.462 110.013 334.276 111.25C334.091 112.487 333.728 113.5 333.47 113.5C333.211 113.5 333 115.188 333 117.25C333 119.417 332.789 121 332.5 121C332.225 121 332 122.237 332 123.75C332 125.263 332.225 126.5 332.5 126.5C332.789 126.5 333 128.083 333 130.25C333 132.312 333.215 134 333.478 134C333.74 134 334.102 134.788 334.283 135.75C334.463 136.712 334.812 137.5 335.056 137.5C335.3 137.5 335.5 138.062 335.5 138.75C335.5 139.438 335.725 140 336 140C336.275 140 336.5 140.32 336.5 140.71C336.5 141.602 338.122 144.492 338.625 144.497C338.831 144.498 339 144.737 339 145.028C339 145.716 345.284 152 345.972 152C346.262 152 346.5 152.225 346.5 152.5C346.5 152.775 346.82 153 347.21 153C348.102 153 350.993 154.622 350.997 155.125C350.999 155.331 351.993 155.5 353.208 155.5C354.53 155.5 355.501 155.751 355.625 156.125C355.924 157.021 372.578 157.017 372.876 156.121C372.99 155.78 373.852 155.5 374.792 155.5C375.731 155.5 376.5 155.275 376.5 155C376.5 154.725 376.907 154.5 377.405 154.5C377.902 154.5 378.746 154.17 379.28 153.766C379.813 153.362 380.644 153.025 381.125 153.016C381.606 153.007 382 152.813 382 152.585C382 152.356 382.562 151.868 383.25 151.5C383.938 151.132 384.5 150.531 384.5 150.165C384.5 149.799 384.935 149.5 385.466 149.5C385.998 149.5 386.575 149.05 386.75 148.5C386.925 147.95 387.277 147.5 387.534 147.5C387.79 147.5 388 147.162 388 146.75C388 146.338 388.338 146 388.75 146C389.162 146 389.5 145.662 389.5 145.25C389.5 144.838 389.725 144.5 390 144.5C390.275 144.5 390.5 144.05 390.5 143.5C390.5 142.95 390.701 142.5 390.946 142.5C391.191 142.5 391.533 141.938 391.706 141.25C391.878 140.562 392.24 140 392.509 140C392.779 140 393 139.438 393 138.75C393 138.062 393.225 137.5 393.5 137.5C393.775 137.5 394 136.853 394 136.061C394 135.27 394.338 133.814 394.75 132.827C395.3 131.51 395.5 129.092 395.5 123.75C395.5 118.408 395.3 115.99 394.75 114.673C394.338 113.686 394 112.23 394 111.439C394 110.647 393.775 110 393.5 110C393.225 110 393 109.438 393 108.75C393 108.062 392.779 107.5 392.509 107.5C392.24 107.5 391.878 106.938 391.706 106.25C391.533 105.562 391.191 105 390.946 105C390.701 105 390.5 104.55 390.5 104C390.5 103.45 390.275 103 390 103C389.725 103 389.5 102.673 389.5 102.273C389.5 101.873 388.938 100.983 388.25 100.296C387.562 99.608 387 98.81 387 98.5225C387 98.235 386.765 98 386.478 98C386.19 98 385.392 97.4375 384.704 96.75C384.017 96.0625 383.128 95.5 382.728 95.5C382.328 95.5 382 95.311 382 95.0795C382 94.461 377.283 92 376.099 92C375.54 92 375.009 91.8205 374.917 91.6015C374.632 90.919 366.879 89.4975 363.738 89.551C362.095 89.5795 359.962 89.8245 359 90.0955ZM551 90.235C550.038 90.614 548.632 90.941 547.875 90.962C547.118 90.983 546.5 91.225 546.5 91.5C546.5 91.775 545.938 92 545.25 92C544.562 92 544 92.2005 544 92.446C544 92.691 543.438 93.033 542.75 93.2055C542.062 93.378 541.5 93.74 541.5 94.0095C541.5 94.2795 541.051 94.5 540.502 94.5C539.505 94.5 533 100.586 533 101.518C533 101.783 532.775 102 532.5 102C532.225 102 532 102.45 532 103C532 103.555 531.667 104 531.25 104C530.783 104 530.5 104.472 530.5 105.25C530.5 105.938 530.275 106.5 530 106.5C529.725 106.5 529.5 107.062 529.5 107.75C529.5 108.438 529.3 109 529.055 109C528.811 109 528.464 109.788 528.283 110.75C528.103 111.712 527.74 112.5 527.477 112.5C527.215 112.5 527 113.85 527 115.5C527 117.166 526.778 118.5 526.5 118.5C526.202 118.5 526 120.417 526 123.25C526 126.083 526.202 128 526.5 128C526.778 128 527 129.334 527 131C527 132.666 527.222 134 527.5 134C527.775 134 528.001 134.506 528.003 135.125C528.005 135.744 528.342 136.895 528.753 137.682C529.164 138.47 529.5 139.539 529.5 140.057C529.5 140.576 529.725 141 530 141C530.275 141 530.5 141.241 530.5 141.536C530.5 141.831 530.782 142.385 531.125 142.768C532.483 144.282 533 144.971 533 145.264C533 145.433 533.282 145.885 533.625 146.268C535.109 147.923 535.5 148.489 535.5 148.979C535.5 149.266 535.848 149.5 536.274 149.5C536.699 149.5 537.569 150.062 538.206 150.75C538.843 151.438 539.62 152 539.932 152C540.244 152 540.5 152.225 540.5 152.5C540.5 152.775 540.95 153 541.5 153C542.05 153 542.5 153.2 542.5 153.446C542.5 153.691 543.062 154.033 543.75 154.206C544.438 154.378 545 154.74 545 155.01C545 155.28 546.106 155.5 547.458 155.5C548.898 155.5 549.998 155.743 550.112 156.088C550.4 156.95 563.588 156.985 563.875 156.125C563.99 155.782 564.852 155.5 565.792 155.5C566.732 155.5 567.5 155.3 567.5 155.054C567.5 154.809 568.062 154.467 568.75 154.294C569.438 154.122 570 153.76 570 153.49C570 153.22 570.235 153 570.523 153C570.81 153 571.62 152.425 572.323 151.721C573.94 150.105 576.17 150.189 576.41 151.875C576.497 152.494 576.779 153 577.035 153C577.29 153 577.5 153.562 577.5 154.25C577.5 155.477 577.571 155.5 581.435 155.5H585.369L585.679 153.625C585.85 152.594 585.992 145.057 585.995 136.875C586 123.983 585.9 122 585.25 122C584.838 122 584.5 121.775 584.5 121.5C584.5 121.181 580.238 121 572.714 121C563.166 121 560.793 121.135 560.214 121.714C559.72 122.208 559.5 123.605 559.5 126.25C559.5 128.895 559.72 130.292 560.214 130.786C560.751 131.323 562.366 131.5 566.714 131.5H572.5V134.5C572.5 136.166 572.278 137.5 572 137.5C571.725 137.5 571.5 137.827 571.5 138.227C571.5 138.627 570.938 139.517 570.25 140.204C569.562 140.892 569 141.69 569 141.977C569 142.265 568.662 142.5 568.25 142.5C567.838 142.5 567.5 142.725 567.5 143C567.5 143.275 567.069 143.5 566.542 143.5C566.015 143.5 565.497 143.759 565.391 144.076C565.286 144.392 563.917 144.757 562.35 144.887C560.782 145.017 559.5 145.321 559.5 145.562C559.5 146.17 556.13 146.114 555.75 145.5C555.58 145.225 554.683 145 553.756 145C552.829 145 551.734 144.662 551.321 144.25C550.909 143.838 550.209 143.5 549.765 143.5C549.01 143.5 548.51 143.188 546.768 141.625C546.385 141.282 545.831 141 545.536 141C545.241 141 545 140.574 545 140.053C545 139.533 544.683 138.985 544.294 138.836C543.906 138.687 543.298 137.763 542.943 136.783C542.589 135.802 542.119 135 541.899 135C541.68 135 541.5 134.231 541.5 133.292C541.5 132.352 541.219 131.49 540.875 131.375C540.412 131.221 540.25 129.239 540.25 123.75C540.25 118.261 540.412 116.279 540.875 116.125C541.219 116.01 541.5 115.148 541.5 114.208C541.5 113.269 541.725 112.5 542 112.5C542.275 112.5 542.5 111.938 542.5 111.25C542.5 110.562 542.71 110 542.966 110C543.223 110 543.587 109.515 543.775 108.921C544.173 107.669 547.666 104 548.461 104C548.757 104 549 103.775 549 103.5C549 103.225 549.434 103 549.964 103C550.494 103 551.266 102.662 551.679 102.25C552.251 101.678 553.682 101.5 557.714 101.5C560.621 101.5 563 101.7 563 101.946C563 102.191 563.562 102.533 564.25 102.706C564.938 102.878 565.5 103.24 565.5 103.51C565.5 103.78 565.838 104 566.25 104C567.219 104 569 105.781 569 106.75C569 107.162 569.219 107.5 569.487 107.5C569.755 107.5 570.352 108.231 570.814 109.125C571.276 110.019 572.013 111.024 572.452 111.359C573.583 112.222 582.474 112.178 583.625 111.304C584.557 110.597 584.863 107.5 584 107.5C583.725 107.5 583.5 107.057 583.5 106.517C583.5 105.133 581.959 101.963 580.625 100.602C580.007 99.971 579.5 99.213 579.5 98.918C579.5 98.2175 576.433 95.5185 575.625 95.508C575.282 95.5035 575 95.275 575 95C575 94.725 574.759 94.5 574.464 94.5C574.169 94.5 573.615 94.219 573.232 93.875C571.452 92.279 570.974 92 570.021 92C569.459 92 569 91.8125 569 91.5835C569 90.122 554.118 89.007 551 90.235ZM32.625 90.61C32.006 90.9085 31.5 91.3435 31.5 91.5765C31.5 91.8095 31.1625 92 30.75 92C30.3375 92 30 92.21 30 92.4665C30 92.723 29.526 93.083 28.947 93.267C27.581 93.7005 16.1985 105.087 15.7645 106.454C15.582 107.029 15.223 107.5 14.9665 107.5C14.71 107.5 14.5 107.741 14.5 108.036C14.5 108.331 14.219 108.885 13.875 109.268C12.279 111.048 12 111.526 12 112.479C12 113.041 11.775 113.5 11.5 113.5C11.225 113.5 11 114.288 11 115.25C11 116.212 11.225 117 11.5 117C11.775 117 12 117.338 12 117.75C12 118.217 12.472 118.5 13.25 118.5C13.9375 118.5 14.5 118.725 14.5 119C14.5 119.275 14.95 119.5 15.5 119.5C16.05 119.5 16.5 119.275 16.5 119C16.5 118.725 16.942 118.5 17.483 118.5C19.2325 118.5 23 113.753 23 111.549C23 111.247 23.225 111 23.5 111C23.775 111 24 110.212 24 109.25C24 108.288 24.225 107.5 24.5 107.5C24.775 107.5 25 106.954 25 106.286C25 105.618 25.3375 104.734 25.75 104.322C26.1625 103.909 26.5 103.106 26.5 102.536C26.5 101.966 26.725 101.5 27 101.5C27.275 101.5 27.5 101.034 27.5 100.464C27.5 99.8945 27.7815 99.115 28.125 98.7315C29.687 96.99 30 96.49 30 95.7375C30 95.295 30.7875 94.19 31.75 93.2825C32.7125 92.3745 33.5 91.396 33.5 91.1075C33.5 90.8195 33.7815 90.47 34.125 90.331C34.469 90.1925 34.525 90.0765 34.25 90.0735C33.975 90.07 33.244 90.312 32.625 90.61ZM733.625 90.6395C731.906 90.9145 730.5 91.333 730.5 91.57C730.5 91.8065 729.933 92 729.24 92C728.547 92 727.089 92.5625 726 93.25C724.911 93.9375 723.76 94.5 723.444 94.5C723.127 94.5 722.126 95.2875 721.218 96.25C720.31 97.2125 719.423 98 719.248 98C718.784 98 717.5 99.356 717.5 99.8455C717.5 100.075 716.938 100.685 716.25 101.202C715.562 101.718 715 102.559 715 103.07C715 103.582 714.81 104 714.578 104C714.347 104 713.734 104.788 713.215 105.75C712.697 106.712 712.099 107.5 711.886 107.5C711.674 107.5 711.5 108.269 711.5 109.208C711.5 110.148 711.331 110.991 711.125 111.083C710.918 111.175 710.356 112.75 709.875 114.582C708.748 118.876 708.675 128.77 709.745 132.296C710.154 133.646 710.492 135.369 710.495 136.125C710.498 136.881 710.725 137.5 711 137.5C711.275 137.5 711.5 138.062 711.5 138.75C711.5 139.438 711.72 140 711.99 140C712.26 140 712.622 140.562 712.794 141.25C712.967 141.938 713.309 142.5 713.554 142.5C713.8 142.5 714 142.95 714 143.5C714 144.05 714.225 144.5 714.5 144.5C714.775 144.5 715 144.838 715 145.25C715 145.662 715.241 146 715.536 146C716.119 146 717.5 147.231 717.5 147.75C717.5 148.269 718.881 149.5 719.464 149.5C719.759 149.5 720 149.741 720 150.036C720 150.728 721.272 152 721.964 152C722.259 152 722.5 152.225 722.5 152.5C722.5 152.775 722.819 153 723.209 153C724.044 153 727.175 154.581 727.417 155.125C727.509 155.331 728.334 155.5 729.25 155.5C730.166 155.5 731.011 155.781 731.125 156.124C731.425 157.023 748.575 157.024 748.875 156.125C748.99 155.782 749.852 155.5 750.792 155.5C751.732 155.5 752.5 155.275 752.5 155C752.5 154.725 752.934 154.5 753.464 154.5C753.994 154.5 754.766 154.162 755.179 153.75C755.591 153.338 756.169 153 756.464 153C756.759 153 757 152.775 757 152.5C757 152.225 757.289 152 757.643 152C758.578 152 763 147.686 763 146.774C763 146.349 763.338 146 763.75 146C764.162 146 764.5 145.662 764.5 145.25C764.5 144.838 764.725 144.5 765 144.5C765.275 144.5 765.5 144.05 765.5 143.5C765.5 142.95 765.725 142.5 766 142.5C766.275 142.5 766.5 141.938 766.5 141.25C766.5 140.562 766.704 140 766.953 140C767.203 140 767.561 138.875 767.75 137.5C767.939 136.125 768.297 135 768.547 135C769.262 135 769.075 133.003 768.286 132.214C767.75 131.678 766.143 131.5 761.854 131.5H756.136L755.318 133.641C754.868 134.819 754.5 136.169 754.5 136.641C754.5 137.114 754.275 137.5 754 137.5C753.725 137.5 753.5 137.918 753.5 138.43C753.5 138.941 752.938 139.782 752.25 140.298C751.562 140.815 751 141.425 751 141.654C751 142.596 748.91 143.878 745 145.333C742.934 146.102 736.5 146.229 736.5 145.5C736.5 145.225 735.954 145 735.286 145C734.618 145 733.734 144.662 733.321 144.25C732.909 143.838 732.209 143.5 731.766 143.5C730.866 143.5 727 139.881 727 139.039C727 138.743 726.775 138.5 726.5 138.5C726.225 138.5 726 138.146 726 137.714C726 137.282 725.662 136.591 725.25 136.178C724.838 135.766 724.5 134.994 724.5 134.464C724.5 133.934 724.275 133.5 724 133.5C723.725 133.5 723.5 132.263 723.5 130.75C723.5 129.237 723.275 128 723 128C722.715 128 722.5 126.5 722.5 124.5C722.5 122.5 722.715 121 723 121C723.282 121 723.5 119.584 723.5 117.75C723.5 115.916 723.718 114.5 724 114.5C724.275 114.5 724.5 114.057 724.5 113.517C724.5 112.309 726.033 109 726.593 109C726.817 109 727 108.757 727 108.461C727 107.797 730.779 104 731.439 104C731.702 104 731.991 103.831 732.083 103.625C732.175 103.419 733.405 102.856 734.817 102.375C737.602 101.425 745 101.146 745 101.99C745 102.26 745.562 102.622 746.25 102.794C746.938 102.967 747.5 103.309 747.5 103.554C747.5 103.8 747.966 104 748.536 104C749.643 104 751 105.082 751 105.964C751 106.259 751.241 106.5 751.536 106.5C752.418 106.5 753.5 107.857 753.5 108.964C753.5 109.534 753.671 110 753.881 110C754.091 110 754.485 110.506 754.756 111.125C755.23 112.206 755.498 112.25 761.5 112.25H767.75L767.7 110.025C767.672 108.801 767.391 107.714 767.075 107.608C766.759 107.503 766.5 106.648 766.5 105.708C766.5 104.769 766.323 104 766.108 104C765.892 104 765.289 103.269 764.768 102.375C764.247 101.481 763.412 100.386 762.911 99.9415C762.41 99.4965 762 98.878 762 98.5665C762 98.255 761.759 98 761.464 98C760.772 98 759.5 96.728 759.5 96.0355C759.5 95.741 759.162 95.5 758.75 95.5C758.338 95.5 758 95.275 758 95C758 94.725 757.55 94.5 757 94.5C756.45 94.5 756 94.2995 756 94.054C756 93.809 755.438 93.467 754.75 93.2945C754.062 93.122 753.5 92.76 753.5 92.4905C753.5 92.2205 752.938 92 752.25 92C751.562 92 751 91.8155 751 91.59C751 91.05 742.874 89.981 739.443 90.0695C737.962 90.108 735.344 90.3645 733.625 90.6395ZM868.125 90.593C865.856 90.872 864 91.3025 864 91.55C864 91.7975 863.445 92 862.767 92C861.365 92 858 93.477 858 94.0925C858 94.3165 857.727 94.5 857.394 94.5C856.601 94.5 851.5 99.9875 851.5 100.841C851.5 101.204 851.275 101.5 851 101.5C850.725 101.5 850.5 102.043 850.5 102.708C850.5 103.373 850.233 104.006 849.906 104.115C849.049 104.401 849.021 114.591 849.877 114.876C850.22 114.99 850.5 115.53 850.5 116.077C850.5 116.624 850.782 117.385 851.125 117.768C852.483 119.282 853 119.971 853 120.264C853 120.772 854.39 122 854.964 122C855.259 122 855.501 122.169 855.503 122.375C855.507 122.878 858.399 124.5 859.291 124.5C859.681 124.5 860 124.725 860 125C860 125.275 860.363 125.5 860.808 125.5C861.925 125.5 866.713 127.165 866.917 127.625C867.009 127.831 868.19 128 869.542 128C870.894 128 872 128.199 872 128.443C872 128.687 873.008 129.038 874.239 129.222C875.47 129.407 876.608 129.77 876.768 130.029C876.928 130.288 877.608 130.5 878.279 130.5C878.951 130.5 879.5 130.725 879.5 131C879.5 131.275 880.185 131.5 881.023 131.5C881.981 131.5 883.009 131.964 883.795 132.75C884.483 133.438 885.256 134 885.513 134C885.771 134 886.122 134.562 886.294 135.25C886.467 135.938 886.809 136.5 887.054 136.5C887.3 136.5 887.5 137.513 887.5 138.75C887.5 139.987 887.275 141 887 141C886.725 141 886.5 141.562 886.5 142.25C886.5 143.028 886.217 143.5 885.75 143.5C885.338 143.5 884.999 143.669 884.997 143.875C884.991 144.568 881.933 146 880.459 146C879.657 146 879 146.225 879 146.5C879 146.794 877.25 147 874.75 147C872.25 147 870.5 146.794 870.5 146.5C870.5 146.225 869.712 146 868.75 146C867.788 146 867 145.79 867 145.533C867 145.277 866.513 144.913 865.917 144.724C864.846 144.384 862.5 142.333 862.5 141.737C862.5 141.567 862.208 141.137 861.852 140.781C861.495 140.424 860.886 139.146 860.498 137.941C860.109 136.736 859.557 135.585 859.271 135.383C858.984 135.181 856.427 135.012 853.589 135.008C849.775 135.002 848.242 135.186 847.714 135.714C846.906 136.522 846.733 140 847.5 140C847.775 140 848 140.615 848 141.367C848 142.71 850.18 147.603 851.339 148.861C851.663 149.212 852.169 149.5 852.464 149.5C852.759 149.5 853 149.741 853 150.036C853 150.728 854.272 152 854.964 152C855.259 152 855.5 152.225 855.5 152.5C855.5 152.775 855.95 153 856.5 153C857.05 153 857.5 153.2 857.5 153.446C857.5 153.691 858.062 154.033 858.75 154.206C859.438 154.378 860 154.74 860 155.01C860 155.28 860.768 155.5 861.708 155.5C862.648 155.5 863.51 155.782 863.625 156.125C863.783 156.599 866.411 156.75 874.5 156.75C882.589 156.75 885.217 156.599 885.375 156.125C885.49 155.782 886.352 155.5 887.292 155.5C888.232 155.5 889 155.318 889 155.096C889 154.874 889.952 154.273 891.115 153.759C893.306 152.793 898.5 147.792 898.5 146.649C898.5 146.292 898.699 146 898.943 146C899.187 146 899.506 145.381 899.653 144.625C899.799 143.869 900.179 142.237 900.498 141C901.133 138.537 900.733 131.5 899.958 131.5C899.706 131.5 899.5 130.938 899.5 130.25C899.5 129.562 899.29 129 899.034 129C898.777 129 898.428 128.561 898.258 128.024C897.857 126.763 894.738 123.643 893.476 123.242C892.94 123.072 892.5 122.723 892.5 122.467C892.5 122.21 892.162 122 891.75 122C891.338 122 891 121.805 891 121.568C891 120.965 887.003 119.5 885.359 119.5C884.611 119.5 884 119.299 884 119.053C884 118.807 883.156 118.484 882.125 118.335C879.25 117.921 875.5 116.818 875.5 116.387C875.5 116.174 874.487 116 873.25 116C872.013 116 871 115.775 871 115.5C871 115.225 870.481 115 869.846 115C869.211 115 868.255 114.67 867.721 114.266C867.187 113.862 866.356 113.525 865.875 113.516C865.394 113.507 865 113.275 865 113C865 112.725 864.662 112.5 864.25 112.5C863.838 112.5 863.5 112.162 863.5 111.75C863.5 111.338 863.275 111 863 111C862.725 111 862.5 109.987 862.5 108.75C862.5 107.513 862.725 106.5 863 106.5C863.275 106.5 863.5 106.034 863.5 105.464C863.5 104.386 864.575 103 865.411 103C865.676 103 866.023 102.662 866.181 102.25C866.349 101.812 867.098 101.5 867.984 101.5C868.818 101.5 869.5 101.275 869.5 101C869.5 100.718 870.916 100.5 872.75 100.5C874.584 100.5 876 100.718 876 101C876 101.275 876.771 101.5 877.714 101.5C878.657 101.5 879.766 101.838 880.179 102.25C880.591 102.662 881.067 103 881.237 103C881.754 103 884 105.419 884 105.977C884 106.265 884.2 106.5 884.445 106.5C884.689 106.5 885.036 107.288 885.217 108.25L885.545 110H892.023H898.5L898.482 107.625C898.472 106.319 898.143 104.688 897.75 104C897.357 103.312 897.028 102.294 897.018 101.736C897.008 101.178 896.55 100.396 896 100C895.45 99.6035 895 98.9915 895 98.6395C895 98.288 894.662 98 894.25 98C893.838 98 893.5 97.759 893.5 97.4645C893.5 96.772 892.228 95.5 891.536 95.5C891.241 95.5 891 95.331 891 95.125C890.999 94.5205 886.201 92 885.052 92C884.473 92 884 91.8075 884 91.572C884 91.182 881.768 90.8735 874.75 90.2925C873.375 90.1785 870.394 90.314 868.125 90.593ZM69.149 92.644C68.09 93.7115 67.052 94.5 66.705 94.5C66.52 94.5 65.6255 95.2875 64.7175 96.25C63.81 97.2125 62.827 98 62.5335 98C62.24 98 61.9995 98.1685 61.999 98.375C61.998 98.5815 61.322 99.5375 60.4965 100.5C59.6705 101.462 58.8685 102.644 58.714 103.125C58.559 103.606 58.223 104 57.9665 104C57.71 104 57.5 104.241 57.5 104.536C57.5 104.831 57.219 105.385 56.875 105.768C55.391 107.423 55 107.989 55 108.479C55 108.766 54.775 109 54.5 109C54.225 109 54 109.342 54 109.76C54 110.178 53.4375 111.411 52.75 112.5C52.0625 113.589 51.5 114.822 51.5 115.24C51.5 115.658 51.301 116 51.0585 116C50.8155 116 50.5085 116.415 50.376 116.921C50.1755 117.688 49.4335 117.896 45.9425 118.167C43.6365 118.347 39.8935 118.495 37.625 118.497C35.2105 118.499 33.5 118.708 33.5 119C33.5 119.298 35.4165 119.5 38.25 119.5C41.0835 119.5 43 119.702 43 120C43 120.275 43.619 120.503 44.375 120.507C47.2475 120.521 48 120.999 48 122.809C48 123.739 47.8 124.5 47.5555 124.5C47.3115 124.5 46.9635 125.288 46.783 126.25C46.6025 127.212 46.24 128 45.9775 128C45.715 128 45.5 128.562 45.5 129.25C45.5 129.938 45.275 130.5 45 130.5C44.725 130.5 44.493 131.119 44.484 131.875C44.4755 132.631 44.138 133.687 43.734 134.221C43.3305 134.755 43 135.711 43 136.346C43 136.981 42.775 137.5 42.5 137.5C42.225 137.5 42 138.062 42 138.75C42 139.438 41.8 140 41.5555 140C41.3115 140 40.9635 140.788 40.783 141.75C40.6025 142.712 40.24 143.5 39.9775 143.5C39.715 143.5 39.5 144.062 39.5 144.75C39.5 145.438 39.321 146 39.1025 146C38.884 146 38.2875 147.013 37.777 148.25C37.267 149.487 36.658 150.5 36.4245 150.5C36.191 150.5 36 150.838 36 151.25C36 151.662 35.801 152 35.5585 152C35.3155 152 34.999 152.45 34.855 153C34.685 153.65 34.84 154 35.297 154C35.6835 154 36 153.775 36 153.5C36 153.225 36.3375 153 36.75 153C37.1625 153 37.5 152.775 37.5 152.5C37.5 152.225 37.832 152 38.2375 152C38.9365 152 48 143.427 48 142.766C48 142.595 48.5625 141.892 49.25 141.204C49.9375 140.517 50.5 139.627 50.5 139.227C50.5 138.827 50.6835 138.5 50.9075 138.5C51.1315 138.5 51.6905 137.712 52.1495 136.75C52.6085 135.788 53.2125 135 53.492 135C53.7715 135 54 134.438 54 133.75C54 133.062 54.225 132.5 54.5 132.5C54.775 132.5 55 132.05 55 131.5C55 130.95 55.215 130.5 55.4775 130.5C55.74 130.5 56.1025 129.712 56.283 128.75C56.4635 127.788 56.8115 127 57.0555 127C57.3 127 57.5 126.541 57.5 125.979C57.5 125.418 57.948 124.477 58.495 123.89C59.447 122.868 59.627 122.85 62.62 123.486C64.3415 123.851 67.1565 124.248 68.875 124.367C70.594 124.487 72 124.791 72 125.042C72 125.294 74.7 125.5 78 125.5C81.6665 125.5 84 125.306 84 125C84 124.725 84.2815 124.497 84.625 124.492C85.341 124.483 88.5 121.818 88.5 121.223C88.5 121.006 88.843 120.45 89.262 119.986C90.4675 118.654 89.683 117.661 87.1515 117.314C85.8915 117.141 79.468 117 72.8765 117C61.653 117 60.917 116.945 61.2705 116.125C61.478 115.644 61.8945 114.519 62.196 113.625C62.498 112.731 62.9145 112 63.1225 112C63.33 112 63.5 111.344 63.5 110.542C63.5 109.74 63.669 109.009 63.875 108.917C64.566 108.61 66 105.433 66 104.21C66 103.545 66.225 103 66.5 103C66.775 103 67 102.438 67 101.75C67 101.062 67.2205 100.5 67.4905 100.5C67.76 100.5 68.122 99.9375 68.2945 99.25C68.467 98.5625 68.809 98 69.054 98C69.2995 98 69.5 97.4375 69.5 96.75C69.5 96.0625 69.7005 95.5 69.946 95.5C70.191 95.5 70.533 94.9375 70.7055 94.25C70.878 93.5625 71.24 93 71.5095 93C71.7795 93 72 92.775 72 92.5C72 91.802 69.8775 91.9095 69.149 92.644ZM402.5 123.75V155.5H409H415.5V143.25C415.5 131.667 415.554 130.946 416.5 130C417.445 129.055 418.166 129 429.535 129C439.3 129 441.706 128.865 442.285 128.286C443.28 127.292 443.28 120.208 442.285 119.214C441.706 118.634 439.281 118.5 429.393 118.5H417.216L416.358 117.048C415.695 115.926 415.5 114.409 415.5 110.374C415.5 102.465 414.222 103.044 432.052 102.883L446.75 102.75L446.892 97.375L447.034 92H424.767H402.5V123.75ZM489.646 92.726C489.313 93.1045 488.894 93.9985 488.715 94.712C488.536 95.4255 488.189 96.133 487.945 96.284C487.7 96.4355 487.5 97.108 487.5 97.7795C487.5 98.451 487.275 99 487 99C486.725 99 486.5 99.5195 486.5 100.154C486.5 100.789 486.169 101.745 485.766 102.279C485.362 102.813 485.024 103.869 485.016 104.625C485.007 105.381 484.775 106 484.5 106C484.225 106 484 106.432 484 106.96C484 107.487 483.625 108.669 483.166 109.585C481.617 112.675 481.5 112.984 481.5 113.993C481.5 114.547 481.275 115 481 115C480.725 115 480.493 115.619 480.484 116.375C480.476 117.131 480.138 118.187 479.734 118.721C479.331 119.255 479 120.211 479 120.846C479 121.481 478.775 122 478.5 122C478.225 122 478 122.543 478 123.208C478 123.873 477.831 124.491 477.625 124.583C477.041 124.843 475.5 128.421 475.5 129.517C475.5 130.057 475.275 130.5 475 130.5C474.725 130.5 474.492 131.006 474.482 131.625C474.472 132.244 474.143 133.312 473.75 134C473.357 134.688 473.027 135.756 473.017 136.375C473.008 136.994 472.775 137.5 472.5 137.5C472.225 137.5 472 138.062 472 138.75C472 139.438 471.8 140 471.556 140C471.312 140 470.963 140.788 470.783 141.75C470.602 142.712 470.24 143.5 469.978 143.5C469.715 143.5 469.5 144.288 469.5 145.25C469.5 146.212 469.275 147 469 147C468.725 147 468.5 147.562 468.5 148.25C468.5 148.938 468.285 149.5 468.022 149.5C467.76 149.5 467.398 150.288 467.217 151.25C467.037 152.212 466.688 153 466.444 153C466.2 153 466 153.562 466 154.25V155.5H472.57C478.241 155.5 479.231 155.38 479.804 154.625C480.17 154.144 480.476 153.356 480.484 152.875C480.493 152.394 480.725 152 481 152C481.275 152 481.5 151.322 481.5 150.493C481.5 149.664 481.687 148.595 481.916 148.118C482.144 147.64 482.707 146.501 483.166 145.585C483.625 144.669 484 143.648 484 143.318C484 142.987 484.654 142.33 485.452 141.858C486.699 141.122 488.345 141.003 497.077 141.016C504.743 141.028 507.465 141.195 508.125 141.696C508.606 142.061 509 142.521 509 142.716C509 142.912 509.338 143.409 509.75 143.822C510.162 144.234 510.5 145.118 510.5 145.786C510.5 146.454 510.725 147 511 147C511.275 147 511.5 147.562 511.5 148.25C511.5 148.938 511.725 149.5 512 149.5C512.275 149.5 512.5 149.949 512.5 150.497C512.5 151.045 512.89 152.395 513.368 153.497L514.236 155.5H520.618H527V153C527 151.625 526.775 150.5 526.5 150.5C526.225 150.5 526 150.093 526 149.596C526 149.098 525.669 148.255 525.266 147.721C524.862 147.187 524.524 146.244 524.516 145.625C524.507 145.006 524.275 144.5 524 144.5C523.725 144.5 523.5 143.712 523.5 142.75C523.5 141.788 523.319 141 523.096 141C522.536 141 521 137.398 521 136.082C521 135.487 520.775 135 520.5 135C520.225 135 519.992 134.494 519.982 133.875C519.972 133.256 519.643 132.188 519.25 131.5C518.857 130.812 518.528 129.744 518.518 129.125C518.508 128.506 518.275 128 518 128C517.725 128 517.5 127.438 517.5 126.75C517.5 126.062 517.3 125.5 517.055 125.5C516.811 125.5 516.464 124.712 516.283 123.75C516.103 122.788 515.74 122 515.477 122C515.215 122 515 121.212 515 120.25C515 119.288 514.775 118.5 514.5 118.5C514.225 118.5 514 117.981 514 117.346C514 116.711 513.669 115.755 513.266 115.221C512.862 114.687 512.524 113.744 512.516 113.125C512.507 112.506 512.275 112 512 112C511.725 112 511.5 111.325 511.5 110.5C511.5 109.675 511.293 109 511.039 109C510.786 109 510.432 108.327 510.252 107.505C510.071 106.684 509.715 105.883 509.461 105.726C509.207 105.569 509 104.892 509 104.221C509 103.549 508.775 103 508.5 103C508.225 103 508 102.481 508 101.846C508 101.211 507.669 100.255 507.266 99.7205C506.862 99.187 506.524 98.244 506.516 97.625C506.507 97.006 506.275 96.5 506 96.5C505.725 96.5 505.5 95.825 505.5 95C505.5 94.175 505.275 93.5 505 93.5C504.725 93.5 504.5 93.1625 504.5 92.75C504.5 91.692 490.574 91.6695 489.646 92.726ZM594 92.75C594 93.1625 593.775 93.5 593.5 93.5C593.172 93.5 593 103.917 593 123.75C593 143.583 593.172 154 593.5 154C593.775 154 594 154.338 594 154.75C594 155.406 597 155.5 618 155.5H642V150.303C642 146.026 641.86 145.053 641.209 144.803C640.774 144.636 633.588 144.5 625.239 144.5C615.658 144.5 609.945 144.315 609.75 144C609.58 143.725 609.005 143.5 608.471 143.5C607.556 143.5 607.5 143.095 607.5 136.464C607.5 131.033 607.663 129.265 608.214 128.714C608.8 128.128 611.526 128 623.411 128C636.156 128 637.929 127.905 638.196 127.209C638.363 126.774 638.5 124.532 638.5 122.227C638.5 118.595 638.371 117.966 637.533 117.518C636.933 117.197 631.317 117 622.747 117C611.438 117 608.799 116.871 608.214 116.286C607.193 115.265 607.193 104.735 608.214 103.714C608.803 103.125 611.685 103 624.603 103C643.134 103 642 103.378 642 97.2085C642 94.599 641.779 93.2075 641.286 92.7145C640.185 91.613 594 91.648 594 92.75ZM648.333 92.3335C648.15 92.5165 648 106.483 648 123.369C648 149.311 648.11 154.182 648.714 154.786C649.251 155.323 650.866 155.5 655.214 155.5H661V135.75V116H662.286C663.604 116 665 117.01 665 117.964C665 118.259 665.225 118.5 665.5 118.5C665.775 118.5 666 118.95 666 119.5C666 120.05 666.225 120.5 666.5 120.5C666.775 120.5 667 120.838 667 121.25C667 121.662 667.21 122 667.466 122C667.723 122 668.088 122.49 668.278 123.089C668.468 123.687 669.158 124.753 669.812 125.458C670.466 126.163 671 127.023 671 127.37C671 127.716 671.225 128 671.5 128C671.775 128 672 128.45 672 129C672 129.55 672.225 130 672.5 130C672.775 130 673 130.338 673 130.75C673 131.162 673.22 131.5 673.49 131.5C673.76 131.5 674.122 132.062 674.294 132.75C674.467 133.438 674.809 134 675.054 134C675.3 134 675.5 134.241 675.5 134.536C675.5 134.831 675.782 135.385 676.125 135.768C677.684 137.507 678 138.009 678 138.751C678 139.187 678.562 140.15 679.25 140.891C679.938 141.633 680.5 142.523 680.5 142.87C680.5 143.216 680.725 143.5 681 143.5C681.275 143.5 681.5 143.784 681.5 144.13C681.5 144.477 682.062 145.367 682.75 146.109C683.438 146.85 684 147.916 684 148.478C684 149.04 684.19 149.5 684.422 149.5C684.653 149.5 685.266 150.288 685.785 151.25C686.303 152.212 686.901 153 687.114 153C687.326 153 687.5 153.241 687.5 153.536C687.5 155.146 688.936 155.5 695.464 155.5C700.94 155.5 702 155.378 702 154.75C702 154.338 702.225 154 702.5 154C702.828 154 703 143.583 703 123.75C703 103.917 702.828 93.5 702.5 93.5C702.225 93.5 702 93.1625 702 92.75C702 92.125 701 92 696 92H690V111.691C690 130.032 689.94 131.397 689.125 131.592C687.618 131.953 686.5 131.465 686.5 130.447C686.5 129.909 686.162 129.339 685.75 129.181C685.338 129.022 685 128.467 685 127.947C685 127.426 684.775 127 684.5 127C684.225 127 684 126.766 684 126.479C684 125.989 683.609 125.423 682.125 123.768C681.782 123.385 681.5 122.831 681.5 122.536C681.5 122.241 681.3 122 681.054 122C680.809 122 680.467 121.438 680.294 120.75C680.122 120.062 679.76 119.5 679.49 119.5C679.22 119.5 679 119.162 679 118.75C679 118.338 678.775 118 678.5 118C678.225 118 678 117.55 678 117C678 116.45 677.8 116 677.554 116C677.309 116 676.967 115.438 676.794 114.75C676.622 114.062 676.26 113.5 675.99 113.5C675.72 113.5 675.5 113.162 675.5 112.75C675.5 112.338 675.275 112 675 112C674.725 112 674.5 111.646 674.5 111.214C674.5 110.782 674.219 110.115 673.875 109.732C672.391 108.077 672 107.511 672 107.021C672 106.734 671.8 106.5 671.554 106.5C671.309 106.5 670.967 105.938 670.794 105.25C670.622 104.562 670.26 104 669.99 104C669.72 104 669.5 103.55 669.5 103C669.5 102.45 669.275 102 669 102C668.725 102 668.5 101.662 668.5 101.25C668.5 100.838 668.28 100.5 668.01 100.5C667.74 100.5 667.378 99.9375 667.206 99.25C667.033 98.5625 666.691 98 666.446 98C666.2 98 666 97.7655 666 97.479C666 96.9885 665.609 96.423 664.125 94.7685C663.782 94.385 663.5 93.927 663.5 93.75C663.5 93.573 663.179 93.107 662.786 92.7145C662.238 92.1665 660.511 92 655.369 92C651.683 92 648.516 92.15 648.333 92.3335ZM774 123.036C774 149.267 774.11 154.182 774.714 154.786C775.783 155.855 787 155.822 787 154.75C787 154.338 787.225 154 787.5 154C787.828 154 788 143.583 788 123.75C788 103.917 787.828 93.5 787.5 93.5C787.225 93.5 787 93.1625 787 92.75C787 92.122 785.944 92 780.5 92H774V123.036ZM796.5 123.75V155.5H820.5C841.5 155.5 844.5 155.406 844.5 154.75C844.5 154.338 844.725 154 845 154C845.292 154 845.5 152.333 845.5 150C845.5 147.667 845.292 146 845 146C844.725 146 844.5 145.662 844.5 145.25C844.5 144.599 842.403 144.5 828.625 144.499L812.75 144.499L811.375 143.316C810.011 142.143 810 142.085 810.016 135.942C810.027 131.587 810.229 129.49 810.696 128.875C811.302 128.077 812.638 128 825.877 128C838.653 128 840.429 127.905 840.696 127.209C840.863 126.774 841 124.438 841 122.018C841 117.877 840.934 117.599 839.875 117.315C839.257 117.15 832.602 117.011 825.089 117.007C813.923 117.001 811.298 116.87 810.714 116.286C810.19 115.762 810 114.239 810 110.577C810 105.167 810.231 104 811.304 104C811.687 104 812 103.775 812 103.5C812 103.178 817.38 102.997 827.125 102.993C835.444 102.989 842.757 102.85 843.375 102.685C844.45 102.396 844.5 102.153 844.5 97.1915V92H820.5H796.5V123.75ZM370.358 102.375C371.399 102.856 372.325 103.419 372.417 103.625C372.509 103.831 372.906 104 373.301 104C374.897 104 380 110.695 380 112.79C380 113.18 380.225 113.5 380.5 113.5C380.778 113.5 381 114.834 381 116.5C381 118.166 381.222 119.5 381.5 119.5C381.8 119.5 382 121.5 382 124.5C382 127.5 381.8 129.5 381.5 129.5C381.225 129.5 381 130.513 381 131.75C381 132.987 380.831 134.001 380.625 134.002C380.419 134.003 379.81 135.071 379.274 136.377C377.636 140.357 372.096 145 368.983 145C368.443 145 368 145.225 368 145.5C368 145.789 366.417 146 364.25 146C362.083 146 360.5 145.789 360.5 145.5C360.5 145.225 360.057 145 359.517 145C358.976 145 357.682 144.606 356.642 144.125C354.772 143.261 354.129 142.845 352.768 141.625C352.385 141.282 351.83 141 351.535 141C351.241 141 351 140.55 351 140C351 139.45 350.775 139 350.5 139C350.225 139 350 138.759 350 138.464C350 138.169 349.662 137.591 349.25 137.178C348.838 136.766 348.5 135.882 348.5 135.214C348.5 134.546 348.3 134 348.056 134C347.813 134 347.494 133.381 347.348 132.625C347.202 131.869 346.844 130.35 346.553 129.25C345.787 126.353 345.883 120.545 346.745 117.704C347.154 116.354 347.492 114.631 347.495 113.875C347.498 113.119 347.701 112.5 347.946 112.5C348.191 112.5 348.533 111.938 348.706 111.25C348.878 110.562 349.24 110 349.509 110C349.779 110 350 109.662 350 109.25C350 108.838 350.225 108.5 350.5 108.5C350.775 108.5 351 108.05 351 107.5C351 106.95 351.314 106.5 351.697 106.5C352.08 106.5 352.522 106.162 352.681 105.75C352.839 105.338 353.313 105 353.734 105C354.155 105 354.5 104.775 354.5 104.5C354.5 104.225 354.741 104 355.035 104C355.33 104 355.909 103.662 356.322 103.25C356.734 102.838 357.492 102.5 358.006 102.5C358.521 102.5 359.08 102.275 359.25 102C359.799 101.113 368.245 101.397 370.358 102.375ZM151 109.5C151 109.775 150.438 110 149.75 110C149.062 110 148.5 110.21 148.5 110.467C148.5 110.723 148.106 111.059 147.625 111.214C147.144 111.369 145.962 112.171 145 112.997C144.038 113.822 143.081 114.498 142.875 114.499C142.669 114.499 142.5 114.838 142.5 115.25C142.5 115.667 142.055 116 141.5 116C140.95 116 140.5 116.225 140.5 116.5C140.5 116.775 140.95 117 141.5 117C142.05 117 142.5 116.775 142.5 116.5C142.5 116.225 143.252 116 144.171 116C145.556 116 145.998 116.289 146.751 117.686C147.631 119.32 147.629 119.466 146.704 122.432C146.179 124.115 145.581 125.493 145.375 125.495C145.169 125.498 145 126.062 145 126.75C145 127.438 144.8 128 144.554 128C144.309 128 143.967 128.562 143.794 129.25C143.622 129.938 143.26 130.5 142.99 130.5C142.72 130.5 142.5 131.062 142.5 131.75C142.5 132.438 142.275 133 142 133C141.725 133 141.5 133.45 141.5 134C141.5 134.55 141.28 135 141.01 135C140.74 135 140.378 135.562 140.206 136.25C140.033 136.938 139.691 137.5 139.446 137.5C139.2 137.5 139 137.741 139 138.036C139 138.331 138.719 138.885 138.375 139.268C136.779 141.048 136.5 141.526 136.5 142.479C136.5 143.041 136.311 143.5 136.079 143.5C135.847 143.5 135.233 144.288 134.715 145.25C134.196 146.212 133.599 147 133.387 147C133.174 147 133 147.235 133 147.523C133 147.81 132.438 148.608 131.75 149.296C131.062 149.983 130.5 150.854 130.5 151.231C130.5 151.608 130.219 152.031 129.875 152.171C129.424 152.353 129.405 152.539 129.807 152.837C130.114 153.064 130.523 153.756 130.717 154.375C131.046 155.429 131.342 155.5 135.455 155.5H139.842L140.785 153.75C141.304 152.788 141.901 152 142.113 152C142.326 152 142.5 151.519 142.5 150.932C142.5 150.345 143.062 149.343 143.75 148.706C144.438 148.069 145 147.2 145 146.774C145 146.348 145.225 146 145.5 146C145.775 146 146 145.716 146 145.37C146 145.023 146.562 144.133 147.25 143.391C147.938 142.65 148.5 141.809 148.5 141.522C148.5 141.235 148.669 140.998 148.875 140.997C149.378 140.992 151 138.102 151 137.21C151 136.82 151.176 136.5 151.392 136.5C152.118 136.5 153.5 133.609 153.5 132.089C153.5 131.261 153.669 130.509 153.875 130.417C154.359 130.202 157 124.913 157 124.158C157 123.842 157.239 123.503 157.531 123.406C158.308 123.147 158.379 115.376 157.606 115.118C157.273 115.007 157 114.493 157 113.975C157 112.71 154.285 110 153.017 110C152.457 110 152 109.775 152 109.5C152 109.225 151.775 109 151.5 109C151.225 109 151 109.225 151 109.5ZM180.04 109.375C180.016 109.748 179.296 110 178.25 110C177.288 110 176.5 110.199 176.5 110.441C176.5 110.684 176.106 111.016 175.625 111.177C173.594 111.859 168.646 116.333 169.277 116.917C169.475 117.1 169.738 116.969 169.86 116.625C169.983 116.282 170.627 116 171.292 116C171.957 116 172.5 115.775 172.5 115.5C172.5 115.225 173.062 115 173.75 115C174.666 115 175 115.266 175 116C175 116.55 175.225 117 175.5 117C175.775 117 176 117.562 176 118.25C176 118.938 175.775 119.5 175.5 119.5C175.225 119.5 175 120.212 175 121.082C175 122.789 173.564 126.5 172.904 126.5C172.682 126.5 172.5 127.062 172.5 127.75C172.5 128.438 172.3 129 172.054 129C171.809 129 171.467 129.562 171.294 130.25C171.122 130.938 170.76 131.5 170.49 131.5C170.22 131.5 170 131.95 170 132.5C170 133.05 169.775 133.5 169.5 133.5C169.225 133.5 169 133.95 169 134.5C169 135.05 168.831 135.502 168.625 135.503C168.122 135.508 166.5 138.398 166.5 139.29C166.5 139.68 166.311 140 166.079 140C165.847 140 165.233 140.788 164.715 141.75C164.196 142.712 163.599 143.5 163.387 143.5C163.174 143.5 163 143.918 163 144.43C163 144.941 162.438 145.782 161.75 146.298C161.062 146.815 160.5 147.745 160.5 148.368C160.5 148.991 160.324 149.5 160.108 149.5C159.892 149.5 159.3 150.203 158.792 151.062L157.87 152.625L159.408 154.062C160.78 155.345 161.301 155.5 164.245 155.5C167.928 155.5 168.898 154.879 170.704 151.359C171.229 150.337 171.847 149.5 172.079 149.5C172.311 149.5 172.5 148.938 172.5 148.25C172.5 147.562 172.674 147 172.887 147C173.099 147 173.696 146.212 174.215 145.25C174.733 144.288 175.347 143.5 175.579 143.5C175.811 143.5 176 143.034 176 142.464C176 141.894 176.282 141.115 176.625 140.732C178.109 139.077 178.5 138.511 178.5 138.021C178.5 137.734 178.689 137.5 178.921 137.5C179.153 137.5 179.767 136.712 180.285 135.75C180.804 134.788 181.401 134 181.613 134C181.826 134 182 133.438 182 132.75C182 132.062 182.199 131.5 182.443 131.5C182.687 131.5 183.038 130.487 183.224 129.25C183.409 128.013 183.773 127 184.031 127C184.289 127 184.5 126.325 184.5 125.5C184.5 124.675 184.725 124 185 124C185.275 124 185.5 123.52 185.5 122.933C185.5 122.346 185.76 120.996 186.079 119.932C186.524 118.447 186.516 117.36 186.044 115.249C185.705 113.737 185.22 112.5 184.964 112.5C184.709 112.5 184.5 112.259 184.5 111.964C184.5 111.021 183.11 110 181.827 110C181.143 110 180.47 109.719 180.331 109.375C180.129 108.875 180.071 108.875 180.04 109.375ZM208.5 109.5C208.5 109.775 207.712 110 206.75 110C205.788 110 205 110.189 205 110.421C205 110.653 204.212 111.267 203.25 111.785C202.288 112.304 201.5 112.901 201.5 113.113C201.5 113.326 201.162 113.5 200.75 113.5C200.338 113.5 200 113.71 200 113.967C200 114.223 199.55 114.575 199 114.75C198.45 114.925 198 115.277 198 115.533C198 115.79 198.45 116 199 116C199.55 116 200 115.801 200 115.559C200 114.769 202.044 114.533 202.334 115.289C202.484 115.68 202.951 116 203.372 116C204.009 116 204.081 116.481 203.801 118.875C203.616 120.457 203.248 121.825 202.982 121.917C202.717 122.009 202.5 122.627 202.5 123.292C202.5 123.957 202.28 124.5 202.01 124.5C201.74 124.5 201.378 125.062 201.206 125.75C201.033 126.438 200.691 127 200.446 127C200.2 127 200 127.45 200 128C200 128.55 199.775 129 199.5 129C199.225 129 199 129.234 199 129.521C199 130.011 198.609 130.577 197.125 132.232C196.782 132.615 196.5 133.293 196.5 133.738C196.5 134.184 195.938 135.069 195.25 135.706C194.562 136.343 194 137.214 194 137.641C194 138.068 193.831 138.491 193.625 138.583C193.081 138.825 191.5 141.956 191.5 142.79C191.5 143.18 191.275 143.5 191 143.5C190.725 143.5 190.5 144.062 190.5 144.75C190.5 145.438 190.275 146 190 146C189.725 146 189.5 147.013 189.5 148.25C189.5 149.487 189.725 150.5 190 150.5C190.275 150.5 190.5 151.062 190.5 151.75C190.5 152.457 190.789 153 191.165 153C191.531 153 192.132 153.562 192.5 154.25C193.126 155.42 193.42 155.5 197.085 155.5C199.362 155.5 201 155.291 201 155C201 154.725 201.338 154.5 201.75 154.5C202.162 154.5 202.5 154.29 202.5 154.033C202.5 153.777 202.988 153.412 203.584 153.223C204.877 152.813 209.738 148.071 209.307 147.64C209.142 147.475 208.585 147.825 208.07 148.42C207.555 149.014 206.975 149.5 206.781 149.5C206.587 149.5 206.091 149.838 205.678 150.25C205.266 150.662 204.382 151 203.714 151C202.968 151 202.5 150.711 202.5 150.25C202.5 149.838 202.135 149.5 201.688 149.5C201.006 149.5 200.914 149.043 201.113 146.65C201.243 145.083 201.608 143.714 201.924 143.609C202.241 143.503 202.5 142.873 202.5 142.208C202.5 141.544 202.674 141 202.887 141C203.099 141 203.696 140.212 204.215 139.25C204.733 138.288 205.347 137.5 205.579 137.5C205.811 137.5 206 137.074 206 136.553C206 136.032 206.559 135.075 207.242 134.428C207.924 133.78 208.487 132.856 208.492 132.375C208.496 131.894 208.725 131.5 209 131.5C209.275 131.5 209.5 131.216 209.5 130.87C209.5 130.523 210.062 129.633 210.75 128.891C211.438 128.15 212 127.103 212 126.564C212 126.025 212.169 125.509 212.375 125.417C213.078 125.104 214.5 121.47 214.5 119.983C214.5 119.168 214.725 118.5 215 118.5C215.275 118.5 215.5 117.375 215.5 116C215.5 114.625 215.275 113.5 215 113.5C214.725 113.5 214.5 113.1 214.5 112.611C214.5 111.581 212.832 110 211.745 110C211.335 110 211 109.775 211 109.5C211 109.225 210.438 109 209.75 109C209.062 109 208.5 109.225 208.5 109.5ZM310.5 109.5C310.5 109.775 309.825 110 309 110C308.175 110 307.5 110.225 307.5 110.5C307.5 110.775 307.05 111 306.5 111C305.945 111 305.5 111.333 305.5 111.75C305.5 112.167 305.055 112.5 304.5 112.5C303.95 112.5 303.5 112.725 303.5 113C303.5 113.275 303.265 113.5 302.976 113.5C302.688 113.5 301.931 114.062 301.294 114.75C300.657 115.438 299.768 116 299.318 116C298.868 116 298.5 116.225 298.5 116.5C298.5 116.775 299.268 117 300.207 117C301.48 117 302.371 117.443 303.707 118.741C305.295 120.283 305.5 120.769 305.5 122.991C305.5 124.371 305.299 125.5 305.054 125.5C304.809 125.5 304.467 126.062 304.294 126.75C304.122 127.438 303.76 128 303.491 128C303.221 128 303 128.562 303 129.25C303 129.938 302.81 130.5 302.578 130.5C302.347 130.5 301.733 131.288 301.215 132.25C300.696 133.212 300.099 134 299.887 134C299.674 134 299.5 134.241 299.5 134.536C299.5 134.831 299.219 135.385 298.875 135.768C297.213 137.621 296.927 138.092 297.268 138.408C297.471 138.596 297.737 138.469 297.86 138.125C297.983 137.782 298.306 137.5 298.578 137.5C299.128 137.5 300.5 136.251 300.5 135.75C300.5 135.231 301.882 134 302.465 134C302.759 134 303 133.759 303 133.464C303 132.772 304.272 131.5 304.965 131.5C305.259 131.5 305.5 131.267 305.5 130.982C305.5 130.458 306.229 129.575 309.625 125.983C310.656 124.893 311.5 123.871 311.5 123.714C311.5 123.557 311.782 123.115 312.125 122.732C313.591 121.097 314 120.515 314 120.063C314 119.799 314.245 119.501 314.544 119.402C314.872 119.293 315.088 117.737 315.088 115.5C315.088 113.263 314.872 111.707 314.544 111.598C314.245 111.499 314 111.098 314 110.708C314 110.286 313.495 110 312.75 110C312.062 110 311.5 109.775 311.5 109.5C311.5 109.225 311.275 109 311 109C310.725 109 310.5 109.225 310.5 109.5ZM497 109.5C497 109.775 497.338 110 497.75 110C498.167 110 498.5 110.445 498.5 111C498.5 111.55 498.725 112 499 112C499.275 112 499.5 112.675 499.5 113.5C499.5 114.325 499.725 115 500 115C500.275 115 500.508 115.506 500.518 116.125C500.528 116.744 500.857 117.812 501.25 118.5C501.643 119.188 501.972 120.256 501.982 120.875C501.992 121.494 502.225 122 502.5 122C502.775 122 503 122.422 503 122.939C503 123.455 503.338 124.686 503.75 125.673C504.162 126.66 504.5 128.15 504.5 128.984C504.5 129.998 504.252 130.5 503.75 130.5C503.338 130.5 503 130.725 503 131C503 131.846 490.574 131.646 489.714 130.786C488.905 129.977 488.737 127 489.5 127C489.775 127 490 126.325 490 125.5C490 124.675 490.225 124 490.5 124C490.775 124 491 123.325 491 122.5C491 121.675 491.215 121 491.477 121C491.74 121 492.103 120.212 492.283 119.25C492.464 118.288 492.811 117.5 493.055 117.5C493.3 117.5 493.5 116.825 493.5 116C493.5 115.175 493.7 114.5 493.945 114.5C494.189 114.5 494.536 113.712 494.717 112.75C494.897 111.788 495.26 111 495.523 111C495.785 111 496 110.55 496 110C496 109.45 496.225 109 496.5 109C496.775 109 497 109.225 497 109.5ZM112.5 110.445C112.5 110.689 111.712 111.036 110.75 111.217C109.788 111.397 109 111.664 109 111.809C109 112.393 110.481 113.5 111.262 113.5C112.254 113.5 115 115.049 115 115.608C115 115.824 115.241 116 115.536 116C116.111 116 117.5 117.228 117.5 117.737C117.5 117.906 118.062 118.608 118.75 119.296C119.438 119.983 120 120.873 120 121.273C120 121.673 120.225 122 120.5 122C121.449 122 120.997 124.047 119.75 125.391C119.062 126.133 118.5 126.911 118.5 127.12C118.5 127.329 117.173 128.827 115.55 130.45C113.432 132.568 112.753 133.553 113.141 133.941C113.439 134.239 113.517 134.65 113.314 134.852C113.111 135.055 112.745 134.896 112.5 134.5C112.255 134.104 111.873 133.972 111.652 134.208C111.431 134.444 111.532 134.738 111.875 134.86C112.617 135.125 112.721 136.5 112 136.5C111.725 136.5 111.5 136.95 111.5 137.5C111.5 138.05 111.3 138.5 111.054 138.5C110.809 138.5 110.467 139.062 110.294 139.75C110.122 140.438 109.76 141 109.49 141C109.22 141 109 141.544 109 142.208C109 142.873 108.725 143.508 108.389 143.62C107.46 143.93 107.566 151.135 108.514 152.092C108.919 152.5 109.697 153.434 110.243 154.167C111.181 155.424 111.474 155.5 115.39 155.5C117.98 155.5 119.823 155.265 120.288 154.875C120.699 154.532 121.349 153.969 121.732 153.625C122.115 153.282 122.573 153 122.75 153C123.183 153 124.5 151.66 124.5 151.221C124.5 151.027 123.769 150.981 122.875 151.117C121.036 151.399 120 151.149 120 150.423C120 150.151 119.662 149.591 119.25 149.178C118.838 148.766 118.5 147.743 118.5 146.906C118.5 145.242 120.024 140.35 120.625 140.083C120.831 139.991 121 139.373 121 138.708C121 138.043 121.2 137.5 121.446 137.5C121.691 137.5 122.033 136.938 122.206 136.25C122.378 135.562 122.74 135 123.01 135C123.28 135 123.5 134.55 123.5 134C123.5 133.45 123.7 133 123.946 133C124.191 133 124.533 132.438 124.706 131.75C124.878 131.062 125.24 130.5 125.51 130.5C125.78 130.5 126 130.162 126 129.75C126 129.338 126.225 129 126.5 129C126.775 129 127 128.55 127 128C127 127.45 127.225 127 127.5 127C127.775 127 128 126.662 128 126.25C128 125.838 128.21 125.5 128.467 125.5C128.723 125.5 129.087 125.013 129.276 124.417C129.465 123.822 130.155 122.799 130.81 122.145C131.464 121.49 132 120.677 132 120.337C132 119.998 132.45 119.396 133 119C133.55 118.604 134 118.002 134 117.663C134 117.323 134.562 116.483 135.25 115.796C135.938 115.108 136.5 114.31 136.5 114.023C136.5 113.735 136.699 113.5 136.941 113.5C137.184 113.5 137.501 113.05 137.645 112.5C137.815 111.85 137.66 111.5 137.203 111.5C136.817 111.5 136.5 111.725 136.5 112C136.5 112.275 136.05 112.5 135.5 112.5C134.95 112.5 134.5 112.725 134.5 113C134.5 113.275 134.162 113.5 133.75 113.5C133.338 113.5 133 113.72 133 113.99C133 114.26 132.438 114.622 131.75 114.794C131.062 114.967 130.5 115.309 130.5 115.554C130.5 116.264 128.499 116.071 127.714 115.286C127.321 114.893 127 114.427 127 114.25C127 113.731 125.619 112.5 125.036 112.5C124.741 112.5 124.5 112.28 124.5 112.01C124.5 111.74 123.938 111.378 123.25 111.206C122.562 111.033 122 110.691 122 110.446C122 110.2 119.862 110 117.25 110C114.638 110 112.5 110.2 112.5 110.445ZM231.5 110.5C231.5 110.775 231.162 111 230.75 111C230.338 111 230 111.21 230 111.467C230 111.723 229.501 112.091 228.892 112.284C228.283 112.477 227.05 113.392 226.151 114.318C225.253 115.243 224.176 116 223.759 116C223.342 116 223 116.225 223 116.5C223 116.775 223.45 117 224 117C224.55 117 225 116.775 225 116.5C225 115.733 228.478 115.906 229.285 116.714C230.063 117.492 230.277 120.5 229.554 120.5C229.309 120.5 228.98 121.01 228.823 121.635C228.667 122.259 228.08 123.262 227.52 123.864C226.959 124.466 226.5 125.305 226.5 125.729C226.5 126.153 226.275 126.5 226 126.5C225.725 126.5 225.5 126.838 225.5 127.25C225.5 127.662 225.162 128 224.75 128C224.305 128 224 128.459 224 129.132C224 129.755 223.438 130.685 222.75 131.202C222.062 131.718 221.5 132.559 221.5 133.07C221.5 133.582 221.275 134 221 134C220.725 134 220.5 134.241 220.5 134.536C220.5 134.831 220.219 135.385 219.875 135.768C218.319 137.502 218 138.008 218 138.729C218 139.153 217.775 139.5 217.5 139.5C217.225 139.5 217 139.821 217 140.214C217 140.607 216.438 141.37 215.75 141.911C214.78 142.675 214.5 143.353 214.5 144.947C214.5 146.076 214.275 147 214 147C213.725 147 213.5 147.774 213.5 148.721C213.5 149.667 213.725 150.58 214 150.75C214.275 150.92 214.5 151.495 214.5 152.029C214.5 152.563 214.725 153 215 153C215.275 153 215.5 153.338 215.5 153.75C215.5 154.162 215.838 154.5 216.25 154.5C216.662 154.5 217 154.725 217 155C217 155.275 217.562 155.5 218.25 155.5C218.938 155.5 219.5 155.725 219.5 156C219.5 156.275 220.288 156.5 221.25 156.5C222.212 156.5 223 156.275 223 156C223 155.725 223.685 155.5 224.522 155.5C225.48 155.5 226.51 155.036 227.296 154.25C227.983 153.562 228.777 153 229.059 153C229.603 153 231 151.767 231 151.286C231 151.129 230.55 151 230 151C229.45 151 229 151.225 229 151.5C229 151.775 228.438 152 227.75 152C227.062 152 226.5 151.759 226.5 151.464C226.5 151.169 226.162 150.591 225.75 150.178C224.791 149.22 224.793 146.659 225.753 144.818C226.164 144.03 226.5 143.177 226.5 142.921C226.5 142.484 226.916 141.895 228.375 140.268C228.719 139.885 229 139.331 229 139.036C229 138.741 229.225 138.5 229.5 138.5C229.775 138.5 230 138.132 230 137.682C230 137.232 230.562 136.343 231.25 135.706C231.938 135.069 232.5 134.2 232.5 133.774C232.5 133.348 232.725 133 233 133C233.275 133 233.5 132.662 233.5 132.25C233.5 131.838 233.838 131.5 234.25 131.5C234.662 131.5 235 131.162 235 130.75C235 130.338 235.225 130 235.5 130C235.775 130 236 129.652 236 129.228C236 128.803 236.562 127.85 237.25 127.109C237.938 126.367 238.5 125.477 238.5 125.13C238.5 124.784 238.725 124.5 239 124.5C239.275 124.5 239.5 124.259 239.5 123.964C239.5 123.669 239.838 123.091 240.25 122.678C240.662 122.266 241 121.382 241 120.714C241 120.046 241.225 119.5 241.5 119.5C241.775 119.5 242 118.712 242 117.75C242 116.788 241.799 116 241.554 116C241.309 116 240.967 115.438 240.794 114.75C240.622 114.062 240.26 113.5 239.991 113.5C239.721 113.5 239.5 113.259 239.5 112.964C239.5 112.272 238.228 111 237.535 111C237.241 111 237 110.775 237 110.5C237 110.225 235.763 110 234.25 110C232.737 110 231.5 110.225 231.5 110.5ZM279 110.446C279 110.691 278.438 111.033 277.75 111.206C277.062 111.378 276.5 111.74 276.5 112.01C276.5 112.28 276.05 112.5 275.5 112.5C274.95 112.5 274.5 112.725 274.5 113C274.5 113.275 274.259 113.5 273.965 113.5C273.67 113.5 273.115 113.782 272.732 114.125C271.077 115.609 270.511 116 270.021 116C269.734 116 269.5 116.225 269.5 116.5C269.5 116.775 269.838 117 270.25 117C270.662 117 271 116.775 271 116.5C271 116.225 271.45 116 272 116C272.55 116 273 116.225 273 116.5C273 116.775 273.338 117 273.75 117C274.162 117 274.5 117.338 274.5 117.75C274.5 118.162 274.725 118.5 275 118.5C275.275 118.5 275.5 119.288 275.5 120.25C275.5 121.212 275.725 122 276 122C276.298 122 276.5 123.917 276.5 126.75C276.5 129.583 276.298 131.5 276 131.5C275.688 131.5 275.5 134.417 275.5 139.25C275.5 143.512 275.308 147 275.073 147C274.838 147 274.514 148.564 274.353 150.475C274.193 152.386 273.824 154.395 273.531 154.941C273.239 155.487 273 156.961 273 158.217C273 159.472 272.775 160.5 272.5 160.5C272.225 160.5 272 161.062 272 161.75C272 163.118 272.861 163.445 273.319 162.25C273.478 161.838 274.033 161.5 274.553 161.5C275.074 161.5 275.5 161.259 275.5 160.964C275.5 160.381 276.731 159 277.25 159C277.667 159 279 157.667 279 157.25C279 156.833 280.333 155.5 280.75 155.5C281.269 155.5 282.5 154.119 282.5 153.536C282.5 153.241 282.838 153 283.25 153C283.662 153 284 152.682 284 152.292C284 151.902 284.282 151.47 284.625 151.331C285.125 151.129 285.125 151.071 284.625 151.04C283.865 150.992 283.742 146 284.5 146C284.775 146 285 144.747 285 143.217C285 141.686 285.255 139.956 285.568 139.372C285.88 138.788 286.25 136.329 286.388 133.906C286.526 131.483 286.832 129.5 287.069 129.5C287.306 129.5 287.5 126.688 287.5 123.25C287.5 119.417 287.306 117 287 117C286.725 117 286.5 116.454 286.5 115.786C286.5 115.118 286.162 114.234 285.75 113.822C285.338 113.409 285 112.718 285 112.286C285 111.854 284.775 111.5 284.5 111.5C284.225 111.5 284 111.162 284 110.75C284 110.183 283.389 110 281.5 110C280.125 110 279 110.2 279 110.446ZM102 115.5C102 115.775 101.766 116 101.479 116C100.989 116 100.423 116.391 98.7685 117.875C98.385 118.219 97.924 118.5 97.744 118.5C97.564 118.5 96.652 119.288 95.717 120.25C94.7825 121.212 93.7685 122 93.464 122C92.8695 122 91.044 123.983 91.0165 124.658C91.0075 124.883 90.2125 125.81 89.25 126.717C88.2875 127.625 87.5 128.623 87.5 128.934C87.5 129.246 87.275 129.5 87 129.5C86.725 129.5 86.5 129.922 86.5 130.439C86.5 130.955 86.1625 131.657 85.75 132C85.3375 132.343 85 132.933 85 133.311C85 133.69 84.8005 134 84.5565 134C84.313 134 83.9855 134.619 83.829 135.375C83.1585 138.618 82.2445 141.5 81.8865 141.5C81.674 141.5 81.5 143.862 81.5 146.75C81.5 149.917 81.6985 152 82 152C82.275 152 82.507 152.394 82.516 152.875C82.5355 153.956 83.6615 155.5 84.43 155.5C84.7435 155.5 85 155.725 85 156C85 156.275 85.7875 156.5 86.75 156.5C87.7125 156.5 88.5 156.275 88.5 156C88.5 155.725 88.9795 155.5 89.566 155.5C90.152 155.5 91.3745 154.712 92.2825 153.75C93.19 152.788 94.1555 152 94.428 152C94.7 152 96.5325 150.425 98.5 148.5C100.467 146.575 101.772 145 101.399 145C101.026 145 100.396 145.45 100 146C99.6035 146.55 98.863 147 98.354 147C97.845 147 97.091 147.338 96.6785 147.75C95.817 148.612 95.066 148.684 94 148.01C93.387 147.621 93.267 146.325 93.342 140.904C93.4 136.732 93.6315 134.206 93.967 134.094C94.26 133.996 94.5 133.191 94.5 132.304C94.5 131.417 94.8305 130.255 95.234 129.721C95.638 129.187 95.9755 128.244 95.984 127.625C95.993 127.006 96.225 126.5 96.5 126.5C96.775 126.5 97 126.18 97 125.79C97 124.898 98.622 122.008 99.125 122.003C99.3315 122.002 99.5 121.53 99.5 120.956C99.5 120.375 100.499 118.94 101.75 117.724C102.987 116.521 104 115.416 104 115.268C104 115.121 103.55 115 103 115C102.45 115 102 115.225 102 115.5ZM196.5 116.5C196.5 116.775 196.725 117 197 117C197.275 117 197.5 116.775 197.5 116.5C197.5 116.225 197.275 116 197 116C196.725 116 196.5 116.225 196.5 116.5ZM194 119C194 119.275 194.225 119.5 194.5 119.5C194.775 119.5 195 119.275 195 119C195 118.725 194.775 118.5 194.5 118.5C194.225 118.5 194 118.725 194 119ZM220.5 119C220.5 119.275 220.725 119.5 221 119.5C221.275 119.5 221.5 119.275 221.5 119C221.5 118.725 221.275 118.5 221 118.5C220.725 118.5 220.5 118.725 220.5 119ZM905.125 143.248C904.196 144.303 904.269 153.841 905.214 154.786C906.31 155.882 917.772 155.814 918.196 154.709C918.363 154.274 918.5 151.67 918.5 148.923C918.5 145.261 918.31 143.738 917.786 143.214C916.768 142.196 906.026 142.225 905.125 143.248ZM102 144C102 144.275 102.225 144.5 102.5 144.5C102.775 144.5 103 144.275 103 144C103 143.725 102.775 143.5 102.5 143.5C102.225 143.5 102 143.725 102 144ZM128.5 146.5C128.5 146.775 128.725 147 129 147C129.275 147 129.5 146.775 129.5 146.5C129.5 146.225 129.275 146 129 146C128.725 146 128.5 146.225 128.5 146.5ZM126.5 148.5C126.104 149.05 125.491 149.5 125.139 149.5C124.788 149.5 124.5 149.725 124.5 150C124.5 150.866 125.5 150.546 126.773 149.273C127.448 148.598 128 147.923 128 147.773C128 147.163 127.176 147.562 126.5 148.5ZM232.074 149.302C231.163 150.333 231.75 150.822 232.726 149.845C233.152 149.42 233.5 148.943 233.5 148.786C233.5 148.261 232.757 148.53 232.074 149.302ZM286.5 149C286.5 149.275 286.725 149.5 287 149.5C287.275 149.5 287.5 149.275 287.5 149C287.5 148.725 287.275 148.5 287 148.5C286.725 148.5 286.5 148.725 286.5 149ZM256.5 150C256.5 150.275 256.725 150.5 257 150.5C257.275 150.5 257.5 150.275 257.5 150C257.5 149.725 257.275 149.5 257 149.5C256.725 149.5 256.5 149.725 256.5 150ZM6 152.415C6 152.644 5.4375 153.132 4.75 153.5C4.0625 153.868 3.5 154.358 3.5 154.589C3.5 154.82 2.832 155.709 2.015 156.563C-0.918501 159.633 -0.2755 161.5 3.7145 161.5C4.9715 161.5 6 161.725 6 162C6 162.278 7.3335 162.5 9 162.5C10.6665 162.5 12 162.278 12 162C12 161.722 13.3335 161.5 15 161.5C16.6665 161.5 18 161.278 18 161C18 160.725 18.5885 160.5 19.308 160.5C20.806 160.5 25.667 158.937 25.9165 158.375C26.0085 158.169 26.402 158 26.7915 158C27.1815 158 27.5 157.782 27.5 157.517C27.5 157.251 26.375 156.885 25 156.703C23.625 156.521 22.5 156.175 22.5 155.936C22.5 155.696 21.7125 155.5 20.75 155.5C19.7875 155.5 19 155.275 19 155C19 154.725 18.4535 154.5 17.7855 154.5C17.118 154.5 16.234 154.162 15.8215 153.75C15.409 153.338 14.3805 153 13.5355 153C12.691 153 12 152.775 12 152.5C12 152.222 10.6665 152 9 152C7.35 152 6 152.187 6 152.415ZM232.5 170.5C232.5 170.775 231.938 171 231.25 171C230.562 171 230 171.241 230 171.536C230 172.228 228.728 173.5 228.035 173.5C227.741 173.5 227.5 173.838 227.5 174.25C227.5 174.662 227.275 175 227 175C226.725 175 226.5 175.431 226.5 175.958C226.5 176.485 226.305 176.991 226.066 177.083C225.828 177.175 225.475 177.756 225.283 178.375C225.022 179.212 225.133 179.5 225.716 179.5C226.147 179.5 226.5 179.725 226.5 180C226.5 180.31 229.25 180.5 233.75 180.5C238.25 180.5 241 180.31 241 180C241 179.723 242.319 179.5 243.958 179.5C245.585 179.5 246.991 179.331 247.083 179.125C247.287 178.665 252.075 177 253.192 177C253.636 177 254.001 176.831 254.002 176.625C254.003 176.419 255.016 175.834 256.252 175.326C257.489 174.817 258.5 174.198 258.5 173.951C258.5 173.703 258.838 173.5 259.25 173.5C259.662 173.5 260 173.275 260 173C260 172.725 259.212 172.5 258.25 172.5C257.288 172.5 256.5 172.725 256.5 173C256.5 173.294 254.75 173.5 252.25 173.5C249.912 173.5 248 173.303 248 173.062C248 172.821 246.717 172.517 245.15 172.387C243.583 172.257 242.214 171.892 242.108 171.576C241.998 171.246 240.868 171 239.458 171C238.106 171 237 170.775 237 170.5C237 170.225 235.987 170 234.75 170C233.513 170 232.5 170.225 232.5 170.5Z" fill="black"/>
</svg>
