<svg width="330" height="100" viewBox="0 0 330 100" fill="none" xmlns="http://www.w3.org/2000/svg">
<path d="M299.983 28.5124C299.983 29.5791 299.586 29.7791 298.659 29.7791C294.817 29.7124 290.975 29.7791 287.066 29.7791C285.477 29.7791 285.477 29.7791 285.477 31.4458C285.477 40.6458 285.477 49.8458 285.477 59.0458V86.4458C285.477 88.1791 285.477 88.1791 283.754 88.1791C279.515 88.1791 275.275 88.1791 271.036 88.1791C269.38 88.1791 269.38 88.1791 269.38 86.3791V32.3791C269.38 31.9124 269.314 31.5124 269.38 31.0458C269.512 29.9791 269.049 29.7124 268.055 29.7791C264.147 29.8458 260.239 29.7791 256.33 29.7791C255.27 29.7791 254.807 29.5791 254.807 28.3791C254.873 23.9124 254.873 19.3791 254.807 14.9124C254.807 13.8458 255.072 13.4458 256.198 13.4458C270.373 13.4458 284.549 13.4458 298.659 13.4458C299.586 13.4458 300.05 13.6458 300.05 14.7124C299.917 19.3124 299.917 23.9124 299.983 28.5124ZM239.108 38.1791C239.108 36.7124 239.041 35.1791 238.776 33.7124C236.458 18.8458 222.282 8.71243 207.577 11.4458C195.587 13.6458 186.313 24.1791 185.849 36.4458C185.651 40.7791 185.783 45.1124 185.717 49.3791C185.717 50.4458 186.048 50.7791 187.108 50.7791C191.546 50.7124 196.051 50.7124 200.489 50.7791C201.681 50.7791 201.946 50.4458 201.946 49.2458C201.88 45.1791 201.946 41.1791 201.946 37.1124C201.946 35.3791 202.476 33.8458 203.337 32.3791C205.589 28.5124 210.226 26.4458 214.532 27.3791C218.771 28.2458 222.547 32.1124 222.812 36.2458C223.077 41.0458 223.011 45.8458 222.812 50.6458C227.78 50.6458 232.815 50.6458 237.783 50.7124C238.843 50.7124 239.041 50.3124 239.041 49.3791C239.108 45.7124 239.108 41.9124 239.108 38.1791ZM222.812 50.7791C218.043 50.7791 213.273 50.7791 208.504 50.8458C206.782 50.8458 206.782 50.8458 206.782 52.5124C206.782 56.4458 206.914 60.3791 206.715 64.3124C206.384 70.5791 199.893 75.1791 193.798 73.5791C188.83 72.2458 185.717 68.1791 185.651 62.8458C185.585 59.3124 185.651 55.7791 185.651 52.1791C185.651 51.3791 185.651 50.8458 184.525 50.8458C179.888 50.9124 175.251 50.9124 170.614 50.8458C169.885 50.8458 169.488 51.0458 169.488 51.8458C169.62 57.0458 169.09 62.2458 169.885 67.4458C171.873 80.5791 184.061 90.7124 197.972 89.7791C210.226 88.9791 220.692 79.4458 222.481 67.2458C223.342 61.8458 222.812 56.3124 222.812 50.7791ZM153.126 40.3124H153.192C153.192 31.9791 153.192 23.5791 153.192 15.2458C153.192 13.3791 153.192 13.3791 151.404 13.3791H139.149C137.096 13.3791 137.096 13.3791 137.096 15.4458C137.096 30.9791 137.096 46.4458 137.096 61.9791C137.096 63.0458 137.03 64.0458 136.831 65.1124C135.837 71.3124 129.478 75.3124 123.45 73.4458C118.813 72.0458 115.965 68.1124 115.965 63.1124C115.899 56.2458 115.965 49.3791 115.965 42.5124C115.965 33.3124 115.965 24.1124 115.965 14.9124C115.965 13.6458 115.634 13.3124 114.375 13.3791C110.003 13.4458 105.631 13.4458 101.325 13.3791C100.266 13.3791 99.8019 13.5791 99.8019 14.7791C99.8681 31.1791 99.7356 47.5791 99.8681 63.9791C99.9344 71.5124 103.048 77.9124 108.546 82.9124C118.548 91.9124 132.525 92.3791 143.058 84.0458C149.218 79.1791 152.729 72.7124 152.994 64.7791C153.325 56.5791 153.126 48.4458 153.126 40.3124ZM83.3078 65.7124C82.3141 78.2458 71.583 88.7791 58.9972 89.7791C47.6699 90.6458 37.4025 84.5124 32.6331 74.5124C30.9771 70.9791 30.0497 67.1791 30.0497 63.3124C29.9834 54.9791 29.9834 46.6458 30.0497 38.3791C30.1159 24.4458 40.9133 12.9791 54.6915 11.8458C68.6022 10.7124 80.5919 20.7791 82.9103 33.4458C83.3078 35.4458 83.4402 37.3791 83.4402 39.3791V51.7124C83.374 55.8458 83.7052 60.7791 83.3078 65.7124ZM67.3436 38.2458C67.2773 34.4458 65.5551 31.3791 62.3755 29.3791C58.7984 27.1124 55.0227 27.1124 51.4457 29.2458C48.0673 31.2458 46.2788 34.4458 46.2126 38.4458C46.2126 42.5124 46.2126 46.6458 46.2126 50.7124C46.2126 54.8458 46.2126 59.0458 46.2126 63.1791C46.2126 66.4458 47.5374 69.1124 49.8559 71.1791C53.1017 74.0458 56.8774 74.5791 60.7857 72.9791C64.9589 71.2458 67.2773 67.7791 67.3436 63.2458C67.4761 54.9791 67.4098 46.6458 67.3436 38.2458Z" fill="black"/>
</svg>
