<svg width="330" height="100" viewBox="0 0 330 100" fill="none" xmlns="http://www.w3.org/2000/svg">
<path d="M53 41.6243C53 34.4112 53 27.1404 53 19.9273C53 19.5811 53 19.2349 53.0577 18.8886C53.1731 17.85 53.4616 17.6191 54.5003 17.6191C55.2505 17.6191 56.0583 17.6768 56.8085 17.6768C61.9442 17.6768 67.1376 17.5614 72.2734 17.6768C75.1586 17.7346 78.0438 17.9077 80.8713 18.5424C83.2949 19.1195 85.6031 19.7542 87.6805 21.2545C89.6424 22.6394 91.0851 24.3706 91.5467 26.8519C91.7198 27.7175 91.9506 28.583 91.9506 29.5063C91.9506 32.7955 90.4503 35.3922 88.0267 37.4695C86.2956 38.9122 84.2759 39.8931 82.1408 40.701C81.1599 41.0472 80.9868 41.682 81.7369 42.3744C82.9487 43.4708 83.9874 44.6826 85.1992 45.779C86.9303 47.337 88.5461 49.0682 90.2195 50.7416C90.7388 51.3187 91.3159 51.7803 91.9506 52.2996C92.47 52.7613 92.7585 53.2806 92.7585 54.0308C92.7585 58.3009 92.7585 62.5134 92.7585 66.7835C92.7585 66.9566 92.7585 67.1297 92.7585 67.2451C92.7008 67.6491 92.5277 67.9953 92.066 68.1107C91.6044 68.2261 91.3159 68.053 91.0274 67.7645C90.3349 66.9566 89.7579 66.1487 89.0077 65.4563C86.4687 63.0327 84.1605 60.5514 81.8523 58.0701C79.0825 55.1849 76.255 52.3573 73.5429 49.4144C71.9848 47.741 70.4268 46.0675 68.6957 44.5095C68.4648 44.2787 68.1186 44.1056 67.8301 43.9902C67.1376 43.7016 66.676 43.9325 66.5029 44.6826C66.3875 45.202 66.5606 45.6636 66.5606 46.1829C66.5606 51.1455 66.5606 56.0504 66.5606 61.013C66.5606 62.1094 66.676 63.2058 66.5029 64.2445C66.3298 65.3986 66.099 65.6871 64.8872 65.6294C62.1173 65.514 59.3475 65.5717 56.5777 65.5717C55.8275 65.5717 55.0774 65.5717 54.3849 65.6294C53.5193 65.6871 53.2308 65.4563 53.1154 64.5907C52.9423 63.4366 53.0577 62.3402 53.0577 61.1861C53 54.7232 53 48.2026 53 41.6243ZM69.3881 19.2349C68.7534 19.2349 68.1186 19.2349 67.4839 19.2349C66.9068 19.2349 66.6183 19.5234 66.5606 20.1004C66.5606 20.2736 66.5606 20.4467 66.5606 20.6775C66.5606 27.1981 66.5606 33.7187 66.5606 40.2394C66.5606 40.5856 66.5606 40.9895 66.6183 41.3357C66.676 41.8551 67.0222 42.2013 67.5416 42.1436C68.7534 42.0282 69.9652 42.3744 71.177 42.2013C71.8117 42.1436 72.5042 42.0859 73.0812 41.7974C75.4471 40.701 76.9474 38.739 77.8707 36.4309C78.8517 33.8918 79.0248 31.2374 78.794 28.5253C78.6209 26.3902 78.2169 24.2552 76.9474 22.4663C76.1396 21.3699 75.2163 20.5044 73.9468 19.985C72.5042 19.4657 71.0038 19.1195 69.3881 19.2349Z" fill="black"/>
<path d="M237.713 67.0143C235.693 67.0143 233.673 67.0143 231.711 67.0143C230.961 67.0143 230.557 66.7258 230.211 66.091C228.768 63.1481 227.383 60.1475 226.056 57.1468C225.537 55.9927 224.96 54.8386 224.383 53.6268C224.21 53.2229 223.863 53.0498 223.459 53.0498C220.055 52.7036 216.939 51.6649 213.996 49.9337C213.361 49.5875 212.9 49.0682 212.322 48.6065C211.515 48.0295 211.168 48.0872 210.822 49.0105C209.668 51.7803 208.629 54.6078 207.937 57.5508C207.302 60.1475 207.129 62.7442 207.302 65.3986C207.302 65.5717 207.302 65.7448 207.36 65.9756C207.36 66.7835 207.129 67.072 206.379 67.072C205.398 67.1297 204.359 67.072 203.378 67.072C202.686 67.072 201.936 67.072 201.243 67.072C200.897 67.072 200.608 67.072 200.32 66.8989C199.801 66.6681 199.685 66.3219 200.031 65.8602C201.243 64.0137 202.34 62.1094 203.436 60.2629C204.359 58.6471 205.109 56.9737 205.975 55.358C207.244 52.9921 208.341 50.5108 209.553 48.0872C210.014 47.1062 210.014 46.2983 209.149 45.4328C206.956 43.1246 205.629 40.2971 204.879 37.2387C204.071 34.065 203.898 30.8335 204.648 27.602C205.052 25.7555 205.686 23.9666 206.494 22.2932C207.244 20.7929 208.283 19.4657 209.38 18.1385C210.88 16.2919 212.9 14.9647 214.804 13.5221C215.381 13.1182 216.073 12.8874 216.766 12.6565C219.016 11.791 221.324 11.0985 223.748 11.0408C225.652 10.9831 227.614 10.9254 229.518 11.3293C231.827 11.8487 234.135 12.368 236.212 13.6952C239.097 15.5418 241.521 17.85 243.368 20.7352C245.907 24.7745 246.83 29.2178 246.426 33.8918C246.195 36.4886 245.56 39.0853 244.291 41.3934C243.425 43.0669 242.444 44.6826 241.002 46.0098C240.598 46.356 240.252 46.8177 239.905 47.2216C239.501 47.6256 239.097 47.9718 238.636 48.2603C237.828 48.7796 237.655 49.3567 238.059 50.2223C238.924 52.0688 239.79 53.9731 240.655 55.8196C241.752 58.2432 242.906 60.6091 244.06 62.975C244.464 63.8406 244.753 64.7638 245.214 65.5717C245.618 66.2642 245.156 66.9566 244.349 66.9566C241.867 67.0143 239.79 67.0143 237.713 67.0143ZM225.71 13.0605C221.959 13.0028 219.94 13.4067 216.823 14.7916C215.727 15.3109 214.746 16.0034 213.765 16.6959C211.399 18.3116 209.783 20.5044 208.399 22.928C207.244 24.9476 206.667 27.1981 206.321 29.5063C205.917 32.103 206.263 34.6997 206.956 37.181C207.591 39.4892 208.803 41.5666 210.13 43.5285C210.591 44.221 211.053 44.221 211.399 43.4708C211.688 42.9515 211.803 42.3167 212.092 41.7974C213.938 37.8158 215.9 33.8918 217.689 29.9102C219.074 26.8519 220.632 23.7935 221.959 20.7352C222.075 20.4467 222.248 20.1581 222.421 19.9273C222.882 19.2349 223.402 19.2349 223.806 19.985C224.094 20.5044 224.267 21.1391 224.498 21.6585C225.075 22.928 225.71 24.1975 226.287 25.467C227.326 27.7174 228.422 30.0256 229.461 32.2761C230.615 34.9305 232 37.5849 233.154 40.2394C233.962 42.1436 234.943 43.9325 235.693 45.8367C236.097 46.8754 236.732 46.9908 237.539 46.1829C239.444 44.3941 241.002 42.3744 242.156 40.0085C242.848 38.5082 243.425 36.9502 243.772 35.2768C244.81 29.6794 243.425 24.6591 240.078 20.1581C239.79 19.8119 239.559 19.408 239.271 19.0617C238.174 17.7922 236.847 16.869 235.52 15.9457C233.789 14.7916 231.884 14.0991 229.98 13.4644C228.422 13.0605 226.922 13.0028 225.71 13.0605ZM221.555 50.5108C222.479 50.5685 222.709 50.2223 222.536 49.5298C222.479 49.3567 222.421 49.2413 222.363 49.0682C220.92 46.0098 219.362 42.9515 218.035 39.8354C217.747 39.2007 217.343 38.5659 217.227 37.8735C217.17 37.5849 216.997 37.2964 216.65 37.2387C216.304 37.181 216.073 37.4695 215.958 37.7581C215.9 37.8158 215.9 37.8735 215.842 37.9889C214.804 40.2394 213.765 42.4898 212.726 44.7403C212.322 45.6636 212.438 45.8944 213.188 46.5292C214.227 47.3947 215.381 48.0295 216.477 48.6642C218.093 49.7029 219.94 50.0491 221.555 50.5108Z" fill="black"/>
<path d="M174.411 36.0847C174.411 39.9509 174.411 43.8171 174.411 47.6833C174.411 49.4722 174.526 51.261 174.699 53.0499C174.93 55.1272 175.622 57.0892 176.603 58.878C177.296 60.0898 178.277 61.1285 179.489 61.9941C181.854 63.7252 184.509 63.7252 187.221 63.6098C188.029 63.5521 188.837 63.379 189.645 63.2059C191.087 62.8596 192.241 61.9941 193.338 60.9554C195.415 59.0511 196.396 56.5698 196.915 53.8577C197.319 51.5495 197.435 49.2414 197.435 46.9332C197.435 44.0479 197.435 41.105 197.435 38.2198C197.435 34.5844 197.031 30.949 196.569 27.3136C196.338 25.4093 195.819 23.5051 195.357 21.6585C195.242 21.1969 195.069 20.6775 195.184 20.1582C195.3 19.6389 195.531 19.3503 196.108 19.3503C197.608 19.3503 199.108 19.3503 200.609 19.3503C201.416 19.3503 201.763 19.7543 201.589 20.6198C201.532 20.9084 201.474 21.2546 201.359 21.5431C200.378 24.0821 200.147 26.7942 199.801 29.4487C198.993 35.8539 199.166 42.2591 199.166 48.6643C199.166 51.3187 198.935 53.9154 198.012 56.4544C196.858 59.8013 194.896 62.4557 191.722 64.2446C190.279 65.0524 188.721 65.4564 187.106 65.8603C183.932 66.6682 180.7 66.7259 177.527 66.4373C175.334 66.2065 173.083 65.918 171.006 65.1101C167.948 63.8983 165.178 62.1095 163.504 59.2243C162.523 57.4931 161.542 55.7043 161.312 53.6846C161.081 51.7804 160.908 49.8761 160.908 47.9718C160.908 40.4125 160.908 32.7955 160.908 25.2362C160.908 23.7936 160.908 22.4087 160.908 20.9661C160.908 19.6966 161.196 19.408 162.466 19.408C166.043 19.408 169.621 19.408 173.199 19.408C174.064 19.408 174.411 19.6389 174.468 20.5621C174.526 21.3123 174.468 22.0625 174.468 22.7549C174.353 27.1982 174.353 31.6414 174.411 36.0847C174.353 36.0847 174.353 36.0847 174.411 36.0847Z" fill="black"/>
<path d="M144.52 43.8171C144.52 50.7416 144.52 57.6085 144.52 64.533C144.52 65.9756 144.058 66.3219 142.558 66.2642C139.326 66.1488 136.037 66.1488 132.806 66.2642C132.748 66.2642 132.69 66.2642 132.632 66.2642C131.132 66.3796 130.728 66.0333 130.728 64.4753C130.728 51.0301 130.728 37.5849 130.728 24.1398C130.728 23.6781 130.786 23.2165 130.786 22.8126C130.844 21.947 130.382 21.4854 129.574 21.5431C128.016 21.6585 126.573 22.0624 125.246 22.9857C124.438 23.5627 123.688 24.1398 122.938 24.7168C121.669 25.6978 120.745 27.025 119.591 28.0637C119.36 28.2945 119.13 28.6984 118.726 28.4676C118.322 28.2945 118.322 27.8329 118.379 27.4866C118.552 25.9286 118.726 24.3129 118.899 22.7549C118.956 22.2355 119.072 21.7162 119.13 21.1968C119.245 20.1004 119.476 19.8119 120.63 19.7542C121.265 19.6965 121.899 19.8119 122.534 19.8119C124.958 19.8119 127.381 19.6965 129.805 19.6965C133.383 19.7542 137.018 19.8119 140.596 19.7542C143.308 19.6965 145.962 19.6388 148.674 19.6965C150.694 19.7542 152.714 19.6388 154.676 19.6965C155.195 19.6965 155.541 19.8696 155.772 20.3313C155.945 20.6775 156.06 21.0237 156.06 21.3699C156.176 23.2165 156.522 25.0053 156.811 26.7942C156.868 27.1404 156.926 27.4866 156.868 27.8329C156.753 28.4676 156.349 28.6407 155.772 28.2945C155.599 28.1791 155.426 28.006 155.253 27.7752C153.695 25.9863 151.963 24.3129 150.002 22.9857C148.732 22.1201 147.289 21.6008 145.731 21.4276C144.866 21.3122 144.404 21.7162 144.404 22.6972C144.52 29.7371 144.52 36.7771 144.52 43.8171Z" fill="black"/>
<path d="M262.064 42.4899C262.064 49.3567 262.064 56.1659 262.064 63.0327C262.064 64.4753 262.41 64.7638 263.795 64.5907C266.276 64.3022 268.469 63.3789 270.546 62.0517C272.335 60.8976 273.951 59.5704 275.567 58.1855C275.74 58.0124 275.913 57.7816 276.028 57.5508C276.317 57.0891 276.721 56.916 277.24 57.0891C277.759 57.2622 277.702 57.7239 277.586 58.1278C277.009 60.436 276.894 62.8019 276.259 65.1101C276.086 65.9179 275.567 66.2642 274.701 66.2642C271.585 66.2642 268.527 66.2642 265.411 66.2642C260.621 66.2642 255.774 66.2642 250.984 66.2642C250.465 66.2642 250.003 66.2642 249.484 66.2642C248.734 66.2065 248.388 65.9179 248.388 65.1101C248.33 64.3022 248.33 63.4943 248.33 62.6288C248.33 57.2045 248.388 51.7803 248.388 46.4138C248.388 43.8171 248.33 41.2203 248.33 38.6813C248.33 36.6617 248.445 34.642 248.445 32.5647C248.445 29.4486 248.445 26.3903 248.445 23.2742C248.445 22.6972 248.388 22.1201 248.33 21.5431C248.272 20.3313 248.734 19.9273 249.888 19.9273C253.581 19.8119 257.274 20.0427 260.967 19.8696C261.429 19.8696 261.66 20.0427 261.833 20.389C262.006 20.8506 262.064 21.3122 262.064 21.7739C262.064 28.6407 262.064 35.5653 262.064 42.4899Z" fill="black"/>
<path d="M112.32 43.0092C112.32 50.1646 112.32 57.2623 112.32 64.4176C112.32 64.7062 112.32 65.0524 112.262 65.3409C112.147 65.9179 111.743 66.3219 111.166 66.2642C109.146 66.0911 107.127 66.2065 105.049 66.2065C103.261 66.2065 101.472 66.0334 99.6828 66.3219C99.1058 66.3796 98.8172 66.0334 98.6441 65.5717C98.5864 65.1678 98.5864 64.8216 98.5864 64.4176C98.5864 51.0879 98.5864 37.7581 98.5864 24.3706C98.5864 23.2742 98.6441 22.2355 98.6441 21.1391C98.5864 20.0428 99.1635 19.6388 100.318 19.7542C100.952 19.8119 101.645 19.8119 102.28 19.8119C104.53 19.7542 106.838 19.8696 109.089 19.7542C109.839 19.6965 110.589 19.8696 111.397 19.6965C111.916 19.5811 112.147 19.9851 112.32 20.389C112.436 20.6775 112.436 21.0237 112.436 21.3123C112.32 28.583 112.32 35.7961 112.32 43.0092Z" fill="black"/>
<path d="M150.29 84.3256C150.29 83.4601 150.29 82.6522 150.29 81.7866C150.29 81.2096 150.463 80.8056 151.098 80.6902C151.906 80.4594 152.425 80.6325 152.771 81.2096C153.06 81.6712 153.175 82.1328 153.233 82.6522C153.348 83.2869 153.464 83.9217 153.637 84.6141C153.695 84.7873 153.695 85.0181 153.925 85.0181C154.156 85.0758 154.214 84.845 154.329 84.6718C154.676 84.0948 154.733 83.4023 154.849 82.7676C154.906 82.4791 154.964 82.1906 155.022 81.902C155.31 80.7479 156.06 80.4017 157.157 80.7479C157.734 80.921 157.849 81.3827 157.849 81.902C157.849 82.8253 157.849 83.8063 157.849 84.7296C157.849 85.4797 157.849 86.2299 157.849 86.9223C157.849 87.2686 157.792 87.5571 157.618 87.8456C157.388 88.1918 157.099 88.2495 156.695 88.1918C156.349 88.1341 156.176 87.8456 156.118 87.5571C156.06 87.0377 156.003 86.5761 155.945 86.0568C155.945 85.8259 155.887 85.5951 155.599 85.5951C155.31 85.5951 155.253 85.8259 155.195 85.9991C155.137 86.2876 155.079 86.5761 155.079 86.8646C155.022 87.2686 154.964 87.6148 154.676 87.9033C154.387 88.1918 154.098 88.4227 153.637 88.365C153.233 88.2495 153.002 87.961 152.944 87.5571C152.771 86.8646 152.771 86.1722 152.483 85.4797C152.425 85.3066 152.367 85.1335 152.31 84.9604C152.194 84.6718 152.021 84.6718 151.848 84.9604C151.675 85.3066 151.675 85.6528 151.675 86.0568C151.675 86.5761 151.675 87.0377 151.675 87.5571C151.675 87.9033 151.444 88.1918 151.04 88.2495C150.636 88.3072 150.405 88.0187 150.29 87.6725C150.001 86.8646 150.175 86.0568 150.175 85.2489C150.175 84.9604 150.232 84.6718 150.232 84.3833C150.348 84.3256 150.29 84.3256 150.29 84.3256Z" fill="black"/>
<path d="M176.776 84.2681C176.949 85.1914 176.488 86.0569 176.026 86.8648C175.218 88.2497 173.949 88.5959 172.506 88.3651C171.237 88.192 170.256 87.4419 169.736 86.1724C169.159 84.7874 169.275 83.4025 169.852 82.0753C170.429 80.7481 172.391 79.998 173.891 80.3442C175.391 80.7481 176.892 82.2484 176.776 84.2681ZM174.987 84.2681C174.987 83.7488 174.93 83.2871 174.757 82.8832C174.468 82.1907 173.891 81.8445 173.141 81.7868C172.448 81.7868 171.814 81.9022 171.525 82.537C171.121 83.5179 171.006 84.6143 171.41 85.5953C171.641 86.1724 172.102 86.7494 172.91 86.6917C173.603 86.6917 174.237 86.5763 174.584 85.8838C174.814 85.4222 174.93 84.7874 174.987 84.2681Z" fill="black"/>
<path d="M161.658 84.2678C161.427 81.5557 163.908 80.1131 165.639 80.2862C166.678 80.4016 167.37 81.0363 168.063 81.6711C168.409 82.0173 168.294 82.7098 167.947 82.9406C167.428 83.2868 167.14 82.9983 166.851 82.5944C166.332 81.8442 165.582 81.6711 164.831 81.8442C164.081 82.0173 163.793 82.7098 163.677 83.4022C163.562 84.037 163.504 84.6717 163.62 85.3065C163.793 86.0566 164.254 86.576 165.062 86.6914C165.812 86.8068 166.332 86.4606 166.736 85.8835C166.793 85.7681 166.909 85.6527 166.966 85.5373C167.197 85.1911 167.486 85.0757 167.832 85.1911C168.178 85.3642 168.294 85.6527 168.236 86.0567C168.178 86.8645 167.255 87.8455 166.447 88.134C163.966 89.0573 161.484 86.9222 161.658 84.5563C161.658 84.4986 161.658 84.3832 161.658 84.2678Z" fill="black"/>
<path d="M134.421 84.4412C134.421 83.6333 134.421 82.8254 134.421 81.9599C134.421 81.0366 134.767 80.6327 135.691 80.6327C136.672 80.575 137.71 80.575 138.691 80.575C138.922 80.575 139.153 80.6327 139.384 80.7481C139.615 80.8635 139.788 81.0366 139.73 81.3251C139.73 81.6136 139.557 81.729 139.326 81.8445C138.922 82.0176 138.461 82.0176 137.999 81.9599C137.653 81.9022 137.249 81.9022 136.903 82.0176C136.556 82.133 136.325 82.3638 136.268 82.7677C136.268 83.1717 136.499 83.4025 136.845 83.5179C137.133 83.6333 137.422 83.6333 137.71 83.6333C137.999 83.6333 138.345 83.5756 138.634 83.6333C139.095 83.691 139.268 84.0372 139.268 84.4989C139.268 84.9605 138.98 85.1913 138.576 85.1913C138.23 85.249 137.826 85.1913 137.48 85.1913C136.614 85.249 136.268 85.5953 136.21 86.4608C136.21 86.7494 136.21 87.0379 136.21 87.3264C136.152 87.9034 135.806 88.3074 135.345 88.3074C134.883 88.3074 134.364 87.9034 134.364 87.3841C134.306 86.6916 134.364 85.9992 134.364 85.3067C134.421 85.0182 134.421 84.7297 134.421 84.4412Z" fill="black"/>
<path d="M143.885 84.4989C143.885 83.691 143.885 82.8831 143.885 82.0176C143.885 81.0943 144.231 80.575 144.808 80.575C145.327 80.575 145.616 81.0943 145.616 81.9599C145.616 83.0563 145.616 84.1526 145.616 85.3067C145.616 85.5953 145.616 85.8261 145.674 86.1146C145.789 86.6916 146.078 86.9225 146.712 86.8648C147.232 86.8071 147.751 86.7493 148.27 86.8071C148.732 86.8648 149.194 87.0379 149.251 87.5572C149.309 87.9611 148.847 88.3074 148.27 88.3651C147.636 88.4228 146.943 88.5382 146.308 88.3074C146.02 88.192 145.674 88.3074 145.385 88.3651C144.52 88.4805 143.942 88.0188 143.942 87.0956C143.885 86.23 143.885 85.3644 143.885 84.4989Z" fill="black"/>
<path d="M142.673 84.5566C142.673 85.4221 142.673 86.23 142.673 87.0956C142.673 87.8457 142.385 88.1919 141.865 88.2496C141.288 88.3074 140.884 87.9611 140.826 87.211C140.769 85.4221 140.769 83.5756 140.826 81.729C140.826 81.152 141.288 80.748 141.865 80.748C142.385 80.748 142.673 81.0943 142.673 81.729C142.673 82.6523 142.615 83.6333 142.673 84.5566C142.615 84.5566 142.615 84.5566 142.673 84.5566Z" fill="black"/>
<path d="M179.431 87.3839C179.431 87.9033 179.142 88.1918 178.623 88.2495C178.104 88.2495 177.7 87.961 177.7 87.4993C177.7 87.0377 178.046 86.6338 178.565 86.5761C179.027 86.5184 179.431 86.9223 179.431 87.3839Z" fill="black"/>
</svg>
