<svg width="438" height="132" viewBox="0 0 438 132" fill="none" xmlns="http://www.w3.org/2000/svg">
<path d="M35.2639 41.1143C34.8312 43.2657 34.5068 45.4171 34.0741 47.461C32.8843 53.7001 31.5863 59.8317 30.2884 65.9633C29.6394 69.0829 28.9904 72.0948 28.3414 75.2144C28.2332 76.075 27.9087 76.3977 26.9353 76.3977C24.6638 76.2901 22.3924 76.3977 20.2291 76.3977C19.0393 76.3977 19.0393 76.3977 18.6066 75.2144C16.7678 68.6526 14.8209 61.9831 12.9821 55.4213C10.7106 47.461 8.4392 39.3931 6.16775 31.4329C6.05959 31.1101 5.95143 30.6799 5.84326 30.3571C6.16775 30.142 6.60041 30.142 6.9249 30.142C9.73717 30.142 12.4413 30.142 15.2535 30.142C16.0107 30.142 16.3352 30.3571 16.5515 31.1101C17.8495 36.8114 19.1474 42.5127 20.5536 48.1064C21.7434 53.1623 22.9332 58.3257 23.7985 63.7043C24.6638 59.2939 25.5291 55.0986 26.2863 50.7957C27.3679 45.3096 28.4496 39.8234 29.5312 34.3373C29.7475 33.154 30.072 31.9707 30.1802 30.7874C30.2883 30.2496 30.5047 30.0344 31.1537 30.0344C34.0741 30.0344 36.9945 30.0344 39.915 30.0344C40.7803 30.0344 40.8884 30.5723 40.9966 31.1101C42.5109 38.2099 44.0252 45.202 45.4313 52.3017C46.1885 55.8516 46.8375 59.4014 47.5946 63.1664C48.0273 62.4134 48.0273 61.768 48.1354 61.1226C49.9742 52.3017 52.1375 43.5884 54.0845 34.8751C54.4089 33.5843 54.7334 32.2934 54.9498 31.0026C55.0579 30.2496 55.3824 30.0344 56.1396 30.0344C58.7355 30.0344 61.3314 30.0344 64.0355 30.0344C65.1172 30.0344 65.2254 30.0344 64.9009 31.1101C62.9539 37.9947 61.007 44.7717 59.06 51.6563C56.7886 59.509 54.5171 67.3617 52.3538 75.1069C51.9212 76.5053 52.2457 76.3977 50.6232 76.3977C48.2436 76.3977 45.9721 76.3977 43.5925 76.3977C42.8354 76.3977 42.4027 76.1826 42.2946 75.322C40.8884 68.545 39.5905 61.768 38.0762 55.0986C37.2109 50.473 36.3455 45.7399 35.2639 41.1143Z" fill="black"/>
<path d="M121.687 53.2699C121.687 45.955 121.687 38.5326 121.687 31.2177C121.687 30.0344 121.687 30.0344 122.877 30.0344C129.259 30.0344 135.532 30.0344 141.914 30.0344C144.726 30.0344 147.538 30.4647 150.242 31.4329C153.271 32.6161 155.543 34.66 157.381 37.2417C159.436 40.2537 160.41 43.5884 160.951 47.1383C161.708 51.8714 161.492 56.7121 160.194 61.3377C159.22 64.9951 157.706 68.3299 155.11 71.1267C152.189 74.2463 148.62 75.9674 144.402 76.2901C137.155 76.828 129.908 76.3977 122.552 76.5053C121.579 76.5053 121.687 75.9674 121.687 75.322C121.687 67.8996 121.687 60.5847 121.687 53.2699ZM131.314 53.2699C131.314 57.8954 131.314 62.6286 131.314 67.2541C131.314 68.0071 131.422 68.3299 132.287 68.3299C134.883 68.2223 137.479 68.3299 140.183 68.3299C141.481 68.3299 142.779 68.2223 144.077 67.792C147.106 66.6087 148.945 64.3497 150.026 61.3377C151.973 55.744 151.865 50.0427 150.242 44.449C149.377 41.3294 147.322 39.2856 144.077 38.6401C143.104 38.425 142.022 38.3174 141.049 38.3174C138.128 38.3174 135.316 38.3174 132.395 38.3174C131.314 38.3174 131.314 38.3174 131.314 39.3931C131.314 43.9111 131.314 48.5367 131.314 53.2699Z" fill="black"/>
<path d="M352.401 53.1622C352.401 45.8473 352.401 38.64 352.401 31.3252C352.401 29.9268 352.401 29.9268 353.699 29.9268C364.299 29.9268 374.791 29.9268 385.391 29.9268C386.797 29.9268 386.797 29.9268 386.797 31.2176C386.797 33.1539 386.797 35.0902 386.797 36.9189C386.797 38.2098 386.797 38.2098 385.499 38.2098C378.144 38.2098 370.897 38.2098 363.542 38.2098C363.217 38.2098 363.001 38.2098 362.676 38.2098C362.244 38.2098 362.027 38.4249 362.027 38.8552C362.027 41.652 362.027 44.4489 362.027 47.2458C362.027 47.7836 362.244 47.9988 362.785 47.9988C363.109 47.9988 363.325 47.9988 363.65 47.9988C370.248 47.9988 376.846 47.9988 383.336 47.9988C384.742 47.9988 384.742 47.9988 384.742 49.3972C384.742 51.1183 384.742 52.947 384.742 54.6682C384.742 56.0666 384.742 56.0666 383.228 56.0666C376.63 56.0666 370.032 56.0666 363.434 56.0666C362.027 56.0666 362.027 56.0666 362.027 57.5726C362.027 60.6922 362.027 63.8118 362.027 66.9313C362.027 68.007 362.027 68.007 363.217 68.007C370.897 68.007 378.577 68.007 386.256 68.007C386.581 68.007 386.905 68.007 387.23 68.007C387.771 68.007 387.987 68.2222 387.987 68.76C387.987 71.019 387.987 73.278 387.987 75.537C387.987 76.0749 387.771 76.29 387.23 76.29C387.013 76.29 386.689 76.29 386.473 76.29C375.872 76.29 365.272 76.29 354.672 76.29C352.509 76.29 352.509 76.29 352.509 74.1386C352.401 67.254 352.401 60.1543 352.401 53.1622Z" fill="black"/>
<path d="M425.087 43.9111C423.789 43.9111 422.491 43.9111 421.193 43.9111C420.545 43.9111 420.328 43.696 420.22 43.1581C419.896 40.2537 418.057 38.5326 415.353 37.5644C412.324 36.4887 409.295 36.4887 406.267 37.5644C405.51 37.7796 404.861 38.2099 404.212 38.6401C401.832 40.2537 401.508 44.8793 404.753 46.2777C406.591 47.0307 408.538 47.461 410.485 47.9989C414.812 49.0746 419.138 49.8276 423.357 51.3336C428.657 53.2699 431.253 57.1424 431.361 62.6286C431.469 68.8677 428.332 72.9554 422.924 75.5371C418.814 77.581 414.379 77.7961 409.836 77.4734C406.375 77.2583 403.022 76.5053 399.993 74.7841C395.991 72.5251 393.395 69.1904 392.746 64.4573C392.638 63.9194 392.638 63.3816 392.53 62.8437C392.422 62.3059 392.638 61.9831 393.287 61.9831C395.991 61.9831 398.587 61.9831 401.291 61.9831C401.94 61.9831 402.048 62.4134 402.157 62.9513C402.697 66.0709 404.428 68.2223 407.565 69.0829C408.646 69.298 409.62 69.5131 410.702 69.5131C412.757 69.5131 414.812 69.5131 416.759 69.0829C418.165 68.7601 419.463 68.2223 420.436 67.1466C421.842 65.7481 422.059 64.027 421.734 62.1983C421.518 60.9074 420.544 60.262 419.463 59.6166C417.408 58.6484 415.244 58.003 413.081 57.5727C408.755 56.6046 404.428 55.9591 400.318 54.238C395.883 52.4093 393.72 48.967 393.395 44.2339C393.287 41.7597 393.395 39.178 394.585 36.919C396.748 32.8313 400.101 30.3571 404.536 29.2814C408.106 28.4209 411.675 28.0981 415.136 28.7436C419.896 29.4966 424.114 31.3253 427.143 35.3054C428.873 37.4569 429.522 40.0386 429.738 42.8354C429.847 43.5884 429.522 43.8036 428.873 43.8036C427.683 43.8036 426.385 43.9111 425.087 43.9111Z" fill="black"/>
<path d="M298.535 76.3976C297.021 76.3976 295.615 76.3976 294.1 76.3976C293.451 76.3976 293.235 76.1825 293.019 75.537C292.262 72.9553 291.288 70.3736 290.531 67.7919C290.315 67.1465 289.99 66.8238 289.341 66.8238C284.257 66.8238 279.174 66.8238 274.198 66.8238C273.441 66.8238 273.008 67.0389 272.792 67.7919C272.035 70.266 271.17 72.8478 270.304 75.3219C270.088 76.0749 269.763 76.29 269.006 76.29C266.302 76.29 263.598 76.29 260.894 76.29C259.704 76.29 259.704 76.29 260.137 75.1068C263.814 64.995 267.384 54.9909 271.061 44.8792C272.792 40.146 274.415 35.5205 276.145 30.7873C276.361 30.1419 276.686 29.9268 277.443 29.9268C280.472 29.9268 283.392 29.9268 286.421 29.9268C287.286 29.9268 287.719 30.1419 288.043 31.0025C290.423 37.7795 292.911 44.5565 295.29 51.3335C297.994 58.971 300.807 66.6086 303.511 74.3538C304.268 76.5052 304.592 76.29 302.213 76.29C300.807 76.3976 299.617 76.3976 298.535 76.3976ZM281.662 40.899C281.229 42.1899 280.904 43.2656 280.472 44.3413C278.957 48.7518 277.551 53.2698 276.037 57.6802C275.712 58.7559 275.712 58.7559 276.794 58.7559C278.633 58.7559 280.472 58.7559 282.311 58.7559C283.825 58.7559 285.231 58.7559 286.745 58.7559C287.286 58.7559 287.502 58.5408 287.286 58.0029C287.178 57.7878 287.178 57.6802 287.178 57.465C285.772 53.1622 284.366 48.8593 282.959 44.5565C282.635 43.5883 282.31 42.2975 281.662 40.899Z" fill="black"/>
<path d="M186.91 53.1623C186.91 45.955 186.91 38.6401 186.91 31.4329C186.91 30.0344 186.91 30.0344 188.316 30.0344C194.481 30.0344 200.539 30.0344 206.704 30.0344C209.3 30.0344 211.788 30.3571 214.167 31.3253C218.278 32.9389 220.765 35.8433 221.739 40.0386C222.604 43.9111 222.496 47.6761 221.306 51.4411C219.9 56.1743 216.222 58.3257 211.68 59.2939C209.841 59.7241 208.002 59.8317 206.163 59.8317C203.351 59.8317 200.539 59.8317 197.726 59.8317C196.861 59.8317 196.645 60.1544 196.645 60.9074C196.645 65.533 196.645 70.2661 196.645 74.8917C196.645 75.2144 196.645 75.4296 196.645 75.7523C196.645 76.1826 196.428 76.3977 195.996 76.3977C193.183 76.3977 190.371 76.3977 187.559 76.3977C187.018 76.3977 186.802 76.1826 186.802 75.6447C186.802 75.322 186.802 75.1069 186.802 74.7841C186.91 67.5769 186.91 60.3696 186.91 53.1623ZM196.753 44.9869C196.753 46.9231 196.753 48.967 196.753 50.9033C196.753 51.4411 196.861 51.7639 197.51 51.7639C200.322 51.7639 203.135 51.8714 205.947 51.7639C209.624 51.5487 212.112 49.9351 212.545 45.8474C212.653 44.449 212.545 43.1581 212.112 41.8673C211.68 40.5764 210.922 39.7159 209.733 39.0704C208.651 38.5326 207.461 38.2099 206.271 38.2099C203.459 38.2099 200.647 38.2099 197.835 38.2099C197.077 38.2099 196.753 38.425 196.861 39.178C196.753 41.1143 196.753 43.0506 196.753 44.9869Z" fill="black"/>
<path d="M340.828 44.7719C339.638 44.7719 338.34 44.7719 337.15 44.7719C336.285 44.7719 335.852 44.5568 335.636 43.6962C335.203 42.0826 334.446 40.6842 333.364 39.5009C332.066 38.1025 330.552 37.3495 328.713 37.0268C325.36 36.3813 322.115 36.7041 319.411 39.0706C317.356 40.8993 316.166 43.2659 315.517 45.8476C314.435 50.4732 314.327 55.0988 315.517 59.7243C316.382 63.059 318.113 65.8559 321.142 67.577C322.115 68.1149 323.197 68.4376 324.387 68.5452C326.55 68.6528 328.713 68.4376 330.768 67.4695C333.364 66.1786 334.662 63.812 335.527 61.2303C336.068 59.6168 335.852 59.8319 337.366 59.8319C339.746 59.8319 342.017 59.8319 344.397 59.8319C345.695 59.8319 345.695 59.8319 345.479 61.1228C344.397 66.3938 341.693 70.6966 337.258 73.8162C333.797 76.1828 329.795 77.0433 325.685 76.9358C322.656 76.8282 319.736 76.3979 316.923 75.2146C312.056 73.0632 308.595 69.4058 306.648 64.565C304.809 60.047 304.376 55.3139 304.701 50.4732C304.917 46.9233 305.566 43.5886 306.972 40.3615C310.001 33.9072 314.868 29.7119 322.115 28.7438C327.415 27.9908 332.499 28.4211 337.258 31.2179C342.017 34.0148 344.938 38.3176 345.695 43.8038C345.803 44.6643 345.479 44.7719 344.721 44.7719C343.423 44.6643 342.126 44.7719 340.828 44.7719Z" fill="black"/>
<path d="M85.7764 53.1622C85.7764 45.8473 85.7764 38.4249 85.7764 31.11C85.7764 29.9268 85.7764 29.9268 86.9662 29.9268C89.4539 29.9268 91.9417 29.9268 94.5377 29.9268C95.2948 29.9268 95.6193 30.1419 95.6193 31.0025C95.6193 34.7675 95.6193 38.5325 95.6193 42.2975C95.6193 50.5805 95.6193 58.8635 95.6193 67.0389C95.6193 68.007 96.052 68.007 96.8091 68.007C103.299 68.007 109.789 68.007 116.17 68.007C117.468 68.007 117.468 68.007 117.468 69.2979C117.468 71.3418 117.468 73.3856 117.468 75.3219C117.468 76.0749 117.252 76.3976 116.495 76.3976C106.544 76.3976 96.7009 76.3976 86.7498 76.3976C85.7764 76.3976 85.7764 76.3976 85.7764 75.2143C85.7764 67.8995 85.7764 60.5846 85.7764 53.1622Z" fill="black"/>
<path d="M227.796 53.1622C227.796 45.8473 227.796 38.5325 227.796 31.2176C227.796 29.9268 227.796 29.9268 229.094 29.9268C231.474 29.9268 233.854 29.9268 236.341 29.9268C237.747 29.9268 237.747 29.9268 237.747 31.2176C237.747 37.9946 237.747 44.7716 237.747 51.441C237.747 56.4969 237.747 61.5528 237.747 66.6086C237.747 67.8995 237.747 67.8995 238.937 67.8995C244.778 67.8995 250.727 67.8995 256.568 67.8995C257.866 67.8995 257.866 67.8995 257.866 69.1903C257.866 71.2342 257.866 73.278 257.866 75.2143C257.866 75.9673 257.65 76.1825 256.893 76.1825C247.59 76.1825 238.288 76.1825 228.986 76.1825C228.013 76.1825 227.905 76.1825 227.905 74.9992C227.796 67.8995 227.796 60.477 227.796 53.1622Z" fill="black"/>
<path d="M63.8193 63.1662C63.8193 61.3375 64.3602 59.0785 65.2255 56.9271C66.4153 54.2378 68.0377 51.7636 69.552 49.2895C70.3092 47.9986 71.0663 46.7078 71.499 45.2018C72.3643 42.7276 71.6072 40.4686 70.7418 38.1021C70.201 36.8112 69.3357 35.8431 68.4704 34.8749C67.4969 33.5841 67.3888 32.2932 68.2541 31.0023C69.1194 29.7115 70.4173 29.1736 71.9316 29.2812C73.3378 29.4963 74.3112 30.2493 75.2847 31.2175C78.4215 34.5522 80.2603 38.4248 80.3684 42.9428C80.4766 46.1699 79.6113 49.0743 78.2052 51.8712C77.1235 53.8075 75.9337 55.7438 74.7439 57.5725C74.0949 58.6482 73.4459 59.8315 73.0133 61.0148C71.8235 64.3495 72.4725 67.4691 74.4194 70.2659C74.8521 70.9113 75.3929 71.4492 75.8255 72.0946C76.799 73.3855 76.9072 74.5688 76.0419 75.9672C75.2847 77.1505 73.6623 77.9035 72.3643 77.5808C71.3908 77.3656 70.6337 76.9353 69.8765 76.3975C66.1989 73.6006 63.8193 68.4372 63.8193 63.1662Z" fill="black"/>
<path d="M282.635 91.5653C282.635 93.5016 282.635 95.4379 282.635 97.3742C282.635 99.0953 282.635 100.816 282.635 102.538C282.635 103.613 282.635 103.613 281.554 103.613C280.905 103.613 280.58 103.506 280.58 102.645C280.58 98.2348 280.58 93.7168 280.58 89.3063C280.58 88.123 280.58 88.123 281.77 88.123C283.609 88.123 283.717 88.123 284.258 89.8442C285.447 93.1789 286.529 96.5136 287.719 99.8483C287.827 100.171 287.935 100.386 288.152 100.924C288.476 99.9559 288.801 99.0953 289.125 98.2348C290.207 95.1152 291.288 92.1032 292.262 88.9836C292.478 88.3382 292.803 88.123 293.56 88.123C295.723 88.123 295.723 88.123 295.723 90.1669C295.723 94.2546 295.723 98.3423 295.723 102.538C295.723 103.506 294.858 104.044 293.992 103.506C293.56 103.291 293.668 102.86 293.668 102.538C293.668 99.2029 293.668 95.8682 293.668 92.5335C293.668 92.2108 293.668 91.7805 293.668 91.3502C293.343 91.5653 293.343 91.888 293.235 92.1032C292.046 95.653 290.748 99.2029 289.666 102.753C289.45 103.613 288.909 103.613 288.152 103.721C287.394 103.721 287.07 103.506 286.854 102.753C285.664 99.2029 284.474 95.7606 283.284 92.2108C283.176 91.9956 283.176 91.7805 283.068 91.5653C282.743 91.5653 282.743 91.5653 282.635 91.5653Z" fill="black"/>
<path d="M336.717 100.171C336.825 97.1588 336.825 94.1468 336.717 91.1348C336.717 90.4894 336.826 89.844 336.826 89.1986C336.826 88.4456 337.042 88.1228 337.799 88.2304C338.881 88.338 338.881 88.2304 338.881 89.3061C338.881 93.7166 338.881 98.0194 338.881 102.43C338.881 102.86 339.205 103.398 338.448 103.613C337.583 103.936 336.501 103.721 336.068 103.075C334.554 100.709 333.04 98.2346 331.525 95.868C330.66 94.4696 329.795 93.0711 328.93 91.7803C328.713 91.7803 328.605 91.8878 328.605 91.9954C328.605 94.2544 328.605 96.5134 328.605 98.7724C328.605 100.171 328.605 101.677 328.605 103.075C328.605 103.506 328.389 103.721 327.956 103.613C326.225 103.506 326.442 103.721 326.442 102.107C326.442 97.8043 326.442 93.609 326.442 89.3061C326.442 88.1228 326.442 88.1228 327.632 88.0153C328.605 87.9077 329.254 88.338 329.687 89.1986C331.634 92.4257 333.689 95.7604 335.744 98.9875C336.177 99.4178 336.285 99.8481 336.717 100.171Z" fill="black"/>
<path d="M100.27 91.5655C100.27 95.2229 100.27 98.8804 100.27 102.43C100.27 103.613 99.6212 104.044 98.5396 103.613C97.9988 103.398 98.2151 102.968 98.2151 102.645C98.2151 99.6333 98.2151 96.5138 98.2151 93.5018C98.2151 91.9958 98.2151 90.4898 98.2151 88.9838C98.2151 88.3384 98.4314 88.2308 98.9722 88.1232C100.27 88.0156 100.919 88.4459 101.568 89.5216C103.515 92.7488 105.57 95.9759 107.517 99.2031C107.734 99.5258 107.842 99.8485 108.274 100.171C108.491 99.8485 108.383 99.4182 108.383 99.0955C108.383 95.8684 108.383 92.5336 108.383 89.3065C108.383 88.9838 108.166 88.4459 108.599 88.3384C109.14 88.1232 109.68 88.1232 110.221 88.3384C110.546 88.4459 110.438 88.8762 110.438 89.0914C110.438 90.5974 110.438 91.9958 110.438 93.5018C110.438 96.5138 110.438 99.5258 110.438 102.538C110.438 103.613 110.438 103.613 109.356 103.721C108.383 103.829 107.842 103.506 107.301 102.645C105.138 99.2031 102.974 95.7608 100.703 92.3185C100.703 91.9958 100.703 91.6731 100.27 91.5655Z" fill="black"/>
<path d="M159.112 91.673C159.112 95.3305 159.112 98.9879 159.112 102.538C159.112 103.291 158.895 103.506 158.138 103.506C157.273 103.506 157.057 103.291 157.057 102.43C157.057 98.0198 157.057 93.5018 157.057 89.0913C157.057 88.0156 157.057 88.1232 158.138 88.0156C159.112 87.908 159.761 88.2308 160.302 89.1989C162.357 92.6412 164.412 95.9759 166.575 99.3106C166.791 99.6333 166.791 99.9561 167.332 100.171C167.332 99.7409 167.332 99.5258 167.332 99.203C167.332 95.8683 167.332 92.5336 167.332 89.1989C167.332 88.8762 167.116 88.3383 167.549 88.2308C168.089 88.0156 168.63 88.0156 169.171 88.2308C169.496 88.3383 169.387 88.7686 169.387 89.0913C169.387 91.5655 169.387 93.932 169.387 96.4062C169.387 98.45 169.387 100.494 169.387 102.538C169.387 103.291 169.171 103.506 168.414 103.613C167.332 103.721 166.791 103.291 166.251 102.43C164.195 99.0955 162.14 95.8683 160.085 92.5336C159.869 92.2109 159.653 91.9958 159.436 91.673C159.328 91.673 159.22 91.673 159.112 91.673Z" fill="black"/>
<path d="M262.841 95.7605C262.841 94.6848 263.058 93.3939 263.598 92.2106C265.437 87.8002 271.711 86.2942 275.497 89.3062C276.578 90.2744 277.335 91.4576 277.66 92.7485C278.309 95.3302 278.201 97.8044 277.011 100.171C274.956 104.151 269.331 105.334 265.654 102.538C263.49 100.924 262.841 98.5574 262.841 95.7605ZM265.113 96.0832C265.005 97.4816 265.329 98.8801 266.194 100.171C268.033 102.968 273.009 102.86 274.739 99.8482C275.713 98.2346 275.929 96.4059 275.713 94.5772C275.497 92.1031 273.658 90.0592 271.603 89.7365C268.898 89.3062 266.627 90.4895 265.654 92.7485C265.221 93.7166 265.005 94.7924 265.113 96.0832Z" fill="black"/>
<path d="M126.663 95.8681C126.663 93.6091 126.663 91.35 126.663 89.1986C126.663 88.338 126.879 88.1229 127.744 88.1229C129.367 88.2305 130.989 88.2305 132.612 88.1229C136.289 87.9078 138.561 90.3819 139.21 93.5015C139.642 95.6529 139.426 97.8043 138.561 99.8482C137.587 102.215 135.748 103.398 133.152 103.506C131.314 103.613 129.475 103.506 127.636 103.506C126.987 103.506 126.771 103.29 126.771 102.645C126.663 100.494 126.663 98.1271 126.663 95.8681ZM131.314 90.0592C130.773 90.0592 130.232 90.0592 129.691 90.0592C129.15 90.0592 128.934 90.1668 128.934 90.8122C128.934 94.2545 128.934 97.6968 128.934 101.139C128.934 101.677 129.042 101.892 129.583 101.892C130.665 101.892 131.746 101.892 132.936 101.892C134.883 101.784 136.073 100.816 136.722 99.0952C137.155 97.8043 137.371 96.4059 137.155 95.0075C136.614 91.1349 134.883 89.9516 131.638 90.1668C131.53 90.0592 131.422 90.0592 131.314 90.0592Z" fill="black"/>
<path d="M212.437 95.7606C212.437 93.5016 212.437 91.2426 212.437 89.0912C212.437 88.3382 212.653 88.123 213.41 88.123C216.547 88.123 219.792 88.123 222.929 88.123C223.686 88.123 223.794 88.4458 223.794 89.0912C223.794 89.7366 223.686 90.0593 222.929 90.0593C220.657 90.0593 218.278 90.0593 216.006 90.0593C214.708 90.0593 214.708 90.0593 214.708 91.3502C214.708 92.2108 214.708 92.9638 214.708 93.8243C214.708 94.4698 214.925 94.6849 215.574 94.6849C217.737 94.6849 219.9 94.6849 222.064 94.6849C223.037 94.6849 223.362 95.2228 223.145 96.1909C222.929 96.7288 222.604 96.5136 222.172 96.5136C220.117 96.5136 217.953 96.5136 215.898 96.5136C214.708 96.5136 214.708 96.5136 214.708 97.6969C214.708 98.7726 214.708 99.7408 214.708 100.816C214.708 101.462 214.925 101.677 215.574 101.677C218.062 101.677 220.441 101.677 222.929 101.677C224.119 101.677 224.119 101.677 224.119 102.86C224.119 103.398 223.902 103.613 223.362 103.613C220.008 103.613 216.764 103.613 213.41 103.613C212.653 103.613 212.653 103.183 212.653 102.645C212.437 100.386 212.437 98.1272 212.437 95.7606Z" fill="black"/>
<path d="M142.562 95.8682C142.562 93.6092 142.562 91.3502 142.562 89.1988C142.562 88.3382 142.779 88.123 143.644 88.123C146.781 88.123 149.809 88.123 152.946 88.123C153.595 88.123 153.92 88.2306 153.92 88.9836C153.92 89.629 153.812 90.0593 152.946 90.0593C150.567 90.0593 148.187 90.0593 145.807 90.0593C144.618 90.0593 144.618 90.0593 144.618 91.2426C144.618 92.1032 144.618 92.9638 144.618 93.9319C144.618 94.5773 144.834 94.7925 145.483 94.7925C147.646 94.7925 149.918 94.7925 152.081 94.7925C152.946 94.7925 153.379 95.4379 153.054 96.2985C152.838 96.7288 152.514 96.6212 152.189 96.6212C150.026 96.6212 147.863 96.6212 145.699 96.6212C144.834 96.6212 144.618 96.8363 144.618 97.6969C144.726 98.7726 144.726 99.7408 144.618 100.816C144.509 101.677 144.942 101.892 145.699 101.892C148.079 101.892 150.458 101.892 152.946 101.892C153.92 101.892 154.352 102.538 154.028 103.506C153.92 103.828 153.703 103.828 153.379 103.828C150.026 103.828 146.565 103.828 143.211 103.828C142.562 103.828 142.562 103.398 142.562 102.968C142.562 100.494 142.562 98.2348 142.562 95.8682Z" fill="black"/>
<path d="M232.231 104.044C229.202 104.044 227.147 102.645 226.498 100.171C226.498 99.956 226.39 99.8484 226.39 99.6333C226.39 99.3105 226.174 98.7727 226.606 98.6651C227.147 98.45 227.688 98.45 228.229 98.5575C228.445 98.6651 228.445 98.8803 228.445 99.0954C228.986 101.139 229.851 101.785 231.906 102.107C232.88 102.215 233.853 102.107 234.719 101.785C235.908 101.354 236.557 100.279 236.341 98.9878C236.233 98.3424 235.908 97.9121 235.368 97.5894C234.286 97.0515 232.988 96.8364 231.798 96.5137C231.041 96.2985 230.284 96.191 229.527 95.8683C226.823 94.7925 226.066 91.8881 227.796 89.6291C228.121 89.1988 228.553 88.8761 228.986 88.5534C231.257 87.0474 234.935 87.4777 236.882 89.3064C237.639 90.0594 237.964 90.92 238.072 91.9957C238.072 92.5335 237.964 92.6411 237.423 92.6411C236.341 92.7487 236.125 92.6411 235.8 91.5654C235.368 90.3821 234.61 89.7367 233.421 89.6291C232.772 89.5215 232.015 89.5215 231.366 89.6291C230.5 89.7367 229.851 90.167 229.419 90.92C228.661 92.1033 229.094 93.3941 230.5 93.932C231.69 94.4698 233.096 94.685 234.286 95.0077C235.368 95.2228 236.341 95.5455 237.206 96.191C239.045 97.4818 239.153 101.785 236.341 103.183C234.935 103.721 233.637 104.151 232.231 104.044Z" fill="black"/>
<path d="M323.197 103.613C322.331 103.828 321.899 103.29 321.682 102.43C321.466 101.462 321.033 100.601 320.817 99.7405C320.709 99.2027 320.384 98.9875 319.843 98.9875C318.221 98.9875 316.599 98.9875 314.976 98.9875C314.543 98.9875 314.327 99.2027 314.219 99.633C313.894 100.709 313.462 101.784 313.029 102.86C312.705 103.613 311.515 104.043 310.866 103.613C310.541 103.398 310.758 103.183 310.758 102.968C311.19 101.784 311.623 100.709 312.056 99.5254C313.354 96.0831 314.76 92.7484 315.95 89.1985C316.274 88.2304 316.815 88.2304 317.68 88.1228C318.654 88.0152 318.978 88.4455 319.194 89.1985C320.817 93.6089 322.439 98.0194 324.062 102.43C324.603 103.613 324.603 103.613 323.197 103.613ZM317.788 91.0272C317.68 91.0272 317.572 91.0272 317.572 91.0272C316.815 93.0711 316.058 95.1149 315.301 97.2664C316.923 97.2664 318.329 97.2664 319.952 97.2664C319.194 95.0074 318.437 92.9635 317.788 91.0272Z" fill="black"/>
<path d="M89.3461 88.2305C90.3195 88.0153 90.644 88.4456 90.9685 89.3062C92.591 93.7166 94.2135 98.127 95.7278 102.537C95.8359 102.86 96.3767 103.398 95.7278 103.613C95.0788 103.936 93.889 103.613 93.6726 103.183C93.24 102 92.8073 100.924 92.4828 99.7406C92.3747 99.2028 92.0502 98.9876 91.5093 99.0952C89.8869 99.0952 88.3726 99.0952 86.7501 99.0952C86.2093 99.0952 85.993 99.3103 85.8848 99.7406C85.5603 100.816 85.1277 101.892 84.695 102.968C84.4787 103.613 83.0726 104.151 82.5317 103.721C82.2072 103.506 82.4236 103.075 82.5317 102.86C83.2889 100.709 84.1542 98.5573 84.9113 96.5135C85.7767 94.1469 86.7501 91.8879 87.5073 89.5213C87.9399 88.4456 88.3726 87.9077 89.3461 88.2305ZM91.5093 97.1589C90.7522 95.0075 89.9951 92.856 89.2379 90.597C88.4808 92.7485 87.7236 94.6847 86.9665 96.7286C86.9665 96.8362 86.9665 97.0513 86.9665 97.1589C88.4808 97.1589 89.8869 97.1589 91.5093 97.1589Z" fill="black"/>
<path d="M247.049 95.7605C246.941 93.2863 247.806 91.1349 249.537 89.4138C252.025 87.0472 258.19 86.7245 260.137 91.35C260.245 91.5652 260.353 91.8879 260.353 92.2106C260.461 92.6409 260.353 92.856 259.812 92.9636C258.623 93.0712 258.514 92.9636 257.974 91.8879C256.784 89.4138 253.214 88.8759 251.051 90.7046C250.618 91.0273 250.186 91.4576 249.97 91.9955C248.78 94.7923 248.563 97.5892 250.186 100.278C251.267 102 252.89 102.322 254.837 102.107C256.676 101.892 257.541 100.601 258.082 99.0952C258.514 97.9119 258.514 97.9119 259.812 98.0195C260.353 98.0195 260.461 98.2346 260.461 98.7725C260.137 101.247 257.866 103.613 255.27 104.043C250.835 104.796 247.374 102.107 246.941 97.5892C247.049 96.8362 247.049 96.2983 247.049 95.7605Z" fill="black"/>
<path d="M299.076 95.868C299.076 93.609 299.076 91.35 299.076 89.1986C299.076 88.5532 299.184 88.2305 300.05 88.2305C302.213 88.2305 304.376 88.2305 306.539 88.2305C308.703 88.2305 310.325 89.7365 310.65 91.7803C310.974 94.1469 309.784 96.1908 307.837 96.9438C307.188 97.1589 306.648 97.1589 305.999 97.1589C304.701 97.1589 303.511 97.1589 302.213 97.1589C301.456 97.1589 301.239 97.374 301.348 98.127C301.348 99.7406 301.348 101.247 301.348 102.86C301.348 103.936 300.699 103.721 300.158 103.721C299.509 103.828 299.184 103.613 299.184 102.86C299.076 100.494 299.076 98.127 299.076 95.868ZM303.835 95.2226C304.484 95.2226 305.242 95.2226 305.89 95.2226C307.729 95.0075 308.595 94.0393 308.486 92.4258C308.378 91.0273 307.405 90.0592 305.89 90.0592C304.593 89.9516 303.186 90.0592 301.888 90.0592C301.456 90.0592 301.239 90.2743 301.239 90.7046C301.239 91.9955 301.239 93.3939 301.239 94.6848C301.239 95.115 301.456 95.3302 301.78 95.2226C302.537 95.2226 303.186 95.2226 303.835 95.2226Z" fill="black"/>
<path d="M341.477 88.2305C341.91 88.1229 342.342 88.2305 342.775 88.1229C343.532 88.0154 343.857 88.3381 344.289 88.9835C345.479 91.1349 346.777 93.1788 348.075 95.3302C348.508 95.3302 348.508 95.0075 348.724 94.7924C349.806 92.9636 350.995 91.1349 352.077 89.3062C352.51 88.5532 353.05 88.1229 354.024 88.2305C354.348 88.3381 354.781 88.1229 355.214 88.3381C354.673 89.3062 354.132 90.2744 353.483 91.1349C352.185 92.9636 351.104 94.8999 349.806 96.7286C349.481 97.1589 349.373 97.5892 349.373 98.0195C349.373 99.6331 349.373 101.139 349.373 102.753C349.373 103.398 349.157 103.506 348.508 103.506C347.101 103.506 347.101 103.506 347.101 102.107C347.101 101.031 346.993 100.063 347.101 98.9876C347.21 97.5892 346.669 96.5135 346.02 95.4378C344.506 93.1788 343.099 90.8122 341.585 88.5532C341.477 88.5532 341.369 88.4456 341.477 88.2305Z" fill="black"/>
<path d="M198.7 96.7287C198.7 98.6649 198.7 100.709 198.7 102.645C198.7 103.506 198.267 103.506 197.618 103.506C196.969 103.506 196.537 103.506 196.537 102.538C196.537 98.7725 196.537 95.0075 196.537 91.1349C196.537 89.8441 196.537 89.8441 195.239 89.8441C194.157 89.8441 193.184 89.8441 192.102 89.8441C191.345 89.8441 191.345 89.4138 191.345 88.8759C191.345 88.3381 191.345 87.9078 192.102 88.0154C195.779 88.0154 199.565 88.0154 203.243 88.0154C204 88.0154 204 88.3381 204 88.8759C204 89.4138 204 89.8441 203.243 89.8441C202.053 89.8441 200.755 89.8441 199.565 89.8441C198.916 89.8441 198.7 90.0592 198.7 90.7047C198.7 92.8561 198.7 94.7924 198.7 96.7287Z" fill="black"/>
<path d="M179.014 96.8363C179.014 98.7726 179.014 100.709 179.014 102.645C179.014 103.398 178.69 103.613 177.933 103.613C177.284 103.613 176.743 103.613 176.743 102.645C176.743 98.7726 176.743 94.9 176.743 91.0275C176.743 89.9518 176.743 89.9518 175.661 89.9518C174.471 89.9518 173.39 89.9518 172.2 89.9518C171.335 89.9518 171.443 89.4139 171.443 88.9836C171.443 88.4458 171.551 88.123 172.2 88.123C175.878 88.123 179.555 88.123 183.233 88.123C183.99 88.123 183.99 88.4458 183.99 89.0912C183.99 89.7366 183.882 90.0593 183.125 90.0593C181.935 89.9518 180.853 90.0593 179.663 90.0593C178.906 90.0593 178.582 90.2745 178.69 91.0275C179.014 92.8562 179.014 94.9 179.014 96.8363Z" fill="black"/>
<path d="M186.802 95.7606C186.802 93.5016 186.802 91.2426 186.802 89.0912C186.802 88.2306 187.126 88.123 187.883 88.123C188.532 88.123 189.073 88.123 189.073 89.0912C189.073 93.6092 189.073 98.1272 189.073 102.753C189.073 103.613 188.641 103.613 187.992 103.613C187.343 103.613 186.91 103.613 186.91 102.753C186.91 100.386 186.802 98.1272 186.802 95.7606Z" fill="black"/>
<path d="M208.651 95.7606C208.651 98.0196 208.651 100.279 208.651 102.538C208.651 103.398 208.327 103.613 207.569 103.613C206.812 103.613 206.488 103.506 206.488 102.645C206.488 98.1272 206.488 93.6092 206.488 89.0912C206.488 88.123 207.029 88.123 207.678 88.123C208.327 88.123 208.759 88.2306 208.759 89.0912C208.651 91.3502 208.651 93.5016 208.651 95.7606Z" fill="black"/>
<path d="M120.821 95.7604C120.821 93.5014 120.821 91.2424 120.821 89.091C120.821 88.2304 121.146 88.1229 121.903 88.1229C122.552 88.1229 123.093 88.0153 123.093 89.091C123.093 93.609 123.093 98.2346 123.093 102.753C123.093 103.721 122.552 103.613 122.011 103.613C121.362 103.613 120.821 103.721 120.929 102.753C120.821 100.386 120.821 98.127 120.821 95.7604Z" fill="black"/>
</svg>
